<svg width="97" height="55" viewBox="0 0 97 55" fill="none" xmlns="http://www.w3.org/2000/svg">
<path d="M85.2987 8.60653C86.1515 9.8856 86.97 11.4635 86.5675 13.1544C85.1784 12.3565 84.0611 11.0537 83.1751 9.76753C82.2829 8.47274 81.3565 7.0959 81.0391 5.5C82.7913 5.94978 84.3599 7.19835 85.2987 8.60653Z" fill="#0B2B3F"/>
<path d="M9.98682 13.1521C9.58533 11.4609 10.4055 9.8836 11.2598 8.60525C12.2003 7.19791 13.7694 5.95049 15.5218 5.50195C15.2034 7.09754 14.2755 8.47386 13.3824 9.76782C12.4953 11.0533 11.3764 12.3553 9.98682 13.1521Z" fill="#0B2B3F"/>
<path d="M8.76453 16.3963C9.07793 15.057 9.07099 13.5907 8.77262 12.3344C8.51026 11.2304 8.12848 9.66969 6.87196 9.14307C5.95861 10.6134 5.59146 12.6157 6.12377 14.116C6.50865 15.2012 7.20082 16.636 8.6363 16.8581C9.95352 17.1629 11.2855 16.4577 12.3374 15.8755C13.5071 15.2282 14.6528 14.1983 15.349 12.974C14.072 12.3272 12.6177 12.8521 11.5237 13.3552C10.3443 13.8976 9.26094 15.0612 8.76453 16.3963Z" fill="#0B2B3F"/>
<path d="M34.3271 17.6827V10.9583H32.0396V13.4082H28.6083V10.9583H26.3208V17.6827H28.6083V15.2414H32.0396V17.6827H34.3271Z" fill="#0B2B3F"/>
<path d="M41.9127 10.9583H44.4391L40.8543 15.4641V17.6827H38.5583V15.4726L35.0161 10.9583H37.6193L39.7362 13.648L41.9127 10.9583Z" fill="#0B2B3F"/>
<path fill-rule="evenodd" clip-rule="evenodd" d="M52.4065 11.5321C52.8589 11.892 53.115 12.5002 53.115 13.3825C53.115 14.1021 52.9357 14.6417 52.5943 15.0187C52.1333 15.5498 51.3737 15.7896 50.3836 15.7982C50.0763 15.8068 47.4474 15.7982 47.4474 15.7982V17.6827H45.1514V10.9583H50.3495C51.2712 10.9583 51.9712 11.1467 52.4065 11.5321ZM50.7079 13.9051C50.7763 13.7851 50.8104 13.6309 50.8104 13.4168C50.8104 13.194 50.7677 13.0056 50.6909 12.9028C50.5458 12.6887 50.2726 12.5858 49.8288 12.5858H47.4304V14.2305H49.8117C50.2897 14.2305 50.5714 14.1192 50.7079 13.9051Z" fill="#0B2B3F"/>
<path d="M61.0869 16.0123V17.6827H54.0283V10.9583H61.0277V12.6372H56.2816V13.5024H60.8908V15.1385H56.2816V16.0123H61.0869Z" fill="#0B2B3F"/>
<path fill-rule="evenodd" clip-rule="evenodd" d="M69.6574 11.6435C69.9655 11.9605 70.1097 12.3974 70.1097 13.0056C70.1097 13.5282 69.9821 13.9736 69.7684 14.2734C69.5298 14.5989 69.1625 14.873 68.7102 14.9415L70.7332 17.6827H68.1894L66.5254 15.3099H64.4516V17.6827H62.1724V10.9583H67.5068C68.565 10.9583 69.2569 11.2152 69.6574 11.6435ZM67.8139 13.571C67.8741 13.4682 67.8907 13.3311 67.8907 13.2198C67.8907 13.0913 67.8741 12.9542 67.8139 12.8685C67.6946 12.6458 67.456 12.5858 67.097 12.5858H64.4599V13.8108H67.1396C67.5068 13.8108 67.7288 13.7423 67.8139 13.571Z" fill="#0B2B3F"/>
<path d="M59.8639 26.117C59.8639 24.5799 58.8909 23.7721 56.6215 23.5252C56.2526 23.4803 55.1681 23.3681 54.4861 23.312C52.7309 23.1212 52.2056 23.0203 52.2056 22.5715C52.2056 22.1676 52.6192 21.9769 54.1955 21.9769C55.3135 21.9769 55.9396 22.19 56.1854 22.5154C56.3085 22.6725 56.3532 22.7959 56.3644 22.9193H59.5841C59.5505 22.65 59.4388 22.2685 59.2598 21.932C58.6786 20.8099 57.2811 19.9124 54.2738 19.9124C50.8863 19.9124 49.0305 21.1129 49.0305 22.6837C49.0305 24.1984 50.0813 25.0848 52.921 25.3429C53.2421 25.3705 53.9316 25.4358 54.4962 25.4894L54.5311 25.4927L54.5374 25.4933L54.5399 25.4935L54.8439 25.5224C56.3308 25.6795 56.7333 25.7804 56.7333 26.2517C56.7333 26.6892 56.342 26.9248 54.6986 26.9248C53.4241 26.9248 52.6751 26.7341 52.4067 26.4087C52.295 26.2741 52.2167 26.0721 52.1944 25.9375H48.9746C49.0081 26.1618 49.064 26.5209 49.187 26.8127C49.7348 28.0469 51.1659 28.9893 54.4861 28.9893C58.0525 28.9893 59.8639 27.9795 59.8639 26.117Z" fill="#0B2B3F"/>
<path fill-rule="evenodd" clip-rule="evenodd" d="M37.0392 27.957C37.3746 27.5643 37.5422 26.9696 37.5422 26.3637C37.5422 25.8476 37.4081 25.3539 37.1286 25.0285C36.7932 24.5909 36.2006 24.2768 35.5746 24.1983C35.9995 24.1422 36.4019 23.9178 36.6367 23.6261C36.9273 23.2782 37.0615 22.807 37.0615 22.2348C37.0615 21.6626 36.8938 21.1577 36.5137 20.7762C36.0889 20.3386 35.3175 20.0469 34.1101 20.0469H26.5303V28.8546H34.3225C35.5634 28.8546 36.5249 28.5853 37.0392 27.957ZM33.9536 22.7621C33.9536 22.9754 33.8864 23.1549 33.7747 23.2782C33.6182 23.4241 33.3275 23.4802 32.9474 23.4802H29.4593V22.044H32.8691C33.294 22.044 33.5847 22.1002 33.7411 22.246C33.8864 22.3694 33.9536 22.5489 33.9536 22.7621ZM34.289 26.6218C34.1101 26.7901 33.797 26.8575 33.2716 26.8575H29.4593V25.3876H33.3052C33.797 25.3876 34.0877 25.4549 34.2554 25.6008C34.3896 25.7354 34.4454 25.9037 34.4454 26.1281C34.4454 26.3413 34.4007 26.5096 34.289 26.6218Z" fill="#0B2B3F"/>
<path d="M48.0693 26.6667V28.8546H38.8237V20.0469H47.991V22.246H41.7751V23.3792H47.8122V25.5223H41.7751V26.6667H48.0693Z" fill="#0B2B3F"/>
<path d="M70.7429 22.2573V20.0469H60.2681V22.2573H63.9686V28.8546H67.031V22.2573H70.7429Z" fill="#0B2B3F"/>
<path d="M70.4773 36.6488H69.9845L69.9492 36.1726C69.7988 36.4136 69.4803 36.7029 68.8081 36.7029C67.6721 36.7029 67.144 36.0158 67.144 34.2613C67.144 32.9049 67.4802 31.8137 68.8672 31.8137C70.0696 31.8137 70.4358 32.6036 70.4534 33.4536H69.8528C69.8351 32.8989 69.5882 32.3865 68.8797 32.3865C68.0269 32.3865 67.78 32.8989 67.78 34.2795C67.78 35.7204 68.0871 36.1726 68.8921 36.1726C69.4565 36.1726 69.7864 35.8591 69.8953 35.4853V34.587H68.6815V34.0383H70.4711V35.425C70.4711 35.8393 70.4752 36.2815 70.4763 36.5038L70.4773 36.6095V36.6488Z" fill="#0B2B3F"/>
<path fill-rule="evenodd" clip-rule="evenodd" d="M26.6431 35.449H28.3251L28.6735 36.6487H29.3102L27.9166 31.874H27.1417L25.6519 36.6487H26.2826L26.6431 35.449ZM28.1749 34.9125H26.8053C26.8053 34.9125 27.3999 32.9833 27.412 32.9411C27.418 32.9109 27.5141 32.4829 27.5141 32.4829L27.5806 32.7995L27.6102 32.9411C27.6162 32.9712 28.1749 34.9125 28.1749 34.9125Z" fill="#0B2B3F"/>
<path d="M33.87 31.874H34.4467L33.3233 36.6487H32.6085C32.6085 36.6487 31.8095 32.9351 31.8095 32.7783C31.8035 32.9351 30.9865 36.6487 30.9865 36.6487H30.2718L29.1484 31.874H29.7971C29.7971 31.874 30.6682 35.654 30.6682 35.8047C30.6682 35.654 31.4672 31.874 31.4672 31.874H32.182C32.182 31.874 32.9809 35.66 32.9809 35.8047C32.9809 35.66 33.87 31.874 33.87 31.874Z" fill="#0B2B3F"/>
<path fill-rule="evenodd" clip-rule="evenodd" d="M36.9139 35.449H35.2319L34.8715 36.6487H34.2407L35.7305 31.874H36.5054L37.8991 36.6487H37.2623L36.9139 35.449ZM35.3941 34.9125H36.7637C36.7637 34.9125 36.2051 32.9712 36.1991 32.9411L36.1536 32.7238L36.1029 32.4829C36.1029 32.4829 36.0068 32.9109 36.0008 32.9411C35.9888 32.9833 35.3941 34.9125 35.3941 34.9125Z" fill="#0B2B3F"/>
<path fill-rule="evenodd" clip-rule="evenodd" d="M40.2139 31.874C40.9467 31.874 41.3432 32.2176 41.3432 33.2184C41.3432 34.0685 41.0249 34.3518 40.6944 34.4482L41.6076 36.6487H40.9467L40.0998 34.5689H38.9465V36.6487H38.3457V31.874H40.2139ZM40.1239 34.0262C40.5984 34.0262 40.7125 33.779 40.7125 33.2365C40.7125 32.6216 40.5323 32.4347 40.0938 32.4347H38.9524V34.0262H40.1239Z" fill="#0B2B3F"/>
<path fill-rule="evenodd" clip-rule="evenodd" d="M45.343 34.183C45.343 35.3104 45.259 35.7685 45.0187 36.1122C44.7784 36.4438 44.4 36.6487 43.7872 36.6487H42.1533V31.874H43.7451C44.3459 31.874 44.8144 32.0549 45.0307 32.3804C45.271 32.7301 45.343 33.1641 45.343 34.183ZM43.6611 36.082C44.0275 36.082 44.3339 35.9856 44.49 35.7745C44.6583 35.5455 44.7063 35.0812 44.7063 34.183C44.7063 33.4294 44.6642 33.0255 44.49 32.7662C44.3279 32.5432 44.0155 32.4467 43.6491 32.4467H42.76V36.082H43.6611Z" fill="#0B2B3F"/>
<path d="M51.68 31.874H52.2567L51.1334 36.6487H50.4185C50.4185 36.6487 49.6196 32.9351 49.6196 32.7783C49.6136 32.9351 48.7966 36.6487 48.7966 36.6487H48.0818L46.9585 31.874H47.6072C47.6072 31.874 48.4782 35.654 48.4782 35.8047C48.4782 35.654 49.2771 31.874 49.2771 31.874H49.992C49.992 31.874 50.7909 35.66 50.7909 35.8047C50.7909 35.66 51.68 31.874 51.68 31.874Z" fill="#0B2B3F"/>
<path d="M53.3191 31.874V36.6487H52.6943V31.874H53.3191Z" fill="#0B2B3F"/>
<path d="M57.2293 31.874V36.6487H56.5384L54.7663 32.9471V36.6487H54.1836V31.874H54.9105L56.6405 35.5213V31.874H57.2293Z" fill="#0B2B3F"/>
<path d="M61.126 31.874V36.6487H60.4351L58.6633 32.9471V36.6487H58.0806V31.874H58.8075L60.5378 35.5213V31.874H61.126Z" fill="#0B2B3F"/>
<path d="M62.5996 31.874V36.6487H61.9751V31.874H62.5996Z" fill="#0B2B3F"/>
<path d="M66.5102 31.874V36.6487H65.8193L64.0474 32.9471V36.6487H63.4644V31.874H64.1916L65.922 35.5213V31.874H66.5102Z" fill="#0B2B3F"/>
<path d="M33.4066 46.0591L32.7182 43.9329L32.0298 46.0591H29.8022L31.6044 47.3733L30.916 49.4996L32.7182 48.1854L34.5205 49.4996L33.832 47.3733L35.6342 46.0591H33.4066Z" fill="#0B2B3F"/>
<path d="M41.3669 46.0596L40.6645 43.9333L39.9621 46.0596H37.689L39.528 47.3737L38.8256 49.4999L40.6645 48.1859L42.5035 49.4999L41.8011 47.3737L43.64 46.0596H41.3669Z" fill="#0B2B3F"/>
<path d="M49.2517 46.0596L48.5493 43.9333L47.8468 46.0596H45.5737L47.4127 47.3737L46.7102 49.4999L48.5493 48.1859L50.3882 49.4999L49.6858 47.3737L51.5248 46.0596H49.2517Z" fill="#0B2B3F"/>
<path d="M57.1365 46.0596L56.434 43.9333L55.7316 46.0596H53.4585L55.2974 47.3737L54.595 49.4999L56.434 48.1859L58.273 49.4999L57.5705 47.3737L59.4096 46.0596H57.1365Z" fill="#0B2B3F"/>
<path d="M65.0679 46.0596L64.3801 43.9333L63.6912 46.0596H61.4639L63.2659 47.3737L62.5781 49.4999L64.3801 48.1859L66.1821 49.4999L65.4932 47.3737L67.2963 46.0596H65.0679Z" fill="#0B2B3F"/>
<path d="M4.70762 20.0101C5.35539 21.0019 6.35775 22.2442 7.81928 22.2088C9.14832 22.2754 10.2965 21.3651 11.2008 20.6054C12.1746 19.7871 13.0536 18.5905 13.4247 17.2969C12.0654 16.9 10.7639 17.6353 9.79339 18.3288C8.77993 19.0531 8.00051 20.3787 7.83307 21.7399C7.82052 20.3762 7.45275 18.9679 6.85987 17.8333C6.31781 16.7961 5.56246 15.3941 4.21485 15.1138C3.68389 16.7277 3.8533 18.7024 4.70762 20.0101Z" fill="#0B2B3F"/>
<path d="M8.25188 27.5506C6.89544 27.7788 5.57231 26.9447 4.71302 25.9636C3.60671 24.7004 2.94846 23.0059 3.0827 21.3096C4.47617 21.3451 5.53154 22.554 6.31158 23.4681C7.15169 24.4526 7.84002 25.748 8.17023 27.0842C8.02499 25.7525 8.47046 24.3146 9.2974 23.4261C10.0956 22.5683 11.2137 21.6336 12.6049 21.7836C12.5749 23.1339 11.9005 24.4204 11.2049 25.3839C10.5565 26.2818 9.55768 27.3924 8.25188 27.5506Z" fill="#0B2B3F"/>
<path d="M5.74649 32.0376C6.99576 32.8539 8.51092 33.6618 10.1033 33.0504C11.4096 32.5865 12.2402 31.2668 12.751 30.0556C13.2921 28.7721 13.6535 27.2922 13.4033 25.8875C11.9678 26.0153 10.7775 27.0461 10.1453 28.3043C9.48433 29.6197 9.35756 31.1854 9.86528 32.5646C9.11511 31.1458 8.01804 29.9978 6.85592 28.937C5.79951 27.9728 4.27781 26.957 2.74512 27.1481C3.03674 29.0498 4.19305 31.0227 5.74649 32.0376Z" fill="#0B2B3F"/>
<path d="M13.3207 38.1915C14.5501 37.4539 15.0448 35.902 15.247 34.5721C15.465 33.1379 15.4557 31.5562 14.8621 30.1956C13.4359 30.5954 12.4569 31.8837 12.1336 33.2948C11.7921 34.7856 12.0803 36.3746 12.9111 37.6439C11.8067 36.3724 10.3382 35.3225 8.93098 34.5863C7.57164 33.8751 5.90398 33.0174 4.27148 33.5354C5.05868 35.4635 6.74263 37.2587 8.60896 38.0013C10.0543 38.5762 11.8126 39.1448 13.3207 38.1915Z" fill="#0B2B3F"/>
<path d="M19.149 38.6905C19.3294 40.0748 19.3243 41.8307 18.2534 42.8962C16.9151 44.271 14.844 44.0057 13.2466 43.7032C11.102 43.2968 8.68792 41.8289 7.39404 39.8743C8.97425 39.0011 10.9069 39.5597 12.4713 40.0119L12.5606 40.0376C14.3069 40.5418 16.1679 41.3539 17.7242 42.4636C16.4822 41.3373 15.5772 39.6841 15.533 38.0178C15.4931 36.5275 16.1377 34.933 17.5247 34.2227C18.493 35.4982 18.9465 37.1358 19.149 38.6905Z" fill="#0B2B3F"/>
<path d="M25.3643 46.816C26.1529 45.3094 25.3715 43.541 24.7489 42.2341C24.0127 40.689 23.0069 39.1143 21.5675 37.9834C20.1854 39.1789 20.3168 40.8894 20.7277 42.376C21.2163 44.1436 22.9104 45.6503 24.6645 46.509C22.6329 45.7486 20.4142 45.2923 18.3033 45.1576L18.0894 45.1437C16.3936 45.0328 14.1858 44.8885 12.8345 46.1341C14.8777 47.8773 17.7799 48.8831 20.3377 48.8308C22.0519 48.7958 24.4037 48.5923 25.3643 46.816Z" fill="#0B2B3F"/>
<path d="M87.7875 16.4012C87.2926 15.0651 86.2096 13.9 85.031 13.3566C83.9366 12.8527 82.4831 12.3268 81.2061 12.9725C81.9011 14.1974 83.0454 15.228 84.2146 15.8762C85.2655 16.4591 86.5965 17.1652 87.914 16.8617C89.3498 16.641 90.0439 15.2065 90.4298 14.1212C90.9641 12.6217 90.5989 10.619 89.687 9.14771C88.4296 9.6736 88.0458 11.2339 87.7833 12.3378C87.4835 13.5944 87.4752 15.0612 87.7875 16.4012Z" fill="#0B2B3F"/>
<path d="M86.7549 18.3321C87.7675 19.0568 88.5445 20.3817 88.7115 21.7418C88.7261 20.3789 89.0954 18.9719 89.6888 17.8385C90.2314 16.8016 90.9887 15.4002 92.3363 15.1208C92.8654 16.7353 92.6942 18.7099 91.8383 20.0168C91.191 21.0069 90.1888 22.2466 88.7302 22.2134C87.3992 22.2816 86.2497 21.3691 85.3451 20.6078C84.372 19.7887 83.4943 18.5915 83.125 17.2976C84.484 16.9016 85.7849 17.6379 86.7549 18.3321Z" fill="#0B2B3F"/>
<path d="M88.3687 27.0931C88.5171 25.7603 88.073 24.3194 87.2452 23.4291C86.4484 22.5707 85.3311 21.6351 83.9399 21.7841C83.968 23.1344 84.6412 24.4215 85.3363 25.3855C85.9837 26.2835 86.9806 27.3941 88.2857 27.5542C89.6427 27.7848 90.9675 26.9511 91.8285 25.9701C92.9354 24.7079 93.5953 23.014 93.4635 21.3174C92.0692 21.3519 91.0131 22.5599 90.2319 23.4734C89.3895 24.4586 88.6997 25.7554 88.3687 27.0931Z" fill="#0B2B3F"/>
<path d="M86.3942 28.3068C87.054 29.6229 87.1795 31.189 86.6702 32.5677C87.4213 31.1491 88.5199 30.0018 89.6828 28.9418C90.74 27.9783 92.2629 26.9639 93.7952 27.156C93.5026 29.0576 92.3438 31.0297 90.7898 32.0433C89.5407 32.8575 88.0271 33.6638 86.4367 33.0548C85.1285 32.5918 84.2976 31.2694 83.7872 30.0561C83.2467 28.7722 82.8867 27.2921 83.1388 25.8875C84.5735 26.0165 85.7634 27.0481 86.3942 28.3068Z" fill="#0B2B3F"/>
<path d="M83.6215 37.6415C84.4514 36.3734 84.7408 34.786 84.4016 33.2959C84.08 31.8845 83.1017 30.5954 81.6753 30.1946C81.0808 31.5546 81.0704 33.1362 81.2862 34.5707C81.4875 35.898 81.9792 37.4468 83.2013 38.1871C84.7108 39.1479 86.4733 38.5796 87.9206 38.0049C89.7879 37.2637 91.4737 35.4698 92.2622 33.542C90.6303 33.023 88.9621 33.8795 87.6021 34.5895C86.1953 35.3243 84.7263 36.372 83.6215 37.6415Z" fill="#0B2B3F"/>
<path d="M77.3799 38.6868C77.1983 40.0708 77.2014 41.8265 78.2721 42.893C79.6083 44.2688 81.68 44.005 83.2776 43.7035C85.423 43.2988 87.8381 41.8325 89.1339 39.879C87.5549 39.0048 85.6212 39.5617 84.0567 40.0126L83.9665 40.0384C82.2205 40.5411 80.3594 41.3515 78.8022 42.4596C80.045 41.3342 80.9507 39.6823 80.9963 38.0167C81.0378 36.5265 80.3946 34.9315 79.0086 34.22C78.0386 35.4948 77.5842 37.1322 77.3799 38.6868Z" fill="#0B2B3F"/>
<path d="M76.1807 48.8257C74.4669 48.7893 72.115 48.5841 71.1564 46.807L71.1429 46.7827C70.3773 45.2806 71.1554 43.525 71.7758 42.2257C72.5134 40.6811 73.5207 39.1072 74.9607 37.9775C76.3425 39.1739 76.2087 40.8844 75.7968 42.3705C75.3061 44.1378 73.611 45.6435 71.8557 46.5007C73.888 45.7419 76.107 45.2872 78.2182 45.154L78.4329 45.1402C80.1291 45.0307 82.3368 44.8883 83.6865 46.1346C81.6417 47.876 78.739 48.8798 76.1807 48.8257Z" fill="#0B2B3F"/>
</svg>
