<svg width="97" height="54" viewBox="0 0 97 54" fill="none" xmlns="http://www.w3.org/2000/svg">
<path d="M7.56334 13.2004C6.96504 11.6972 7.22478 9.96869 7.77589 8.51497C8.35572 6.98528 9.36537 5.45978 10.8744 4.65527C10.9493 6.26727 10.4512 7.85989 9.90695 9.29601C9.41752 10.5877 8.81699 11.9639 7.82533 13.0322C7.67295 13.8416 7.55618 14.6488 7.47406 15.4523C7.80273 14.6035 8.33566 13.8298 9.00063 13.2077C9.85675 12.4066 11.1303 11.7885 12.3257 12.154C11.9756 13.4604 11.1775 14.7128 10.2322 15.5913C9.48825 16.2828 8.50612 17.1688 7.34928 17.2037C7.30162 18.3861 7.32856 19.5577 7.42697 20.7134C7.59017 19.8676 7.93985 19.0712 8.44509 18.4782C9.13916 17.6632 10.1683 16.6676 11.4826 16.8341C11.4108 18.1564 10.8773 19.5111 10.1344 20.5291C9.544 21.3381 8.76463 22.3691 7.65836 22.6355C7.8355 23.7711 8.08224 24.8879 8.39528 25.9806C8.39829 25.1439 8.58523 24.3226 8.95609 23.6639C9.47874 22.735 10.2928 21.5766 11.6086 21.486C11.8015 22.7833 11.5401 24.2013 11.0129 25.3292C10.5916 26.2307 10.0298 27.3803 9.0059 27.856C9.43589 29.0317 9.94471 30.1746 10.5281 31.2776C10.3233 30.3269 10.3315 29.325 10.5739 28.4236C10.9079 27.1808 11.7371 25.8754 13.0684 25.4966C13.539 26.8685 13.4741 28.3997 13.2007 29.7942C12.9757 30.9424 12.5337 32.2909 11.5428 33.0367C12.1906 34.0703 12.9073 35.0622 13.6888 36.006C13.2689 35.0804 13.0602 34.068 13.1722 33.1412C13.3353 31.791 13.719 30.3466 15.1141 29.6267C15.9055 30.9767 16.0889 32.4912 16.1561 33.9871C16.2104 35.1965 16.0342 36.6881 15.1847 37.6719C16.1192 38.6324 17.1275 39.5314 18.2045 40.3604C17.5092 39.4787 17.0223 38.4439 16.9192 37.4206C16.7736 35.9748 16.8448 34.3832 18.1426 33.3222C19.2526 34.4683 19.9149 36.1562 20.2395 37.6222C20.5266 38.9184 20.8262 40.4525 20.1428 41.7281C21.5134 42.6126 22.9766 43.3919 24.5236 44.0518C23.4351 43.2849 22.544 42.2328 22.1194 41.1464C21.5631 39.7224 21.219 38.0256 22.3027 36.5994C23.7546 37.5188 24.8217 39.0874 25.6624 40.5181C26.3838 41.7456 27.1305 43.4399 26.76 44.9019C27.6165 45.1893 28.4952 45.4416 29.3948 45.6568L29.3413 45.8751C28.4383 45.6591 27.5562 45.4059 26.6962 45.1178C26.0937 46.8781 24.1199 47.4596 22.5236 47.7164C20.2492 48.0822 17.541 47.3734 15.5993 45.9455C16.6242 44.5137 18.7151 44.3685 20.2918 44.2589L20.3123 44.2575C22.0396 44.1375 23.9077 44.2978 25.6447 44.7439C23.6381 43.9888 21.7605 43.0393 20.0292 41.9231L20.0037 41.9629C19.055 43.4838 17.1502 43.5431 15.6551 43.4469C13.6263 43.3164 11.284 42.0968 9.92833 40.411C11.2035 39.3049 13.0869 39.6145 14.5462 39.8543L14.5532 39.8554C16.182 40.1231 17.9618 40.7071 19.4558 41.6062C19.3135 41.4954 19.1742 41.3782 19.0389 41.2553C17.5863 40.2314 16.2464 39.0861 15.0305 37.8374C15.0164 37.8514 15.0021 37.8653 14.9877 37.8791C13.8054 39.0549 12.0835 38.747 10.7397 38.3643C8.94149 37.8522 7.07655 36.3074 6.18283 34.5338C7.56776 33.7667 9.22354 34.3988 10.5115 34.8989C11.925 35.4477 13.4206 36.3257 14.5706 37.4449C14.452 37.2971 14.3389 37.1426 14.232 36.9827C13.1631 35.7901 12.2016 34.513 11.3563 33.1657L11.3139 33.1919C9.97645 34.0452 8.4611 33.4273 7.26009 32.8196C5.63172 31.9958 4.32316 30.1851 3.75773 28.4044C5.20228 27.947 6.6295 28.8448 7.73897 29.5558C8.95241 30.3334 10.1816 31.4424 11.0253 32.7143C10.9633 32.589 10.9056 32.4609 10.8524 32.3304C10.0417 30.9321 9.35303 29.4643 8.79552 27.9416L8.76679 27.9512L8.76444 27.9521C7.54836 28.4091 6.19413 27.6986 5.31124 26.9193C4.08414 25.8363 3.21924 24.1713 3.01648 22.5447C4.28436 22.3824 5.47887 23.3521 6.29555 24.1793C7.23561 25.1312 8.07932 26.2564 8.59803 27.5061C8.56017 27.3704 8.52768 27.2325 8.50037 27.0932C8.02837 25.6623 7.67079 24.1866 7.43507 22.678L7.41671 22.6802L7.41049 22.6812C6.12482 22.8934 4.93614 21.9271 4.22597 20.9892C3.2296 19.6732 2.71597 17.8518 2.84471 16.201C4.12539 16.2896 5.10057 17.4941 5.73295 18.4684C6.46488 19.5963 7.07184 20.8729 7.33769 22.2083C7.32959 22.1021 7.32479 21.9952 7.3231 21.8881C7.12787 20.3526 7.05828 18.7857 7.12194 17.1994L7.11827 17.1992C5.81112 17.1526 4.84508 15.9528 4.34633 14.8886C3.63267 13.3656 3.51778 11.4405 3.99411 9.81805C5.23995 10.1637 5.93449 11.5766 6.34443 12.6641C6.81709 13.918 7.14699 15.2856 7.14963 16.6453C7.21762 15.5046 7.35455 14.3549 7.56334 13.2004Z" fill="#0B2B3F"/>
<path d="M33.3082 10.3862V15.8326C33.3082 18.2281 31.1137 19.3806 27.7877 19.3806C24.6789 19.3806 22.4502 18.2394 22.4502 15.5501V10.3862H25.5476V15.5501C25.5476 16.5106 26.3819 17.1094 27.9135 17.1094C29.3765 17.1094 30.2451 16.488 30.2451 15.5614V10.3862H33.3082Z" fill="#0B2B3F"/>
<path d="M43.6237 16.8947V19.2563H35.063V10.3862H38.1604V16.8947H43.6237Z" fill="#0B2B3F"/>
<path d="M52.8291 12.6122V10.3862H42.1196V12.6122H45.9028V19.2563H49.0345V12.6122H52.8291Z" fill="#0B2B3F"/>
<path fill-rule="evenodd" clip-rule="evenodd" d="M63.8158 11.2903C64.2273 11.7083 64.4223 12.2846 64.4223 13.0868C64.4223 13.7761 64.2509 14.3637 63.9646 14.7591C63.6444 15.1885 63.1528 15.5501 62.5472 15.6405L65.2567 19.2563H61.8504L59.6212 16.1263H56.8442V19.2563H53.7925V10.3862H60.9359C62.3532 10.3862 63.279 10.7252 63.8158 11.2903ZM61.3475 13.8326C61.4275 13.697 61.4501 13.5162 61.4501 13.3694C61.4501 13.1998 61.4275 13.019 61.3475 12.9061C61.1874 12.6122 60.8672 12.5332 60.3869 12.5332H56.8556V14.149H60.4443C60.9359 14.149 61.2335 14.0586 61.3475 13.8326Z" fill="#0B2B3F"/>
<path fill-rule="evenodd" clip-rule="evenodd" d="M69.3794 17.6179H74.2256L75.0139 19.2563H78.3175L73.7915 10.3862H70.0998L65.311 19.2563H68.545L69.3794 17.6179ZM73.2537 15.6292H70.3852L71.5172 13.4937L71.86 12.68L72.1801 13.4823L73.2537 15.6292Z" fill="#0B2B3F"/>
<path fill-rule="evenodd" clip-rule="evenodd" d="M63.489 20.9268C61.5716 20.9268 60.563 21.8252 60.563 23.1454C60.563 24.6355 61.6215 25.3914 63.489 25.3914C65.5448 25.3914 66.4094 24.515 66.4094 23.1454C66.4094 21.754 65.4337 20.9268 63.489 20.9268ZM63.489 24.2904C62.3975 24.2904 62.0811 23.8467 62.0811 23.1619C62.0811 22.4881 62.4248 22.0444 63.4834 22.0444C64.6417 22.0444 64.9016 22.5428 64.9016 23.1619C64.9016 23.8193 64.5861 24.2904 63.489 24.2904Z" fill="#0B2B3F"/>
<path d="M57.7209 25.3257V22.7784H54.8284V23.7042H56.3744C56.3634 23.7754 56.3079 23.9124 56.2359 23.9945C56.0752 24.1808 55.6485 24.3451 55.0944 24.3451C54.5181 24.3451 54.1469 24.1972 53.9474 23.9671C53.8145 23.7973 53.7369 23.5563 53.7369 23.1948C53.7369 22.8168 53.8145 22.5593 53.964 22.3895C54.1801 22.1485 54.5458 22.0444 55.0834 22.0444C55.5654 22.0444 55.8979 22.1539 56.0531 22.2908C56.1528 22.373 56.2303 22.4881 56.247 22.5647H57.6821C57.6767 22.4278 57.6323 22.2087 57.5547 22.0499C57.2111 21.3596 56.4132 20.9487 55.0557 20.9487C53.8754 20.9487 53.083 21.3048 52.6453 21.8417C52.3571 22.2087 52.2241 22.6688 52.2241 23.1838C52.2241 23.7536 52.3792 24.2411 52.6342 24.5643C53.0663 25.1176 53.8366 25.3914 54.7619 25.3914C55.5766 25.3914 56.1361 25.1997 56.4908 24.9094L56.5296 25.3257H57.7209Z" fill="#0B2B3F"/>
<path d="M42.6262 22.7237C43.751 22.8441 44.2331 23.2386 44.2331 23.9891C44.2331 24.8985 43.3354 25.3914 41.5678 25.3914C39.9221 25.3914 39.2128 24.9313 38.9412 24.3288C38.8803 24.1863 38.8526 24.011 38.8359 23.9014H40.4318C40.4429 23.9671 40.4817 24.0657 40.5371 24.1315C40.6701 24.2904 41.0413 24.3835 41.673 24.3835C42.4877 24.3835 42.6816 24.2684 42.6816 24.0548C42.6816 23.8247 42.4821 23.7754 41.7451 23.6987C41.4515 23.6714 40.9859 23.6275 40.792 23.6111C39.3846 23.4851 38.8637 23.0523 38.8637 22.3128C38.8637 21.5458 39.7835 20.9597 41.4625 20.9597C42.9531 20.9597 43.6457 21.398 43.9339 21.9458C44.0225 22.1101 44.0779 22.2963 44.0946 22.4278H42.4987C42.4931 22.3675 42.471 22.3073 42.4101 22.2306C42.2881 22.0717 41.9778 21.9677 41.4237 21.9677C40.6424 21.9677 40.4374 22.0608 40.4374 22.258C40.4374 22.4771 40.6979 22.5265 41.5678 22.6196C41.9058 22.6469 42.4433 22.7017 42.6262 22.7237Z" fill="#0B2B3F"/>
<path fill-rule="evenodd" clip-rule="evenodd" d="M26.7179 21.3924C27.0115 21.6225 27.1777 22.0114 27.1777 22.5757C27.1777 23.0359 27.0614 23.3809 26.8397 23.622C26.5405 23.9616 26.0473 24.115 25.4046 24.1205C25.205 24.126 23.4984 24.1205 23.4984 24.1205V25.3257H22.0078V21.0254H25.3824C25.9809 21.0254 26.4353 21.1459 26.7179 21.3924ZM25.6152 22.9098C25.6594 22.8332 25.6817 22.7345 25.6817 22.5975C25.6817 22.4552 25.6539 22.3346 25.6041 22.2689C25.5099 22.1319 25.3326 22.0662 25.0444 22.0662H23.4873V23.118H25.0333C25.3436 23.118 25.5265 23.0468 25.6152 22.9098Z" fill="#0B2B3F"/>
<path fill-rule="evenodd" clip-rule="evenodd" d="M32.6306 21.4636C32.8302 21.6663 32.9243 21.9457 32.9243 22.3346C32.9243 22.6688 32.8412 22.9537 32.7026 23.1454C32.5475 23.3535 32.3093 23.5288 32.0155 23.5727L33.3288 25.3257H31.6776L30.597 23.8083H29.2505V25.3257H27.771V21.0254H31.2343C31.9214 21.0254 32.3702 21.1897 32.6306 21.4636ZM31.4337 22.6962C31.4725 22.6305 31.4836 22.5428 31.4836 22.4716C31.4836 22.3894 31.4725 22.3017 31.4337 22.247C31.3561 22.1046 31.201 22.0662 30.9683 22.0662H29.256V22.8496H30.996C31.2343 22.8496 31.3784 22.8057 31.4337 22.6962Z" fill="#0B2B3F"/>
<path d="M38.3872 25.3257V24.2575H35.2676V23.6987H38.2598V22.6524H35.2676V22.0991H38.3484V21.0254H33.8047V25.3257H38.3872Z" fill="#0B2B3F"/>
<path d="M49.6256 22.1046V21.0254H44.4336V22.1046H46.2676V25.3257H47.7859V22.1046H49.6256Z" fill="#0B2B3F"/>
<path d="M51.622 21.0254V25.3257H50.0981V21.0254H51.622Z" fill="#0B2B3F"/>
<path d="M59.9611 21.0254V25.3257H58.437V21.0254H59.9611Z" fill="#0B2B3F"/>
<path d="M72.2883 21.0254V23.6658C72.2883 24.8272 71.2241 25.386 69.6118 25.386C68.1051 25.386 67.0239 24.8327 67.0239 23.5288V21.0254H68.526V23.5288C68.526 23.9945 68.93 24.2848 69.6731 24.2848C70.3822 24.2848 70.8032 23.9836 70.8032 23.5343V21.0254H72.2883Z" fill="#0B2B3F"/>
<path d="M78.2702 23.9891C78.2702 23.2386 77.788 22.8441 76.6636 22.7237C76.4799 22.7017 75.9431 22.6469 75.6051 22.6196C74.7349 22.5265 74.474 22.4771 74.474 22.258C74.474 22.0608 74.6793 21.9677 75.461 21.9677C76.0147 21.9677 76.3255 22.0717 76.447 22.2306C76.5082 22.3073 76.5299 22.3675 76.5355 22.4278H78.1318C78.1148 22.2963 78.0593 22.1101 77.9707 21.9458C77.6826 21.398 76.9904 20.9597 75.4996 20.9597C73.8204 20.9597 72.9004 21.5458 72.9004 22.3128C72.9004 23.0523 73.4221 23.4851 74.8291 23.6111L74.9195 23.619L75.0701 23.6326L75.7821 23.6987C76.5195 23.7754 76.7182 23.8247 76.7182 24.0548C76.7182 24.2684 76.5251 24.3835 75.7105 24.3835C75.0786 24.3835 74.7076 24.2904 74.5738 24.1315C74.5192 24.0657 74.4797 23.9671 74.4693 23.9014H72.873C72.89 24.011 72.9173 24.1863 72.9785 24.3288C73.2497 24.9313 73.9589 25.3914 75.6051 25.3914C77.3727 25.3914 78.2702 24.8985 78.2702 23.9891Z" fill="#0B2B3F"/>
<path fill-rule="evenodd" clip-rule="evenodd" d="M39.5216 26.9722C38.2756 26.9722 37.6201 27.5561 37.6201 28.4142C37.6201 29.3825 38.308 29.8738 39.5216 29.8738C40.8578 29.8738 41.4195 29.3042 41.4195 28.4142C41.4195 27.5098 40.7857 26.9722 39.5216 26.9722ZM39.5216 29.1582C38.8122 29.1582 38.6069 28.8698 38.6069 28.4248C38.6069 27.9869 38.8302 27.6985 39.518 27.6985C40.2707 27.6985 40.44 28.0225 40.44 28.4248C40.44 28.852 40.2347 29.1582 39.5216 29.1582Z" fill="#0B2B3F"/>
<path d="M32.5927 28.9625C32.5927 28.4747 32.2794 28.2183 31.5483 28.14C31.4294 28.1258 31.0801 28.0902 30.8604 28.0724C30.295 28.0118 30.1258 27.9798 30.1258 27.8375C30.1258 27.7092 30.259 27.6487 30.7668 27.6487C31.127 27.6487 31.3286 27.7163 31.4079 27.8196C31.4474 27.8695 31.4618 27.9086 31.4655 27.9478H32.5027C32.4918 27.8623 32.4559 27.7413 32.3982 27.6345C32.2109 27.2785 31.7607 26.9937 30.792 26.9937C29.7009 26.9937 29.103 27.3745 29.103 27.873C29.103 28.3537 29.4415 28.635 30.3562 28.7168C30.4823 28.7275 30.7848 28.756 30.9757 28.7738C31.4547 28.8236 31.5843 28.8557 31.5843 29.0052C31.5843 29.1441 31.4583 29.2188 30.9289 29.2188C30.5183 29.2188 30.277 29.1583 30.1906 29.0551C30.1546 29.0123 30.1294 28.9483 30.1222 28.9055H29.085C29.0958 28.9768 29.1138 29.0906 29.1534 29.1833C29.3299 29.5749 29.7909 29.8739 30.8604 29.8739C32.0093 29.8739 32.5927 29.5535 32.5927 28.9625Z" fill="#0B2B3F"/>
<path fill-rule="evenodd" clip-rule="evenodd" d="M25.4018 29.0406C25.4018 29.2329 25.3477 29.4216 25.2397 29.5462C25.074 29.7456 24.7643 29.831 24.3646 29.831H21.8545V27.0361H24.2962C24.6851 27.0361 24.9336 27.1288 25.0705 27.2676C25.1929 27.3886 25.247 27.5489 25.247 27.7304C25.247 27.912 25.2037 28.0616 25.1101 28.1719C25.0344 28.2645 24.9048 28.3357 24.768 28.3535C24.9696 28.3784 25.1605 28.4781 25.2685 28.6169C25.3585 28.7202 25.4018 28.8769 25.4018 29.0406ZM24.1881 28.0616C24.2241 28.0224 24.2458 27.9654 24.2458 27.8978C24.2458 27.8301 24.2241 27.7731 24.1773 27.734C24.1269 27.6877 24.0332 27.6699 23.8964 27.6699H22.798V28.1256H23.9216C24.0441 28.1256 24.1378 28.1078 24.1881 28.0616ZM24.0261 29.1973C24.1953 29.1973 24.2962 29.1759 24.3538 29.1226C24.3898 29.0869 24.4042 29.0336 24.4042 28.9659C24.4042 28.8947 24.3862 28.8413 24.343 28.7986C24.289 28.7523 24.1953 28.7309 24.0369 28.7309H22.798V29.1973H24.0261Z" fill="#0B2B3F"/>
<path d="M28.7932 29.1368V29.831H25.8149V27.0361H28.768V27.734H26.7656V28.0936H28.7103V28.7736H26.7656V29.1368H28.7932Z" fill="#0B2B3F"/>
<path d="M36.097 27.0361V27.7376H34.9014V29.831H33.9147V27.7376H32.7227V27.0361H36.097Z" fill="#0B2B3F"/>
<path d="M44.7149 27.0361V27.7446H42.7954V28.1399H44.6249V28.8413H42.7954V29.831H41.8267V27.0361H44.7149Z" fill="#0B2B3F"/>
<path d="M49.5951 27.7376V27.0361H46.2207V27.7376H47.4128V29.831H48.3995V27.7376H49.5951Z" fill="#0B2B3F"/>
<path d="M53.2765 27.0361V29.831H52.3113V28.8164H50.8635V29.831H49.8984V27.0361H50.8635V28.0544H52.3113V27.0361H53.2765Z" fill="#0B2B3F"/>
<path d="M56.8264 29.831V29.1368H54.7988V28.7736H56.7435V28.0936H54.7988V27.734H56.8012V27.0361H53.8481V29.831H56.8264Z" fill="#0B2B3F"/>
<path d="M62.7965 27.0361H63.7289L62.6958 29.831H61.6372C61.6372 29.831 61.0713 28.1613 61.0675 28.1149C61.0647 28.1613 60.4949 29.831 60.4949 29.831H59.4402L58.3813 27.0361H59.4289C59.4289 27.0361 60.0419 28.7949 60.0419 28.8377C60.0419 28.7949 60.607 27.0361 60.607 27.0361H61.6194C61.6194 27.0361 62.1882 28.7949 62.1882 28.8377C62.1882 28.7949 62.7965 27.0361 62.7965 27.0361Z" fill="#0B2B3F"/>
<path fill-rule="evenodd" clip-rule="evenodd" d="M65.5786 26.9722C64.3327 26.9722 63.6772 27.5561 63.6772 28.4142C63.6772 29.3825 64.3647 29.8738 65.5786 29.8738C66.915 29.8738 67.4763 29.3042 67.4763 28.4142C67.4763 27.5098 66.8425 26.9722 65.5786 26.9722ZM65.5786 29.1582C64.8695 29.1582 64.6642 28.8698 64.6642 28.4248C64.6642 27.9869 64.8874 27.6985 65.5749 27.6985C66.3283 27.6985 66.4968 28.0225 66.4968 28.4248C66.4968 28.852 66.2915 29.1582 65.5786 29.1582Z" fill="#0B2B3F"/>
<path fill-rule="evenodd" clip-rule="evenodd" d="M71.0424 27.321C71.1714 27.4528 71.2326 27.6343 71.2326 27.8871C71.2326 28.1043 71.179 28.2894 71.0886 28.4141C70.9878 28.5493 70.8333 28.6633 70.6422 28.6917L71.4954 29.831H70.4227L69.7202 28.8449H68.8453V29.831H67.8838V27.0361H70.1346C70.581 27.0361 70.8729 27.143 71.0424 27.321ZM70.2645 28.1221C70.289 28.0794 70.2965 28.0224 70.2965 27.9761C70.2965 27.9227 70.289 27.8658 70.2645 27.8301C70.2137 27.7376 70.1129 27.7126 69.9613 27.7126H68.8491V28.2218H69.9792C70.1346 28.2218 70.2278 28.1933 70.2645 28.1221Z" fill="#0B2B3F"/>
<path d="M74.5028 29.831V29.0869H72.7813V27.0361H71.8057V29.831H74.5028Z" fill="#0B2B3F"/>
<path fill-rule="evenodd" clip-rule="evenodd" d="M78.3212 28.3819C78.3212 28.8164 78.2779 29.0514 78.1489 29.2721C77.954 29.6245 77.5688 29.831 76.8879 29.831H74.8857V27.0361H76.8662C77.5434 27.0361 77.9436 27.2249 78.1414 27.5489C78.2817 27.7661 78.3212 27.9974 78.3212 28.3819ZM76.7043 29.1439C77.0103 29.1439 77.1836 29.0727 77.2881 28.9161C77.3531 28.8199 77.371 28.5956 77.371 28.3998C77.3672 28.2218 77.3456 28.0331 77.2881 27.9476C77.1761 27.7803 77.0075 27.7198 76.7118 27.7198H75.851V29.1439H76.7043Z" fill="#0B2B3F"/>
<path d="M39.6898 43.4238H38.1975C38.1975 43.4238 37.2238 46.2379 37.2238 46.3062C37.2238 46.2379 36.3134 43.4238 36.3134 43.4238H34.6942C34.6942 43.4238 33.7896 46.2379 33.7896 46.3062C33.7896 46.2379 32.8101 43.4238 32.8101 43.4238H31.1333L32.8273 47.8955H34.5156C34.5156 47.8955 35.426 45.2239 35.4317 45.1499C35.4376 45.2239 36.3421 47.8955 36.3421 47.8955H38.0361L39.6898 43.4238Z" fill="#0B2B3F"/>
<path d="M41.732 47.8955V43.4238H40.1475V47.8955H41.732Z" fill="#0B2B3F"/>
<path d="M47.8952 43.4238V47.8955H46.351L44.1096 45.4062V47.8955H42.623V43.4238H44.2478L46.4201 45.8563V43.4238H47.8952Z" fill="#0B2B3F"/>
<path d="M54.0681 47.8955V43.4238H52.593V45.8563L50.4208 43.4238H48.7959V47.8955H50.2824V45.4062L52.5239 47.8955H54.0681Z" fill="#0B2B3F"/>
<path d="M59.7344 46.7847V47.8955H54.9688V43.4238H59.6939V44.5403H56.49V45.1157H59.6016V46.2037H56.49V46.7847H59.7344Z" fill="#0B2B3F"/>
<path fill-rule="evenodd" clip-rule="evenodd" d="M65.8244 44.7853C65.8244 44.3808 65.7264 44.0904 65.5192 43.8796C65.248 43.5948 64.7818 43.4238 64.0671 43.4238H60.4658V47.8955H62.0046V46.3176H63.405L64.5285 47.8955H66.2453L64.8798 46.0727C65.1849 46.0271 65.4326 45.8448 65.5946 45.6283C65.7377 45.429 65.8244 45.1327 65.8244 44.7853ZM64.326 44.9277C64.326 45.0017 64.3147 45.0929 64.2742 45.1612C64.2168 45.2752 64.0671 45.3207 63.8194 45.3207H62.0103V44.5062H63.7902C64.0322 44.5062 64.1942 44.546 64.2742 44.6941C64.3147 44.7511 64.326 44.8423 64.326 44.9277Z" fill="#0B2B3F"/>
<path d="M35.0889 35.5347L34.4641 33.6333L33.8391 35.5347H31.8169L33.4529 36.7097L32.828 38.6111L34.4641 37.436L36.1 38.6111L35.4751 36.7097L37.1111 35.5347H35.0889Z" fill="#0B2B3F"/>
<path d="M41.6782 33.6321L42.3158 35.5334H44.3793L42.7099 36.7086L43.3476 38.6099L41.6782 37.4348L40.0088 38.6099L40.6465 36.7086L38.9771 35.5334H41.0405L41.6782 33.6321Z" fill="#0B2B3F"/>
<path d="M49.4731 35.5334L48.8355 33.6321L48.1978 35.5334H46.1343L47.8037 36.7086L47.1661 38.6099L48.8355 37.4348L50.5048 38.6099L49.8672 36.7086L51.5366 35.5334H49.4731Z" fill="#0B2B3F"/>
<path d="M55.9921 33.6321L56.6298 35.5334H58.6933L57.0239 36.7086L57.6616 38.6099L55.9921 37.4348L54.3228 38.6099L54.9604 36.7086L53.291 35.5334H55.3546L55.9921 33.6321Z" fill="#0B2B3F"/>
<path d="M63.8317 35.5334L63.2063 33.6321L62.581 35.5334H60.5591L62.1949 36.7086L61.5705 38.6099L63.2063 37.4348L64.8421 38.6099L64.2178 36.7086L65.8536 35.5334H63.8317Z" fill="#0B2B3F"/>
<path d="M90.0669 13.2416C90.665 11.7384 90.405 10.0098 89.8541 8.55608C89.274 7.02648 88.2644 5.5008 86.7558 4.69629C86.6804 6.30838 87.1786 7.90091 87.7229 9.33703C88.2126 10.6287 88.8125 12.0047 89.8042 13.0729C89.9568 13.8822 90.0735 14.6892 90.1555 15.4925C89.8268 14.644 89.2947 13.8707 88.6298 13.2488C87.7738 12.4476 86.4996 11.8296 85.3045 12.1951C85.6549 13.5015 86.4525 14.7539 87.398 15.6324C88.142 16.3239 89.1243 17.2099 90.2807 17.2448C90.3287 18.4273 90.3014 19.599 90.2026 20.7548C90.0396 19.909 89.6902 19.1126 89.1845 18.5195C88.4905 17.7045 87.4611 16.709 86.1474 16.8755C86.219 18.1978 86.7529 19.5525 87.496 20.5705C88.0855 21.3795 88.8653 22.4106 89.9718 22.677C89.7948 23.8124 89.548 24.929 89.2344 26.0216C89.2316 25.185 89.0451 24.3637 88.6741 23.705C88.1514 22.7762 87.3368 21.6177 86.0212 21.5272C85.8281 22.8244 86.0899 24.2424 86.6173 25.3703C87.0383 26.2718 87.6005 27.4214 88.6242 27.8971C88.1938 29.073 87.6853 30.2161 87.1014 31.3193C87.3067 30.3684 87.2982 29.3663 87.0562 28.4646C86.7219 27.2218 85.8931 25.9163 84.5615 25.5376C84.0906 26.9097 84.1556 28.4407 84.4296 29.8352C84.6547 30.9835 85.0964 32.332 86.0871 33.0779C85.4392 34.112 84.7225 35.1043 83.9399 36.0486C84.3609 35.1226 84.569 34.1097 84.457 33.1825C84.294 31.8321 83.9107 30.3878 82.516 29.6681C81.724 31.0181 81.5404 32.5326 81.4735 34.0285C81.4189 35.2379 81.595 36.7296 82.4454 37.7136C81.5102 38.6738 80.5026 39.5726 79.4261 40.4014C80.1211 39.5196 80.608 38.4849 80.7107 37.4617C80.8567 36.0159 80.786 34.4244 79.4873 33.3633C78.378 34.5094 77.715 36.1973 77.391 37.6633C77.1038 38.9594 76.8043 40.4936 77.4871 41.7692C76.1168 42.6539 74.6534 43.4333 73.1061 44.0934C74.1947 43.3264 75.0856 42.2741 75.5103 41.1875C76.0669 39.7636 76.4107 38.0667 75.3277 36.6405C73.8755 37.5599 72.8085 39.1285 71.9675 40.5592C71.2461 41.7868 70.4993 43.4812 70.8704 44.9432C70.0134 45.2306 69.1347 45.4829 68.2354 45.6981L68.289 45.9164C69.1912 45.7004 70.0736 45.4472 70.9335 45.159C71.5362 46.9193 73.5101 47.501 75.1063 47.7577C77.3807 48.1235 80.0891 47.4148 82.031 45.9868C81.0055 44.555 78.9148 44.4098 77.3383 44.3002L77.3176 44.2988C75.5904 44.1788 73.722 44.3391 71.9854 44.7853C73.9913 44.0302 75.8692 43.0805 77.601 41.9642L77.6246 42.0014C78.5729 43.5248 80.479 43.5844 81.9745 43.4881C84.004 43.3576 86.3461 42.138 87.7013 40.4522C86.4261 39.3463 84.5436 39.6557 83.0839 39.8954L83.0763 39.8967C81.4481 40.1643 79.6691 40.748 78.1755 41.6468C78.3177 41.5361 78.4561 41.4191 78.5918 41.2963C80.0439 40.2726 81.3831 39.1275 82.5989 37.879C82.6158 37.8957 82.6328 37.9121 82.6497 37.9284C83.8326 39.095 85.5494 38.7872 86.8904 38.4054C88.6892 37.8933 90.5538 36.3485 91.4475 34.575C90.0622 33.8078 88.4066 34.4399 87.1193 34.94C85.7038 35.4893 84.2074 36.3683 83.0566 37.489C83.1752 37.341 83.2892 37.1862 83.3965 37.0261C84.4654 35.8328 85.4279 34.5549 86.2736 33.2068L86.3103 33.2292L86.3197 33.2351C87.6561 34.0853 89.1704 33.468 90.3702 32.8607C91.9985 32.0369 93.3075 30.2262 93.8725 28.4455C92.4279 27.9881 91.0012 28.8859 89.8918 29.5969C88.6769 30.375 87.447 31.4848 86.6032 32.7576C86.6653 32.632 86.7237 32.5035 86.7774 32.3727C87.5883 30.974 88.2767 29.5058 88.8342 27.9827L88.8634 27.9924L88.8681 27.9942C90.0839 28.4492 91.4372 27.7391 92.3196 26.9604C93.5458 25.8774 94.4112 24.2124 94.6137 22.5858C93.3461 22.4235 92.151 23.3932 91.3345 24.2203C90.3947 25.1729 89.5499 26.2988 89.031 27.5496C89.0696 27.4131 89.1026 27.2744 89.1299 27.1343C89.6017 25.7035 89.9596 24.2279 90.195 22.7194L90.2308 22.7241C91.5116 22.9291 92.6963 21.9656 93.4045 21.0304C94.4009 19.7143 94.9141 17.893 94.7851 16.242C93.5053 16.3307 92.5296 17.5351 91.8977 18.5095C91.165 19.638 90.5576 20.9153 90.292 22.2516C90.3005 22.1447 90.3052 22.0373 90.3071 21.9295C90.502 20.3939 90.5717 18.8269 90.5077 17.2406C91.8158 17.1952 92.7848 15.9946 93.284 14.9298C93.9969 13.407 94.1117 11.4818 93.6362 9.85943C92.3902 10.2051 91.6952 11.6178 91.2856 12.7053C90.8128 13.9592 90.4832 15.327 90.4804 16.6867C90.4126 15.546 90.2751 14.3962 90.0669 13.2416Z" fill="#0B2B3F"/>
</svg>
