<svg width="97" height="79" viewBox="0 0 97 79" fill="none" xmlns="http://www.w3.org/2000/svg">
<path d="M32.175 27.1509C32.175 26.9502 32.175 24.0308 32.175 24.0308H30.4479C30.4479 24.0308 30.4479 26.9049 30.4479 26.9956C30.4479 27.5264 29.9582 27.8824 29.1333 27.8824C28.2697 27.8824 27.7993 27.5393 27.7993 26.989C27.7993 26.8985 27.7993 24.0308 27.7993 24.0308H26.0527C26.0527 24.0308 26.0527 26.756 26.0527 26.989C26.0527 28.5297 27.3094 29.1835 29.0624 29.1835C30.9377 29.1835 32.175 28.5232 32.175 27.1509Z" fill="#0B2B3F"/>
<path d="M37.9915 29.1123V27.7594H34.9111V24.0308H33.1646V29.1123H37.9915Z" fill="#0B2B3F"/>
<path d="M43.1821 25.3061V24.0308H37.1436V25.3061H39.2766V29.1123H41.0424V25.3061H43.1821Z" fill="#0B2B3F"/>
<path d="M45.5037 29.1123V24.0308H43.7314V29.1123H45.5037Z" fill="#0B2B3F"/>
<path d="M53.6346 29.1123V24.0308H51.4498L50.0707 27.0798L48.7561 24.0308H46.5005V29.1123H48.1439V26.3677L49.3296 29.1123H50.799L51.9976 26.3677V29.1123H53.6346Z" fill="#0B2B3F"/>
<path d="M56.3718 28.1737H59.1043L59.5491 29.1123H61.4115L58.8595 24.0308H56.7779L54.0776 29.1123H55.9014L56.3718 28.1737ZM58.5565 27.0343H56.939L57.577 25.8109L57.7703 25.3449L57.9508 25.8044L58.5565 27.0343Z" fill="#0B2B3F"/>
<path d="M66.8893 25.3061V24.0308H60.8511V25.3061H62.9842V29.1123H64.7501V25.3061H66.8893Z" fill="#0B2B3F"/>
<path d="M72.762 29.1123V27.85H69.135V27.1897H72.6139V25.9534H69.135V25.2995H72.7175V24.0308H67.4336V29.1123H72.762Z" fill="#0B2B3F"/>
<path d="M39.2236 31.8137H37.5544C37.5544 31.8137 36.4652 35.0115 36.4652 35.0892C36.4652 35.0115 35.447 31.8137 35.447 31.8137H33.6361C33.6361 31.8137 32.6243 35.0115 32.6243 35.0892C32.6243 35.0115 31.5287 31.8137 31.5287 31.8137H29.6533L31.5481 36.8953H33.4363C33.4363 36.8953 34.4546 33.8593 34.461 33.7752C34.4674 33.8593 35.4792 36.8953 35.4792 36.8953H37.3739L39.2236 31.8137Z" fill="#0B2B3F"/>
<path d="M41.5076 36.8953V31.8137H39.7354V36.8953H41.5076Z" fill="#0B2B3F"/>
<path d="M48.4012 36.8953V31.8137H46.7514V34.5778L44.3218 31.8137H42.5044V36.8953H44.1672V34.0664L46.6741 36.8953H48.4012Z" fill="#0B2B3F"/>
<path d="M55.3049 36.8953V31.8137H53.6551V34.5778L51.2255 31.8137H49.4082V36.8953H51.0708V34.0664L53.5778 36.8953H55.3049Z" fill="#0B2B3F"/>
<path d="M61.6416 36.8953V35.633H58.0134V34.9727H61.4934V33.7363H58.0134V33.0825H61.5965V31.8137H56.312V36.8953H61.6416Z" fill="#0B2B3F"/>
<path d="M68.4545 33.3608C68.4545 32.9013 68.3444 32.5711 68.1124 32.3316C67.8096 32.0079 67.2879 31.8137 66.4883 31.8137H62.4609V36.8953H64.1816V35.1022H65.7477L67.0047 36.8953H68.9251L67.398 34.8238C67.7388 34.772 68.0167 34.5649 68.1963 34.3189C68.3575 34.0923 68.4545 33.7557 68.4545 33.3608ZM66.7793 33.5226C66.7793 33.6069 66.7662 33.7104 66.7203 33.7881C66.6561 33.9175 66.4883 33.9694 66.2117 33.9694H64.1881V33.0436H66.1789C66.4503 33.0436 66.6312 33.0889 66.7203 33.2573C66.7662 33.322 66.7793 33.4256 66.7793 33.5226Z" fill="#0B2B3F"/>
<path d="M32.9017 41.8947C32.9017 41.8116 32.9017 39.4116 32.9017 39.4116H32.2983C32.2983 39.4116 32.2983 41.8018 32.2983 41.8556C32.2983 42.4323 31.7581 42.7599 30.9795 42.7599C30.0599 42.7599 29.6072 42.408 29.6072 41.8507C29.6072 41.7969 29.6072 39.4116 29.6072 39.4116H28.999C28.999 39.4116 28.999 41.7383 28.999 41.8311C28.999 42.8479 29.7873 43.2975 30.9553 43.2975C32.162 43.2975 32.9017 42.8185 32.9017 41.8947Z" fill="#0B2B3F"/>
<path d="M37.2311 43.2487V42.6866H34.5984V39.4116H33.9902V43.2487H37.2311Z" fill="#0B2B3F"/>
<path d="M40.6874 39.9688V39.4116H36.6289V39.9688H38.3516V43.2487H38.9648V39.9688H40.6874Z" fill="#0B2B3F"/>
<path d="M45.0127 40.4967C45.0127 40.223 44.9542 40.0226 44.8521 39.8613C44.672 39.5924 44.3265 39.4116 43.7523 39.4116H41.2803V43.2487H41.8788V41.6307H43.6209L44.6865 43.2487H45.3873L44.2341 41.528C44.526 41.4939 44.7547 41.3276 44.8764 41.1126C44.964 40.9659 45.0127 40.7509 45.0127 40.4967ZM44.4092 40.5455C44.4092 40.6531 44.3849 40.7852 44.3412 40.8731C44.2633 41.0148 44.0832 41.0881 43.7913 41.093H41.8836C41.8836 41.0833 41.8836 39.9591 41.8836 39.9591H43.6793C44.0442 39.9591 44.2389 40.047 44.3412 40.2132C44.3849 40.2914 44.4092 40.4233 44.4092 40.5455Z" fill="#0B2B3F"/>
<path d="M46.7442 42.3004H49.1238L49.6104 43.2487H50.2625L48.3257 39.4116H47.6104L45.6104 43.2487H46.2478L46.7442 42.3004ZM48.8707 41.7578H47.007L47.7807 40.2865L47.9511 39.9297L48.1213 40.2865L48.8707 41.7578Z" fill="#0B2B3F"/>
<path d="M56.4343 42.8821C56.5852 42.7061 56.6534 42.4568 56.6534 42.1879C56.6534 41.9338 56.5803 41.6796 56.4295 41.5232C56.2786 41.3766 56.0353 41.2544 55.7676 41.2299C55.9234 41.2054 56.045 41.1078 56.1277 41.0051C56.2592 40.8535 56.3369 40.6091 56.3369 40.3648C56.3369 40.1056 56.2592 39.871 56.0936 39.7097C55.9137 39.5289 55.6071 39.4116 55.1788 39.4116H52.6094V43.2487H55.3686C55.8844 43.2487 56.2445 43.1167 56.4343 42.8821ZM55.7092 40.4869C55.7092 40.658 55.6557 40.8095 55.5633 40.8975C55.4707 41.0002 55.315 41.0442 55.1496 41.0442H53.203V39.9395H55.0377C55.2615 39.9395 55.4318 39.9834 55.5486 40.091C55.6509 40.1887 55.7092 40.3305 55.7092 40.4869ZM55.9038 42.5105C55.7822 42.6475 55.573 42.7159 55.2664 42.7159H53.203V41.577H55.2811C55.5633 41.577 55.7579 41.6356 55.8747 41.748C55.9817 41.8507 56.0256 41.9827 56.0256 42.1342C56.0256 42.2906 55.9915 42.4226 55.9038 42.5105Z" fill="#0B2B3F"/>
<path d="M61.0709 43.2487V42.6866H58.1026V41.5916H60.9541V41.0344H58.1026V39.9688H61.0368V39.4116H57.5088V43.2487H61.0709Z" fill="#0B2B3F"/>
<path d="M65.8249 42.1145C65.8249 41.4889 65.412 41.1663 64.3948 41.049C64.224 41.0246 63.8541 40.9855 63.6546 40.961C62.7105 40.8486 62.4235 40.7215 62.4235 40.3941C62.4235 40.0763 62.7398 39.8954 63.6935 39.8954C64.4328 39.8954 64.813 40.0421 65.003 40.306C65.0568 40.3793 65.0856 40.4674 65.1 40.5357H65.7515C65.7331 40.4233 65.6886 40.2669 65.6204 40.1398C65.3583 39.6853 64.8182 39.3577 63.6935 39.3577C62.3505 39.3528 61.7957 39.8417 61.7957 40.4478C61.7957 41.0538 62.2288 41.3618 63.353 41.4939C63.5476 41.5182 63.893 41.5573 64.0634 41.5769C64.9349 41.6844 65.2075 41.8164 65.2075 42.183C65.2075 42.5203 64.8955 42.7647 63.8979 42.7647C63.0805 42.7647 62.6424 42.618 62.4673 42.3346C62.4138 42.2563 62.3797 42.1342 62.3749 42.0511H61.7324C61.7471 42.227 61.7957 42.4176 61.8833 42.5692C62.1364 43.0336 62.7301 43.3024 63.8785 43.3024C65.2508 43.3024 65.8249 42.8575 65.8249 42.1145Z" fill="#0B2B3F"/>
<path d="M70.1886 39.9688V39.4116H66.1304V39.9688H67.8528V43.2487H68.4662V39.9688H70.1886Z" fill="#0B2B3F"/>
<path d="M27.2762 46.5837C27.2762 46.1926 27.1983 45.9286 27.0668 45.7282C26.882 45.4398 26.5218 45.2883 25.8941 45.2883H23.4805V49.1254H24.0838V47.874C24.0838 47.874 25.7871 47.874 25.8698 47.874C26.4586 47.8691 26.8625 47.7323 27.0767 47.4195C27.2129 47.2288 27.2762 46.9551 27.2762 46.5837ZM26.663 46.5837C26.663 46.7791 26.6435 46.9257 26.5803 47.0236C26.4683 47.2043 26.2396 47.3168 25.7676 47.3168C25.7238 47.3168 24.0838 47.3168 24.0838 47.3168V45.8358H25.7871C26.2299 45.8358 26.4586 45.9384 26.5803 46.1388C26.6386 46.2267 26.663 46.3881 26.663 46.5837Z" fill="#0B2B3F"/>
<path d="M31.6808 49.1254V48.5633H28.7123V47.4683H31.564V46.9111H28.7123V45.8455H31.6467V45.2883H28.1187V49.1254H31.6808Z" fill="#0B2B3F"/>
<path d="M36.3232 46.3734C36.3232 46.0997 36.2649 45.8993 36.1626 45.738C35.9825 45.4691 35.6371 45.2883 35.0629 45.2883H32.5908V49.1254H33.1893V47.5074H34.9315L35.9972 49.1254H36.698L35.5446 47.4047C35.8366 47.3706 36.0654 47.2043 36.187 46.9893C36.2746 46.8427 36.3232 46.6276 36.3232 46.3734ZM35.7199 46.4222C35.7199 46.5298 35.6955 46.6619 35.6517 46.7498C35.5738 46.8915 35.3937 46.9648 35.1018 46.9697H33.1942C33.1942 46.96 33.1942 45.8358 33.1942 45.8358H34.9899C35.3548 45.8358 35.5494 45.9238 35.6517 46.0899C35.6955 46.1681 35.7199 46.3001 35.7199 46.4222Z" fill="#0B2B3F"/>
<path d="M40.8347 45.8455V45.2883H37.438V49.1254H38.0414V47.4928H40.7082V46.9209H38.0414V45.8455H40.8347Z" fill="#0B2B3F"/>
<path d="M43.6042 45.22C42.7915 45.22 42.2319 45.4204 41.8328 45.8408C41.4971 46.1682 41.3511 46.6229 41.3511 47.1947C41.3511 47.8204 41.5409 48.2896 41.8913 48.6074C42.266 48.9838 42.8402 49.1792 43.6042 49.1792C44.3925 49.1792 45.0056 48.9838 45.3707 48.5877C45.687 48.2652 45.8524 47.8058 45.8524 47.1898C45.8524 46.5935 45.7112 46.1389 45.3755 45.8163C44.9911 45.4155 44.4168 45.22 43.6042 45.22ZM43.6042 48.6319C43.0689 48.6319 42.6893 48.5145 42.4022 48.2799C42.1103 48.0404 41.9691 47.6737 41.9691 47.2044C41.9691 46.7646 42.0908 46.398 42.3244 46.178C42.592 45.9239 43.0007 45.7723 43.5994 45.7723C44.2173 45.7723 44.6018 45.919 44.8888 46.1731C45.1322 46.3882 45.2392 46.7694 45.2392 47.1996C45.2392 47.6346 45.1274 48.0062 44.8791 48.2309C44.5921 48.4998 44.1882 48.6319 43.6042 48.6319Z" fill="#0B2B3F"/>
<path d="M50.4184 46.3734C50.4184 46.0997 50.36 45.8993 50.2579 45.738C50.0778 45.4691 49.7322 45.2883 49.1581 45.2883H46.686V49.1254H47.2846V47.5074H49.0266L50.0924 49.1254H50.7931L49.6398 47.4047C49.9317 47.3706 50.1605 47.2043 50.2821 46.9893C50.3698 46.8427 50.4184 46.6276 50.4184 46.3734ZM49.8149 46.4222C49.8149 46.5298 49.7907 46.6619 49.7469 46.7498C49.669 46.8915 49.4889 46.9648 49.197 46.9697H47.2894C47.2894 46.96 47.2894 45.8358 47.2894 45.8358H49.0851C49.45 45.8358 49.6447 45.9238 49.7469 46.0899C49.7907 46.1681 49.8149 46.3001 49.8149 46.4222Z" fill="#0B2B3F"/>
<path d="M56.2389 49.1254V45.2883H55.4506L53.8788 48.446L52.3361 45.2883H51.5332V49.1254H52.1123V46.173L53.5526 49.1254H54.1852L55.6598 46.173V49.1254H56.2389Z" fill="#0B2B3F"/>
<path d="M57.9478 48.1771H60.3275L60.814 49.1254H61.4662L59.5293 45.2883H58.814L56.814 49.1254H57.4514L57.9478 48.1771ZM60.0743 47.6345H58.2106L58.9843 46.1633L59.1547 45.8064L59.325 46.1633L60.0743 47.6345Z" fill="#0B2B3F"/>
<path d="M65.8497 49.1254V45.2883H65.2703V48.2699L62.7404 45.2883H62.0542V49.1254H62.643V46.1241L65.1929 49.1254H65.8497Z" fill="#0B2B3F"/>
<path d="M71.0996 47.6933H70.4665C70.4469 47.8692 70.3787 48.0453 70.2568 48.1772C69.9946 48.4852 69.5765 48.6171 68.9342 48.6171C68.3941 48.6171 67.8147 48.4656 67.5369 48.0696C67.3914 47.884 67.2983 47.6102 67.2983 47.1996C67.2983 46.833 67.3625 46.5593 67.5028 46.3735C67.7361 45.9972 68.2277 45.8017 68.9198 45.8017C69.5909 45.8017 70.0143 45.9873 70.2384 46.2464C70.3643 46.3832 70.4377 46.5447 70.4613 46.7352H71.0944C71.0747 46.5202 71.0066 46.2659 70.8611 46.0509C70.5491 45.5865 69.975 45.22 68.9237 45.22C67.9222 45.22 67.3232 45.5426 66.9916 46.0264C66.7779 46.305 66.6704 46.6961 66.6704 47.1947C66.6704 47.7519 66.8028 48.1626 67.0309 48.4509C67.3625 48.9056 67.9996 49.1792 68.963 49.1792C69.9514 49.1792 70.5399 48.8811 70.8322 48.407C70.9974 48.1772 71.08 47.9035 71.0996 47.6933Z" fill="#0B2B3F"/>
<path d="M75.4544 49.1254V48.5633H72.4854V47.4683H75.3377V46.9111H72.4854V45.8455H75.4203V45.2883H71.8916V49.1254H75.4544Z" fill="#0B2B3F"/>
<path d="M30.9506 52.937L31.6783 55.1869H34.0335L32.1282 56.5775L32.856 58.8273L30.9506 57.4369L29.0452 58.8273L29.7731 56.5775L27.8677 55.1869H30.2228L30.9506 52.937Z" fill="#0B2B3F"/>
<path d="M39.3524 52.9373L40.0949 55.187H42.4982L40.554 56.5776L41.2966 58.8275L39.3524 57.437L37.4082 58.8275L38.1507 56.5776L36.2065 55.187H38.6098L39.3524 52.9373Z" fill="#0B2B3F"/>
<path d="M47.6878 52.9373L48.4305 55.187H50.8336L48.8894 56.5776L49.6321 58.8275L47.6878 57.437L45.7436 58.8275L46.4862 56.5776L44.542 55.187H46.9452L47.6878 52.9373Z" fill="#0B2B3F"/>
<path d="M56.0233 52.9373L56.7658 55.187H59.1691L57.2249 56.5776L57.9674 58.8275L56.0233 57.437L54.0791 58.8275L54.8216 56.5776L52.8774 55.187H55.2807L56.0233 52.9373Z" fill="#0B2B3F"/>
<path d="M64.4248 52.9373L65.1523 55.187H67.5078L65.6019 56.5776L66.3294 58.8275L64.4248 57.437L62.5193 58.8275L63.2472 56.5776L61.3418 55.187H63.6969L64.4248 52.9373Z" fill="#0B2B3F"/>
<path d="M35.0325 14.9788L35.5828 16.6799H37.3636L35.923 17.7313L36.4733 19.4323L35.0325 18.381L33.592 19.4323L34.1422 17.7313L32.7017 16.6799H34.4824L35.0325 14.9788Z" fill="#0B2B3F"/>
<path d="M41.3854 14.9763L41.947 16.6775H43.7639L42.294 17.7288L42.8554 19.4298L41.3854 18.3785L39.9154 19.4298L40.4769 17.7288L39.0068 16.6775H40.8239L41.3854 14.9763Z" fill="#0B2B3F"/>
<path d="M47.6872 14.9763L48.2486 16.6775H50.0657L48.5957 17.7288L49.1571 19.4298L47.6872 18.3785L46.2171 19.4298L46.7787 17.7288L45.3086 16.6775H47.1256L47.6872 14.9763Z" fill="#0B2B3F"/>
<path d="M53.9904 14.9763L54.5518 16.6775H56.3689L54.8989 17.7288L55.4604 19.4298L53.9904 18.3785L52.5203 19.4298L53.0819 17.7288L51.6118 16.6775H53.4289L53.9904 14.9763Z" fill="#0B2B3F"/>
<path d="M60.3421 14.9763L60.8924 16.6775H62.6731L61.2325 17.7288L61.7828 19.4298L60.3421 18.3785L58.9015 19.4298L59.4518 17.7288L58.0112 16.6775H59.7918L60.3421 14.9763Z" fill="#0B2B3F"/>
<path fill-rule="evenodd" clip-rule="evenodd" d="M9.66916 45.5966C7.24075 30.3353 14.328 15.236 28.5164 8.75195L28.6473 9.04109C14.6017 15.4598 7.57304 30.4114 9.98139 45.5465C12.6459 62.2909 26.094 72.3331 42.5624 72.8173L42.5531 73.1348C25.9564 72.6469 12.361 62.5138 9.66916 45.5966Z" fill="#0B2B3F"/>
<path d="M25.44 12.6469C22.818 12.7069 19.7492 14.1921 17.9385 16.3494C19.3906 17.7038 21.727 17.2031 23.4084 16.9261C25.8081 16.5308 28.3599 15.765 30.6244 14.681C29.6933 12.6902 27.1852 12.607 25.44 12.6469Z" fill="#0B2B3F"/>
<path d="M23.3778 9.39779C21.8247 11.8278 19.9739 14.243 17.9597 16.3698C16.2745 14.7808 17.2917 12.1366 17.9795 10.4922C19.2254 7.51259 22.2126 4.94311 25.3356 3.62842C26.1927 5.58722 24.331 7.90627 23.3778 9.39779Z" fill="#0B2B3F"/>
<path d="M17.8527 19.4613C15.3975 20.338 13.2878 22.8057 12.2285 25.2831C13.9939 26.1076 16.0009 24.9169 17.4691 24.1242C19.4852 23.0356 21.542 21.5335 23.1603 19.7952C21.6981 18.2455 19.4778 18.8812 17.8527 19.4613Z" fill="#0B2B3F"/>
<path d="M14.8765 17.0332C14.339 19.8048 13.438 22.6775 12.2546 25.2958C10.189 24.3172 10.2676 21.5146 10.3561 19.731C10.5071 16.6868 12.2027 13.2152 14.5633 11.009C16.0085 12.5653 15.2188 15.2677 14.8765 17.0332Z" fill="#0B2B3F"/>
<path d="M13.1282 28.259C11.0824 29.88 9.84237 32.8843 9.55518 35.567C11.4905 35.7902 13.0373 34.0211 14.1884 32.8074C15.7554 31.1548 17.2389 29.0821 18.181 26.9137C16.3361 25.9028 14.4608 27.203 13.1282 28.259Z" fill="#0B2B3F"/>
<path d="M9.58415 26.8904C9.94895 29.6893 9.94974 32.7172 9.58481 35.5707C7.33414 35.293 6.58764 32.5786 6.14668 30.8757C5.38536 27.9364 5.89579 24.1397 7.37884 21.2822C9.2322 22.3128 9.35109 25.1015 9.58415 26.8904Z" fill="#0B2B3F"/>
<path d="M11.5227 37.8621C9.90387 40.2441 9.33458 43.9769 10.0626 46.9774C12.2019 46.4686 13.2623 44.0358 14.1138 42.3177C15.2454 40.0342 16.2019 37.3702 16.5443 34.7564C14.224 34.2714 12.5891 36.2929 11.5227 37.8621Z" fill="#0B2B3F"/>
<path d="M7.27326 37.6212C8.53453 40.5544 9.51881 43.7827 10.0948 46.9701C7.64134 47.4995 5.87555 44.9117 4.84971 43.1959C3.02335 40.1415 2.4913 35.9072 3.16033 32.2532C5.40588 32.7054 6.50474 35.8345 7.27326 37.6212Z" fill="#0B2B3F"/>
<path d="M12.6554 48.2257C11.7862 51.1152 12.3903 55.0435 14.1502 57.76C16.0842 56.4952 16.3518 53.7115 16.6259 51.7156C16.9873 49.0818 17.1575 46.164 16.7085 43.4329C14.2349 43.75 13.2359 46.2953 12.6554 48.2257Z" fill="#0B2B3F"/>
<path d="M8.35664 49.4628C10.5268 51.9641 12.5287 54.816 14.1797 57.7415C11.9405 59.1456 9.31301 57.2273 7.71946 55.8698C4.89243 53.4618 3.05677 49.3689 2.62158 45.5103C4.97423 45.1927 7.04753 47.9538 8.35664 49.4628Z" fill="#0B2B3F"/>
<path d="M17.2164 58.0606C17.4029 61.424 19.5829 64.9533 22.4856 66.9622C23.8873 65.0344 23.0087 62.0808 22.5305 60.019C21.8868 57.2431 20.9958 54.3525 19.6718 51.7876C17.3629 53.0132 17.0935 55.8456 17.2164 58.0606Z" fill="#0B2B3F"/>
<path d="M13.3122 60.9018C16.457 62.6571 19.5927 64.7283 22.5082 66.9323C20.7622 69.2417 17.2723 68.3209 15.109 67.5785C11.2966 66.2704 7.89779 62.8221 6.12256 58.9909C8.37335 57.8264 11.4545 59.865 13.3122 60.9018Z" fill="#0B2B3F"/>
<path d="M26.173 66.2775C28.0605 69.7374 32.3616 71.9946 36.412 72.538C36.848 70.0226 34.1384 67.5321 32.6619 65.9029C30.5598 63.5833 28.3693 61.1762 25.9134 59.1707C24.0734 61.3166 25.0461 64.2118 26.173 66.2775Z" fill="#0B2B3F"/>
<path d="M23.4773 70.6627C27.7677 71.1108 32.1308 71.7558 36.4188 72.4996C36.0094 75.6733 30.9954 76.1855 28.7192 76.3728C24.0521 76.757 18.8602 74.8726 15.2451 71.7002C17.0407 69.578 21.1919 70.4241 23.4773 70.6627Z" fill="#0B2B3F"/>
<path d="M31.7411 6.08827C28.8606 6.91369 25.4889 8.4796 23.8232 11.3702C26.8466 11.0392 29.8181 9.95862 32.724 9.1353C35.979 8.21298 39.4064 7.52318 42.5579 6.25009C39.1065 4.86312 35.038 5.14343 31.7411 6.08827Z" fill="#0B2B3F"/>
<path fill-rule="evenodd" clip-rule="evenodd" d="M87.4679 45.5465C89.8759 30.4114 82.8473 15.4601 68.802 9.04109L68.9331 8.75195C83.1213 15.2361 90.2088 30.3353 87.7799 45.5966C85.0888 62.5138 71.4931 72.6469 54.8964 73.1348L54.8872 72.8173C71.3554 72.3331 84.8031 62.2909 87.4679 45.5465Z" fill="#0B2B3F"/>
<path d="M72.0095 12.6469C74.6311 12.7069 77.6997 14.1921 79.5112 16.3494C78.0588 17.7038 75.7217 17.2031 74.0412 16.9261C71.6411 16.5308 69.089 15.765 66.8252 14.681C67.7559 12.6902 70.2635 12.607 72.0095 12.6469Z" fill="#0B2B3F"/>
<path d="M74.0711 9.39779C75.6245 11.8278 77.4753 14.243 79.4887 16.3698C81.1744 14.7808 80.1572 12.1366 79.4691 10.4922C78.2238 7.51259 75.2365 4.94311 72.1128 3.62842C71.2555 5.58722 73.1182 7.90627 74.0711 9.39779Z" fill="#0B2B3F"/>
<path d="M79.5975 19.4613C82.0527 20.338 84.1618 22.8057 85.2209 25.2831C83.4552 26.1076 81.4484 24.9169 79.9803 24.1242C77.9642 23.0356 75.9076 21.5335 74.29 19.7952C75.7516 18.2455 77.9721 18.8812 79.5975 19.4613Z" fill="#0B2B3F"/>
<path d="M82.5734 17.0332C83.1108 19.8048 84.0114 22.6775 85.195 25.2958C87.2609 24.3172 87.1822 21.5146 87.0931 19.731C86.9424 16.6868 85.2475 13.2152 82.8867 11.009C81.4409 12.5653 82.2313 15.2677 82.5734 17.0332Z" fill="#0B2B3F"/>
<path d="M84.3204 28.259C86.3666 29.88 87.6066 32.8843 87.8937 35.567C85.9589 35.7902 84.4122 34.0211 83.2613 32.8074C81.6936 31.1548 80.2097 29.0821 79.2686 26.9137C81.1129 25.9028 82.9886 27.203 84.3204 28.259Z" fill="#0B2B3F"/>
<path d="M87.8662 26.8904C87.5005 29.689 87.5005 32.7172 87.8649 35.5707C90.1156 35.293 90.8628 32.5786 91.3032 30.8757C92.0648 27.9364 91.5536 24.1397 90.071 21.2822C88.2175 22.3128 88.0983 25.1015 87.8662 26.8904Z" fill="#0B2B3F"/>
<path d="M85.9265 37.8621C87.5454 40.2441 88.1142 43.9769 87.3867 46.9774C85.2475 46.4686 84.1871 44.0359 83.335 42.3177C82.2038 40.0342 81.2469 37.3702 80.9048 34.7564C83.2249 34.2714 84.8608 36.2929 85.9265 37.8621Z" fill="#0B2B3F"/>
<path d="M90.1758 37.6212C88.9148 40.5544 87.9304 43.7827 87.355 46.9701C89.8075 47.4995 91.5732 44.9117 92.5995 43.1959C94.4255 40.1415 94.9577 35.9072 94.2892 32.2532C92.0438 32.7054 90.944 35.8345 90.1758 37.6212Z" fill="#0B2B3F"/>
<path d="M84.7939 48.2257C85.663 51.1152 85.06 55.0435 83.2996 57.76C81.3662 56.4952 81.0974 53.7115 80.8235 51.7156C80.463 49.0818 80.2926 46.164 80.7409 43.4329C83.2144 43.75 84.2132 46.2953 84.7939 48.2257Z" fill="#0B2B3F"/>
<path d="M89.0917 49.4628C86.9223 51.9642 84.9207 54.816 83.269 57.7415C85.5079 59.1456 88.1361 57.2273 89.73 55.8698C92.5561 53.4618 94.3926 49.3689 94.8278 45.5103C92.4749 45.1927 90.4012 47.9538 89.0917 49.4628Z" fill="#0B2B3F"/>
<path d="M80.2322 58.0606C80.0461 61.424 77.8662 64.9533 74.9641 66.9622C73.5615 65.0344 74.4411 62.0809 74.9182 60.019C75.5618 57.2431 76.4532 54.3525 77.7771 51.7876C80.0867 53.0132 80.3555 55.8456 80.2322 58.0606Z" fill="#0B2B3F"/>
<path d="M84.1372 60.9018C80.9926 62.6571 77.8571 64.7283 74.9419 66.9323C76.6879 69.2417 80.1773 68.3209 82.3401 67.5785C86.1533 66.2704 89.5522 62.8221 91.327 58.9909C89.0764 57.8264 85.9946 59.865 84.1372 60.9018Z" fill="#0B2B3F"/>
<path d="M71.2769 66.2775C69.3893 69.7374 65.0885 71.9946 61.0376 72.538C60.6016 70.0226 63.3111 67.5321 64.7884 65.9029C66.8896 63.5833 69.08 61.1762 71.5364 59.1707C73.3768 61.3166 72.4029 64.2118 71.2769 66.2775Z" fill="#0B2B3F"/>
<path d="M73.9716 70.6627C69.6814 71.1108 65.319 71.7558 61.0303 72.4996C61.4398 75.6733 66.4541 76.1855 68.7297 76.3728C73.3975 76.757 78.5896 74.8726 82.2035 71.7002C80.409 69.578 76.2577 70.4241 73.9716 70.6627Z" fill="#0B2B3F"/>
<path d="M65.7085 6.08827C68.5884 6.91369 71.9611 8.4796 73.6258 11.3702C70.6031 11.0392 67.6315 9.95862 64.7254 9.1353C61.4704 8.21298 58.0431 7.52318 54.8916 6.25009C58.3431 4.86312 62.4115 5.14343 65.7085 6.08827Z" fill="#0B2B3F"/>
<path d="M50.598 4.59239L49.1201 1.31665L47.6699 4.53142L44.2974 2.43108L46.4645 7.00557H51.8541L53.943 2.43108L50.598 4.59239Z" fill="#0B2B3F"/>
<path d="M51.8194 7.71655H46.4214V8.51669H51.8194V7.71655Z" fill="#0B2B3F"/>
<path d="M49.5057 69.6145L50.3756 72.3034H53.1903L50.9131 73.9652L51.7829 76.6541L49.5057 74.9923L47.2286 76.6541L48.0984 73.9652L45.8213 72.3034H48.636L49.5057 69.6145Z" fill="#0B2B3F"/>
</svg>
