<svg width="579" height="579" viewBox="0 0 579 579" fill="none" xmlns="http://www.w3.org/2000/svg">
<path d="M500.689 303.839C500.689 420.534 406.089 515.135 289.393 515.135C172.697 515.135 78.0962 420.534 78.0962 303.839C78.0962 187.143 172.697 92.542 289.393 92.542C406.089 92.542 500.689 187.143 500.689 303.839ZM119.675 303.839C119.675 397.571 195.66 473.556 289.393 473.556C383.125 473.556 459.111 397.571 459.111 303.839C459.111 210.106 383.125 134.121 289.393 134.121C195.66 134.121 119.675 210.106 119.675 303.839Z" fill="url(#paint0_linear_95_1176)"/>
<path d="M578.787 289.394C578.787 449.221 449.221 578.787 289.394 578.787C129.566 578.787 0 449.221 0 289.394C0 129.566 129.566 0 289.394 0C449.221 0 578.787 129.566 578.787 289.394ZM47.62 289.394C47.62 422.921 155.866 531.167 289.394 531.167C422.921 531.167 531.167 422.921 531.167 289.394C531.167 155.866 422.921 47.62 289.394 47.62C155.866 47.62 47.62 155.866 47.62 289.394Z" fill="url(#paint1_linear_95_1176)"/>
<defs>
<linearGradient id="paint0_linear_95_1176" x1="289.393" y1="410.611" x2="289.393" y2="92.542" gradientUnits="userSpaceOnUse">
<stop stop-color="#0B2B3F" stop-opacity="0"/>
<stop offset="1" stop-color="#0B2B3F" stop-opacity="0.06"/>
</linearGradient>
<linearGradient id="paint1_linear_95_1176" x1="289.394" y1="435.631" x2="289.394" y2="0" gradientUnits="userSpaceOnUse">
<stop stop-color="#0B2B3F" stop-opacity="0"/>
<stop offset="1" stop-color="#0B2B3F" stop-opacity="0.06"/>
</linearGradient>
</defs>
</svg>
