<svg width="159" height="80" viewBox="0 0 159 80" fill="none" xmlns="http://www.w3.org/2000/svg">
<path d="M12.3977 17.1971C11.417 14.7131 11.8428 11.8569 12.7462 9.45475C13.6966 6.92706 15.3516 4.40629 17.8252 3.0769C17.9479 5.7406 17.1314 8.37229 16.2393 10.7454C15.4371 12.8798 14.4527 15.1538 12.8272 16.9191C12.5774 18.2566 12.386 19.5904 12.2514 20.9181C12.7902 19.5155 13.6637 18.2371 14.7537 17.2091C16.1571 15.8854 18.2446 14.864 20.2042 15.468C19.6302 17.6267 18.3219 19.6961 16.7725 21.1478C15.553 22.2904 13.9431 23.7546 12.0469 23.8121C11.9688 25.766 12.0129 27.702 12.1742 29.6117C12.4417 28.2141 13.0149 26.8981 13.8431 25.9181C14.9808 24.5715 16.6677 22.9263 18.8221 23.2015C18.7045 25.3864 17.83 27.6251 16.6121 29.3072C15.6444 30.644 14.3669 32.3477 12.5535 32.7878C12.8439 34.6643 13.2483 36.5097 13.7614 38.3154C13.7664 36.9328 14.0728 35.5757 14.6807 34.4872C15.5374 32.9523 16.8718 31.0381 19.0286 30.8884C19.3448 33.032 18.9164 35.3752 18.0522 37.2389C17.3616 38.7286 16.4408 40.6283 14.7624 41.4143C15.4672 43.3571 16.3012 45.2455 17.2576 47.0683C16.9218 45.4972 16.9352 43.8417 17.3326 42.3521C17.8801 40.2986 19.2393 38.1415 21.4215 37.5155C22.1929 39.7826 22.0865 42.3127 21.6384 44.6171C21.2696 46.5143 20.545 48.7426 18.9207 49.9751C19.9826 51.6829 21.1574 53.322 22.4385 54.8815C21.7502 53.352 21.4081 51.6792 21.5916 50.1477C21.859 47.9166 22.488 45.5298 24.7747 44.3403C26.072 46.5711 26.3726 49.0737 26.4828 51.5455C26.5719 53.5438 26.283 56.0086 24.8905 57.6343C26.4223 59.2215 28.0751 60.7071 29.8405 62.0769C28.7008 60.6198 27.9027 58.91 27.7336 57.2191C27.495 54.83 27.6117 52.2 29.7391 50.4468C31.5584 52.3406 32.6441 55.1297 33.1762 57.5521C33.6468 59.694 34.138 62.2291 33.0177 64.3369C35.2644 65.7984 37.6628 67.0861 40.1986 68.1766C38.4143 66.9094 36.9536 65.1707 36.2577 63.3757C35.3459 61.0226 34.7818 58.2187 36.5581 55.8621C38.9381 57.3814 40.6872 59.9734 42.0653 62.3374C43.2477 64.3658 44.4717 67.1655 43.8644 69.5814C45.2684 70.0561 46.7087 70.4731 48.1834 70.8287L48.0957 71.1895C46.6154 70.8324 45.1696 70.4141 43.7599 69.938C42.7723 72.8467 39.5368 73.8077 36.9203 74.232C33.1921 74.8364 28.7529 73.6652 25.5702 71.3058C27.25 68.9398 30.6775 68.6998 33.2619 68.5187L33.2956 68.5164C36.1268 68.3181 39.1891 68.5831 42.0362 69.3203C38.7471 68.0724 35.6694 66.5035 32.8315 64.6591L32.7897 64.7249C31.2346 67.238 28.1123 67.336 25.6616 67.1771C22.336 66.9614 18.4965 64.9461 16.2744 62.1604C18.3645 60.3327 21.4518 60.8443 23.8439 61.2406L23.8554 61.2424C26.5252 61.6847 29.4427 62.6497 31.8916 64.1354C31.6583 63.9523 31.43 63.7586 31.2082 63.5555C28.8272 61.8637 26.6308 59.9712 24.6378 57.9078C24.6146 57.9309 24.5912 57.9538 24.5675 57.9766C22.6296 59.9195 19.8071 59.4107 17.6044 58.7784C14.6568 57.9323 11.5998 55.3795 10.1349 52.4489C12.405 51.1812 15.1191 52.2258 17.2302 53.0521C19.5473 53.9591 21.9988 55.4098 23.8838 57.2592C23.6895 57.0149 23.5041 56.7597 23.3289 56.4955C21.5768 54.5247 20.0007 52.4144 18.6151 50.1881L18.5456 50.2315C16.3533 51.6415 13.8693 50.6204 11.9007 49.6163C9.23148 48.2549 7.08653 45.2629 6.1597 42.3204C8.52756 41.5646 10.867 43.0481 12.6856 44.2231C14.6747 45.508 16.6895 47.3406 18.0725 49.4423C17.9709 49.2352 17.8763 49.0235 17.789 48.8078C16.4602 46.4974 15.3314 44.0718 14.4175 41.5557L14.3704 41.5717L14.3666 41.5731C12.3732 42.3283 10.1534 41.1541 8.70617 39.8664C6.69474 38.0769 5.27702 35.3257 4.94466 32.6378C7.02293 32.3695 8.98094 33.972 10.3196 35.3387C11.8605 36.9118 13.2435 38.7711 14.0938 40.8361C14.0317 40.6118 13.9785 40.384 13.9337 40.1538C13.16 37.7894 12.5739 35.3509 12.1875 32.858L12.1574 32.8617L12.1472 32.8634C10.0398 33.214 8.09132 31.6172 6.92722 30.0675C5.294 27.8929 4.45207 24.8832 4.66309 22.1554C6.76235 22.3017 8.36084 24.292 9.39743 25.902C10.5972 27.7658 11.5921 29.8752 12.0279 32.082C12.0146 31.9064 12.0067 31.7298 12.004 31.5527C11.6839 29.0155 11.5699 26.4263 11.6742 23.8051L11.6682 23.8047C9.52556 23.7278 7.94204 21.7452 7.1245 19.9866C5.95469 17.47 5.76636 14.2889 6.54716 11.608C8.58931 12.1792 9.72778 14.5138 10.3997 16.3109C11.1745 18.3829 11.7153 20.6427 11.7196 22.8895C11.8311 21.0046 12.0555 19.1047 12.3977 17.1971Z" fill="#0B2B3F"/>
<path d="M54.5979 12.5469V21.5466C54.5979 25.5049 51.0008 27.4093 45.549 27.4093C40.4531 27.4093 36.7998 25.5236 36.7998 21.0798V12.5469H41.877V21.0798C41.877 22.6669 43.2446 23.6564 45.7551 23.6564C48.1532 23.6564 49.5771 22.6295 49.5771 21.0984V12.5469H54.5979Z" fill="#0B2B3F"/>
<path d="M71.5073 23.3016V27.204H57.4749V12.5469H62.552V23.3016H71.5073Z" fill="#0B2B3F"/>
<path d="M86.5959 16.2252V12.5469H69.0413V16.2252H75.2426V27.204H80.376V16.2252H86.5959Z" fill="#0B2B3F"/>
<path fill-rule="evenodd" clip-rule="evenodd" d="M104.605 14.0407C105.28 14.7315 105.599 15.6838 105.599 17.0093C105.599 18.1484 105.318 19.1193 104.849 19.7727C104.324 20.4823 103.518 21.0798 102.526 21.2292L106.967 27.204H101.383L97.7294 22.032H93.1774V27.204H88.175V12.5469H99.8844C102.208 12.5469 103.725 13.107 104.605 14.0407ZM100.559 18.2418C100.69 18.0176 100.727 17.7189 100.727 17.4763C100.727 17.1961 100.69 16.8973 100.559 16.7107C100.297 16.2252 99.7717 16.0946 98.9844 16.0946H93.196V18.7646H99.0786C99.8844 18.7646 100.372 18.6152 100.559 18.2418Z" fill="#0B2B3F"/>
<path fill-rule="evenodd" clip-rule="evenodd" d="M113.725 24.4967H121.669L122.961 27.204H128.376L120.957 12.5469H114.906L107.056 27.204H112.357L113.725 24.4967ZM120.076 21.2104H115.374L117.229 17.6816L117.791 16.3372L118.316 17.6629L120.076 21.2104Z" fill="#0B2B3F"/>
<path fill-rule="evenodd" clip-rule="evenodd" d="M104.069 29.9644C100.926 29.9644 99.2732 31.449 99.2732 33.6305C99.2732 36.0928 101.008 37.3419 104.069 37.3419C107.439 37.3419 108.856 35.8936 108.856 33.6305C108.856 31.3313 107.257 29.9644 104.069 29.9644ZM104.069 35.5225C102.28 35.5225 101.762 34.7893 101.762 33.6577C101.762 32.5444 102.325 31.8111 104.06 31.8111C105.959 31.8111 106.385 32.6348 106.385 33.6577C106.385 34.744 105.868 35.5225 104.069 35.5225Z" fill="#0B2B3F"/>
<path d="M94.6147 37.2333V33.0241H89.8734V34.554H92.4075C92.3895 34.6717 92.2986 34.898 92.1805 35.0337C91.9171 35.3415 91.2177 35.613 90.3094 35.613C89.3648 35.613 88.7562 35.3686 88.4293 34.9884C88.2113 34.7078 88.0841 34.3095 88.0841 33.7121C88.0841 33.0875 88.2113 32.6621 88.4565 32.3815C88.8107 31.9832 89.4102 31.8112 90.2913 31.8112C91.0815 31.8112 91.6264 31.9921 91.8808 32.2184C92.0443 32.3543 92.1713 32.5444 92.1987 32.671H94.5511C94.5421 32.4447 94.4694 32.0827 94.3422 31.8203C93.7791 30.6797 92.4711 30.0007 90.2459 30.0007C88.3112 30.0007 87.0123 30.589 86.2948 31.4763C85.8225 32.0827 85.6045 32.843 85.6045 33.694C85.6045 34.6355 85.8587 35.441 86.2766 35.9752C86.985 36.8895 88.2476 37.342 89.7644 37.342C91.0997 37.342 92.017 37.0252 92.5983 36.5455L92.6619 37.2333H94.6147Z" fill="#0B2B3F"/>
<path d="M69.8723 32.9336C71.7161 33.1326 72.5063 33.7845 72.5063 35.0246C72.5063 36.5273 71.0349 37.3419 68.1374 37.3419C65.4398 37.3419 64.2772 36.5816 63.832 35.5859C63.7321 35.3505 63.6867 35.0608 63.6594 34.8797H66.2754C66.2936 34.9883 66.3572 35.1513 66.4479 35.2599C66.6659 35.5225 67.2744 35.6763 68.3099 35.6763C69.6452 35.6763 69.9631 35.4862 69.9631 35.1333C69.9631 34.753 69.6361 34.6716 68.428 34.5448C67.9467 34.4996 67.1837 34.4271 66.8658 34.4C64.5588 34.1917 63.705 33.4766 63.705 32.2546C63.705 30.9873 65.2127 30.0188 67.9648 30.0188C70.4081 30.0188 71.5435 30.743 72.0159 31.6482C72.1611 31.9197 72.2519 32.2274 72.2792 32.4446H69.6633C69.6542 32.3451 69.6179 32.2456 69.518 32.1188C69.3181 31.8563 68.8095 31.6843 67.9012 31.6843C66.6205 31.6843 66.2845 31.8382 66.2845 32.164C66.2845 32.5262 66.7115 32.6077 68.1374 32.7616C68.6914 32.8068 69.5725 32.8973 69.8723 32.9336Z" fill="#0B2B3F"/>
<path fill-rule="evenodd" clip-rule="evenodd" d="M43.7956 30.7339C44.2769 31.1141 44.5493 31.7568 44.5493 32.6891C44.5493 33.4496 44.3587 34.0197 43.9953 34.4181C43.5049 34.9793 42.6965 35.2328 41.6429 35.2419C41.3158 35.251 38.5183 35.2419 38.5183 35.2419V37.2333H36.075V30.1274H41.6065C42.5875 30.1274 43.3323 30.3265 43.7956 30.7339ZM41.9881 33.2413C42.0606 33.1147 42.097 32.9516 42.097 32.7253C42.097 32.4901 42.0515 32.2908 41.9698 32.1822C41.8155 31.9559 41.5248 31.8473 41.0524 31.8473H38.5001V33.5853H41.0342C41.5429 33.5853 41.8426 33.4676 41.9881 33.2413Z" fill="#0B2B3F"/>
<path fill-rule="evenodd" clip-rule="evenodd" d="M53.4872 30.8516C53.8143 31.1865 53.9687 31.6482 53.9687 32.2908C53.9687 32.843 53.8324 33.3137 53.6053 33.6305C53.3511 33.9745 52.9605 34.2642 52.479 34.3367L54.6317 37.2333H51.925L50.1538 34.7259H47.9466V37.2333H45.5215V30.1274H51.1984C52.3247 30.1274 53.0604 30.399 53.4872 30.8516ZM51.5254 32.8884C51.589 32.7797 51.607 32.6348 51.607 32.5171C51.607 32.3814 51.589 32.2365 51.5254 32.1461C51.3982 31.9107 51.1439 31.8473 50.7625 31.8473H47.9557V33.1418H50.8078C51.1984 33.1418 51.4346 33.0693 51.5254 32.8884Z" fill="#0B2B3F"/>
<path d="M62.9232 37.2333V35.4682H57.8096V34.5448H62.7144V32.8159H57.8096V31.9016H62.8596V30.1274H55.4116V37.2333H62.9232Z" fill="#0B2B3F"/>
<path d="M81.3451 31.9107V30.1274H72.8345V31.9107H75.8408V37.2333H78.3295V31.9107H81.3451Z" fill="#0B2B3F"/>
<path d="M84.6175 30.1274V37.2333H82.1196V30.1274H84.6175Z" fill="#0B2B3F"/>
<path d="M98.2866 30.1274V37.2333H95.7883V30.1274H98.2866Z" fill="#0B2B3F"/>
<path d="M118.493 30.1274V34.4905C118.493 36.4096 116.749 37.333 114.106 37.333C111.636 37.333 109.864 36.4187 109.864 34.2642V30.1274H112.326V34.2642C112.326 35.0336 112.989 35.5134 114.207 35.5134C115.369 35.5134 116.059 35.0156 116.059 34.2733V30.1274H118.493Z" fill="#0B2B3F"/>
<path d="M128.299 35.0246C128.299 33.7845 127.509 33.1326 125.666 32.9336C125.364 32.8973 124.485 32.8068 123.93 32.7616C122.504 32.6077 122.076 32.5262 122.076 32.164C122.076 31.8382 122.413 31.6843 123.694 31.6843C124.602 31.6843 125.111 31.8563 125.31 32.1188C125.411 32.2456 125.446 32.3451 125.456 32.4446H128.072C128.044 32.2274 127.953 31.9197 127.808 31.6482C127.336 30.743 126.201 30.0188 123.758 30.0188C121.005 30.0188 119.497 30.9873 119.497 32.2546C119.497 33.4766 120.352 34.1917 122.658 34.4L122.807 34.4131L123.054 34.4356L124.221 34.5448C125.429 34.6716 125.755 34.753 125.755 35.1333C125.755 35.4862 125.439 35.6763 124.103 35.6763C123.067 35.6763 122.459 35.5225 122.24 35.2599C122.151 35.1513 122.086 34.9883 122.069 34.8797H119.452C119.48 35.0608 119.525 35.3505 119.625 35.5859C120.07 36.5816 121.232 37.3419 123.93 37.3419C126.828 37.3419 128.299 36.5273 128.299 35.0246Z" fill="#0B2B3F"/>
<path fill-rule="evenodd" clip-rule="evenodd" d="M64.7834 39.9541C62.7409 39.9541 61.6665 40.919 61.6665 42.3369C61.6665 43.937 62.794 44.7489 64.7834 44.7489C66.9736 44.7489 67.8944 43.8076 67.8944 42.3369C67.8944 40.8426 66.8555 39.9541 64.7834 39.9541ZM64.7834 43.5664C63.6205 43.5664 63.284 43.0898 63.284 42.3544C63.284 41.6309 63.65 41.1543 64.7775 41.1543C66.0112 41.1543 66.2888 41.6896 66.2888 42.3544C66.2888 43.0604 65.9522 43.5664 64.7834 43.5664Z" fill="#0B2B3F"/>
<path d="M53.4248 43.2429C53.4248 42.4369 52.9112 42.0132 51.7129 41.8838C51.5181 41.8603 50.9455 41.8015 50.5854 41.7721C49.6585 41.672 49.3811 41.619 49.3811 41.3838C49.3811 41.172 49.5996 41.072 50.4319 41.072C51.0222 41.072 51.3527 41.1837 51.4827 41.3543C51.5475 41.4367 51.5712 41.5014 51.5772 41.5661H53.2773C53.2595 41.4249 53.2005 41.2249 53.1061 41.0484C52.799 40.4601 52.0611 39.9895 50.4731 39.9895C48.6846 39.9895 47.7047 40.6189 47.7047 41.4426C47.7047 42.2369 48.2595 42.7017 49.7589 42.8369C49.9656 42.8546 50.4614 42.9017 50.7743 42.931C51.5594 43.0133 51.7718 43.0664 51.7718 43.3135C51.7718 43.5429 51.5653 43.6664 50.6976 43.6664C50.0245 43.6664 49.6291 43.5664 49.4873 43.3958C49.4284 43.3252 49.387 43.2193 49.3753 43.1487H47.675C47.6928 43.2664 47.7223 43.4546 47.7873 43.6077C48.0766 44.2547 48.8322 44.7489 50.5854 44.7489C52.4685 44.7489 53.4248 44.2195 53.4248 43.2429Z" fill="#0B2B3F"/>
<path fill-rule="evenodd" clip-rule="evenodd" d="M41.6381 43.3721C41.6381 43.6898 41.5495 44.0017 41.3724 44.2075C41.1009 44.537 40.5932 44.6781 39.938 44.6781H35.8235V40.0598H39.8258C40.4634 40.0598 40.8707 40.2129 41.095 40.4423C41.2957 40.6423 41.3843 40.907 41.3843 41.207C41.3843 41.5072 41.3135 41.7543 41.16 41.9366C41.0359 42.0897 40.8235 42.2072 40.5992 42.2367C40.9297 42.2778 41.2426 42.4426 41.4197 42.672C41.5672 42.8426 41.6381 43.1015 41.6381 43.3721ZM39.6487 41.7543C39.7077 41.6895 39.7432 41.5954 39.7432 41.4837C39.7432 41.3718 39.7077 41.2777 39.631 41.213C39.5484 41.1364 39.3948 41.107 39.1705 41.107H37.3701V41.8601H39.2119C39.4126 41.8601 39.5662 41.8307 39.6487 41.7543ZM39.3831 43.631C39.6605 43.631 39.8258 43.5957 39.9203 43.5075C39.9793 43.4486 40.0029 43.3604 40.0029 43.2486C40.0029 43.1309 39.9734 43.0427 39.9025 42.9721C39.8141 42.8957 39.6605 42.8603 39.4008 42.8603H37.3701V43.631H39.3831Z" fill="#0B2B3F"/>
<path d="M47.1966 43.531V44.6781H42.3147V40.0598H47.1552V41.213H43.8731V41.8072H47.0608V42.9309H43.8731V43.531H47.1966Z" fill="#0B2B3F"/>
<path d="M59.1691 40.0598V41.2189H57.2093V44.6781H55.5919V41.2189H53.6379V40.0598H59.1691Z" fill="#0B2B3F"/>
<path d="M73.2961 40.0598V41.2306H70.1498V41.8837H73.1485V43.0427H70.1498V44.6781H68.5618V40.0598H73.2961Z" fill="#0B2B3F"/>
<path d="M81.2946 41.2189V40.0598H75.7634V41.2189H77.7174V44.6781H79.3349V41.2189H81.2946Z" fill="#0B2B3F"/>
<path d="M87.3294 40.0598V44.6781H85.7473V43.0015H83.3742V44.6781H81.7922V40.0598H83.3742V41.7424H85.7473V40.0598H87.3294Z" fill="#0B2B3F"/>
<path d="M93.148 44.6781V43.531H89.8245V42.9309H93.0122V41.8072H89.8245V41.213H93.1067V40.0598H88.2661V44.6781H93.148Z" fill="#0B2B3F"/>
<path d="M102.935 40.0598H104.463L102.77 44.6781H101.035C101.035 44.6781 100.107 41.919 100.101 41.8424C100.096 41.919 99.162 44.6781 99.162 44.6781H97.4331L95.6975 40.0598H97.4146C97.4146 40.0598 98.4195 42.9661 98.4195 43.0367C98.4195 42.9661 99.3457 40.0598 99.3457 40.0598H101.005C101.005 40.0598 101.938 42.9661 101.938 43.0367C101.938 42.9661 102.935 40.0598 102.935 40.0598Z" fill="#0B2B3F"/>
<path fill-rule="evenodd" clip-rule="evenodd" d="M107.495 39.9541C105.453 39.9541 104.378 40.919 104.378 42.3369C104.378 43.937 105.505 44.7489 107.495 44.7489C109.685 44.7489 110.605 43.8076 110.605 42.3369C110.605 40.8426 109.567 39.9541 107.495 39.9541ZM107.495 43.5664C106.332 43.5664 105.996 43.0898 105.996 42.3544C105.996 41.6309 106.362 41.1543 107.489 41.1543C108.724 41.1543 109 41.6896 109 42.3544C109 43.0604 108.663 43.5664 107.495 43.5664Z" fill="#0B2B3F"/>
<path fill-rule="evenodd" clip-rule="evenodd" d="M116.451 40.5306C116.663 40.7483 116.763 41.0483 116.763 41.466C116.763 41.8249 116.675 42.1307 116.527 42.3367C116.362 42.5603 116.109 42.7486 115.795 42.7955L117.194 44.6781H115.435L114.284 43.0486H112.85V44.6781H111.274V40.0598H114.963C115.695 40.0598 116.173 40.2364 116.451 40.5306ZM115.176 41.8543C115.216 41.7837 115.229 41.6895 115.229 41.613C115.229 41.5247 115.216 41.4307 115.176 41.3718C115.093 41.2189 114.928 41.1777 114.679 41.1777H112.856V42.019H114.708C114.963 42.019 115.116 41.972 115.176 41.8543Z" fill="#0B2B3F"/>
<path d="M122.123 44.6781V43.4486H119.301V40.0598H117.702V44.6781H122.123Z" fill="#0B2B3F"/>
<path fill-rule="evenodd" clip-rule="evenodd" d="M128.382 42.2837C128.382 43.0015 128.311 43.3898 128.1 43.7546C127.78 44.3369 127.149 44.6781 126.033 44.6781H122.751V40.0598H125.997C127.107 40.0598 127.763 40.3717 128.088 40.907C128.318 41.266 128.382 41.6483 128.382 42.2837ZM125.732 43.5427C126.234 43.5427 126.518 43.425 126.689 43.1663C126.795 43.0074 126.825 42.6367 126.825 42.3132C126.819 42.019 126.783 41.7072 126.689 41.566C126.505 41.2895 126.229 41.1895 125.744 41.1895H124.333V43.5427H125.732Z" fill="#0B2B3F"/>
<path d="M65.0586 67.1392H62.6125C62.6125 67.1392 61.0163 71.7892 61.0163 71.9021C61.0163 71.7892 59.524 67.1392 59.524 67.1392H56.87C56.87 67.1392 55.3871 71.7892 55.3871 71.9021C55.3871 71.7892 53.7815 67.1392 53.7815 67.1392H51.033L53.8097 74.5282H56.5771C56.5771 74.5282 58.0694 70.1136 58.0788 69.9913C58.0884 70.1136 59.5711 74.5282 59.5711 74.5282H62.3479L65.0586 67.1392Z" fill="#0B2B3F"/>
<path d="M68.406 74.5282V67.1392H65.8086V74.5282H68.406Z" fill="#0B2B3F"/>
<path d="M78.5087 67.1392V74.5282H75.9774L72.3034 70.4149V74.5282H69.8667V67.1392H72.53L76.0907 71.1585V67.1392H78.5087Z" fill="#0B2B3F"/>
<path d="M88.6269 74.5282V67.1392H86.209V71.1585L82.6483 67.1392H79.9849V74.5282H82.4216V70.4149L86.0957 74.5282H88.6269Z" fill="#0B2B3F"/>
<path d="M97.9147 72.6927V74.5282H90.103V67.1392H97.8483V68.9841H92.5965V69.9349H97.6971V71.7327H92.5965V72.6927H97.9147Z" fill="#0B2B3F"/>
<path fill-rule="evenodd" clip-rule="evenodd" d="M107.898 69.3889C107.898 68.7205 107.737 68.2405 107.397 67.8922C106.953 67.4216 106.189 67.1392 105.017 67.1392H99.114V74.5282H101.636V71.9209H103.932L105.773 74.5282H108.588L106.349 71.5162C106.849 71.4409 107.255 71.1396 107.521 70.7819C107.756 70.4525 107.898 69.963 107.898 69.3889ZM105.442 69.6242C105.442 69.7465 105.423 69.8972 105.357 70.0101C105.263 70.1984 105.017 70.2736 104.611 70.2736H101.646V68.9276H104.563C104.96 68.9276 105.225 68.9935 105.357 69.2382C105.423 69.3324 105.442 69.483 105.442 69.6242Z" fill="#0B2B3F"/>
<path d="M57.5172 54.103L56.493 50.9612L55.4686 54.103H52.1538L54.8355 56.0447L53.8113 59.1866L56.493 57.2449L59.1745 59.1866L58.1503 56.0447L60.832 54.103H57.5172Z" fill="#0B2B3F"/>
<path d="M68.3182 50.959L69.3635 54.1008H72.7458L70.0095 56.0427L71.0547 59.1844L68.3182 57.2427L65.5819 59.1844L66.6271 56.0427L63.8906 54.1008H67.273L68.3182 50.959Z" fill="#0B2B3F"/>
<path d="M81.0947 54.1008L80.0496 50.959L79.0044 54.1008H75.6218L78.3583 56.0427L77.3131 59.1844L80.0496 57.2427L82.7859 59.1844L81.7407 56.0427L84.4772 54.1008H81.0947Z" fill="#0B2B3F"/>
<path d="M91.7814 50.959L92.8266 54.1008H96.209L93.4726 56.0427L94.5179 59.1844L91.7814 57.2427L89.045 59.1844L90.0903 56.0427L87.3538 54.1008H90.7363L91.7814 50.959Z" fill="#0B2B3F"/>
<path d="M104.631 54.1008L103.606 50.959L102.581 54.1008H99.2668L101.948 56.0427L100.925 59.1844L103.606 57.2427L106.288 59.1844L105.264 56.0427L107.945 54.1008H104.631Z" fill="#0B2B3F"/>
<path d="M147.635 17.2652C148.616 14.7814 148.19 11.9249 147.287 9.52277C146.336 6.99524 144.681 4.47416 142.208 3.14478C142.084 5.80862 142.901 8.44016 143.793 10.8132C144.596 12.9475 145.579 15.2214 147.205 16.9865C147.455 18.3237 147.646 19.6572 147.781 20.9846C147.242 19.5826 146.37 18.3048 145.28 17.2771C143.877 15.9532 141.788 14.932 139.829 15.536C140.403 17.6946 141.711 19.7642 143.261 21.2159C144.48 22.3585 146.09 23.8225 147.986 23.8802C148.065 25.8342 148.02 27.7703 147.858 29.6802C147.591 28.2826 147.018 26.9666 146.189 25.9866C145.051 24.6399 143.364 22.9948 141.211 23.27C141.328 25.4549 142.203 27.6935 143.421 29.3757C144.387 30.7125 145.666 32.4163 147.48 32.8565C147.189 34.7326 146.785 36.5777 146.271 38.3832C146.266 37.0008 145.961 35.6437 145.352 34.5552C144.496 33.0205 143.16 31.1062 141.004 30.9565C140.687 33.1 141.116 35.4432 141.981 37.3069C142.671 38.7966 143.592 40.6963 145.27 41.4823C144.565 43.4254 143.731 45.3143 142.774 47.1372C143.111 45.5659 143.097 43.91 142.7 42.42C142.152 40.3665 140.794 38.2092 138.611 37.5834C137.839 39.8508 137.946 42.3806 138.395 44.6849C138.764 46.5823 139.488 48.8106 141.112 50.0431C140.05 51.7519 138.875 53.3917 137.592 54.952C138.282 53.4218 138.623 51.7482 138.44 50.216C138.173 47.9846 137.544 45.598 135.258 44.4088C133.96 46.6395 133.659 49.1422 133.549 51.614C133.46 53.6125 133.748 56.0774 135.142 57.7032C133.609 59.29 131.958 60.7751 130.193 62.1446C131.333 60.6875 132.131 58.9778 132.299 57.2871C132.538 54.898 132.422 52.2682 130.294 50.5148C128.475 52.4086 127.388 55.1977 126.857 57.6202C126.387 59.7618 125.896 62.2971 127.015 64.4049C124.769 65.8668 122.37 67.1546 119.834 68.2454C121.618 66.978 123.078 65.2391 123.775 63.4437C124.687 61.0908 125.25 58.2868 123.475 55.9302C121.095 57.4494 119.346 60.0412 117.967 62.4054C116.785 64.434 115.561 67.2338 116.169 69.6497C114.764 70.1245 113.324 70.5414 111.85 70.8971L111.938 71.2579C113.416 70.9008 114.863 70.4825 116.272 70.0063C117.26 72.9149 120.496 73.8762 123.112 74.3003C126.84 74.9048 131.28 73.7337 134.463 71.3742C132.782 69.0082 129.355 68.7682 126.771 68.5871L126.737 68.5848C123.906 68.3865 120.843 68.6514 117.997 69.3888C121.285 68.1409 124.363 66.5717 127.202 64.7271L127.24 64.7886C128.795 67.3058 131.919 67.4043 134.37 67.2452C137.697 67.0295 141.536 65.0143 143.758 62.2286C141.668 60.4012 138.582 60.9125 136.189 61.3086L136.177 61.3108C133.508 61.7529 130.592 62.7174 128.143 64.2026C128.376 64.0197 128.603 63.8263 128.826 63.6234C131.206 61.9319 133.401 60.0397 135.394 57.9766C135.422 58.0042 135.45 58.0312 135.477 58.0582C137.416 59.986 140.23 59.4774 142.429 58.8465C145.377 58.0003 148.433 55.4475 149.898 52.5169C147.628 51.2492 144.914 52.2937 142.804 53.1202C140.484 54.0278 138.031 55.4803 136.144 57.3322C136.339 57.0875 136.525 56.8319 136.701 56.5672C138.454 54.5954 140.031 52.4839 141.417 50.2562L141.478 50.2932L141.493 50.3029C143.684 51.7079 146.166 50.6877 148.132 49.6843C150.802 48.3229 152.947 45.3309 153.873 42.3885C151.505 41.6326 149.167 43.1162 147.348 44.2911C145.357 45.5768 143.341 47.4106 141.958 49.5139C142.06 49.3063 142.155 49.094 142.243 48.8779C143.572 46.5666 144.701 44.1405 145.615 41.6237L145.663 41.6397L145.67 41.6428C147.663 42.3946 149.881 41.2212 151.328 39.9345C153.338 38.1449 154.756 35.3937 155.088 32.7059C153.011 32.4375 151.052 34.04 149.713 35.4066C148.173 36.9808 146.788 38.8412 145.937 40.908C146.001 40.6825 146.055 40.4534 146.099 40.2219C146.873 37.8575 147.459 35.4192 147.845 32.9266L147.904 32.9343C150.003 33.2731 151.945 31.6809 153.106 30.1355C154.739 27.9609 155.581 24.9512 155.369 22.2232C153.271 22.3697 151.672 24.3599 150.636 25.97C149.435 27.8348 148.44 29.9454 148.004 32.1535C148.018 31.9769 148.026 31.7994 148.029 31.6212C148.349 29.0839 148.463 26.4945 148.358 23.8732C150.502 23.7983 152.09 21.8143 152.909 20.0549C154.077 17.5385 154.266 14.3572 153.486 11.6765C151.444 12.2477 150.304 14.582 149.633 16.3791C148.858 18.4511 148.318 20.7112 148.313 22.958C148.202 21.0731 147.977 19.1731 147.635 17.2652Z" fill="#0B2B3F"/>
</svg>
