<svg width="119" height="30" viewBox="0 0 119 30" fill="none" xmlns="http://www.w3.org/2000/svg">
<path d="M2.94092 27.8258H28.5909V2.17578H2.94092V27.8258ZM23.6539 12.5328H18.2339V7.11278H23.6539V12.5328ZM7.87692 7.11278H13.2999V17.4688H23.6539V22.8888H7.87692V7.11278ZM45.2939 2.17578C42.7573 2.17578 40.2777 2.92796 38.1687 4.33719C36.0596 5.74642 34.4158 7.74941 33.4451 10.0929C32.4744 12.4364 32.2205 15.015 32.7153 17.5028C33.2102 19.9906 34.4316 22.2758 36.2252 24.0694C38.0188 25.8631 40.304 27.0845 42.7918 27.5794C45.2797 28.0742 47.8583 27.8203 50.2018 26.8496C52.5453 25.8789 54.5482 24.2351 55.9575 22.126C57.3667 20.0169 58.1189 17.5373 58.1189 15.0008C58.1149 11.6006 56.7624 8.34082 54.3581 5.93653C51.9538 3.53223 48.6941 2.17975 45.2939 2.17578ZM45.2939 22.8888C43.7338 22.8888 42.2087 22.4262 40.9115 21.5594C39.6144 20.6927 38.6033 19.4608 38.0063 18.0194C37.4093 16.5781 37.2531 14.9921 37.5574 13.4619C37.8618 11.9318 38.6131 10.5263 39.7162 9.42312C40.8194 8.31997 42.2249 7.56871 43.755 7.26435C45.2851 6.95999 46.8711 7.1162 48.3125 7.71322C49.7538 8.31024 50.9858 9.32127 51.8525 10.6185C52.7193 11.9156 53.1819 13.4407 53.1819 15.0008C53.1787 17.0919 52.3466 19.0964 50.868 20.575C49.3894 22.0536 47.3849 22.8856 45.2939 22.8888ZM104.013 2.17578C101.476 2.17559 98.9966 2.92759 96.8874 4.3367C94.7782 5.74581 93.1343 7.74873 92.1634 10.0922C91.1926 12.4356 90.9384 15.0144 91.4332 17.5022C91.9279 19.9901 93.1493 22.2754 94.9429 24.0691C96.7364 25.8628 99.0216 27.0844 101.51 27.5793C103.997 28.0742 106.576 27.8203 108.92 26.8497C111.263 25.879 113.266 24.2352 114.675 22.1261C116.085 20.017 116.837 17.5374 116.837 15.0008C116.833 11.6008 115.481 8.34114 113.077 5.93688C110.673 3.53261 107.413 2.18002 104.013 2.17578ZM104.013 22.8888C102.453 22.889 100.928 22.4265 99.6303 21.5599C98.333 20.6933 97.3218 19.4614 96.7246 18.0201C96.1274 16.5788 95.9711 14.9927 96.2753 13.4625C96.5796 11.9324 97.3308 10.5268 98.4339 9.42348C99.537 8.32022 100.943 7.56886 102.473 7.26442C104.003 6.95998 105.589 7.11613 107.03 7.71313C108.472 8.31012 109.704 9.32114 110.571 10.6184C111.437 11.9156 111.9 13.4407 111.9 15.0008C111.897 17.0917 111.065 19.096 109.586 20.5746C108.108 22.0532 106.104 22.8854 104.013 22.8888ZM74.6529 2.17578C72.1163 2.17578 69.6367 2.92796 67.5277 4.33719C65.4186 5.74642 63.7748 7.74941 62.8041 10.0929C61.8334 12.4364 61.5795 15.015 62.0743 17.5028C62.5692 19.9906 63.7906 22.2758 65.5842 24.0694C67.3778 25.8631 69.663 27.0845 72.1508 27.5794C74.6386 28.0742 77.2173 27.8203 79.5608 26.8496C81.9043 25.8789 83.9072 24.2351 85.3165 22.126C86.7257 20.0169 87.4779 17.5373 87.4779 15.0008C87.4739 11.6006 86.1214 8.34082 83.7171 5.93653C81.3128 3.53223 78.0531 2.17975 74.6529 2.17578ZM74.6529 22.8888C73.1993 22.8895 71.7739 22.4886 70.5338 21.7303C69.2938 20.972 68.2873 19.8859 67.6256 18.5917C66.964 17.2975 66.6727 15.8456 66.7841 14.3964C66.8955 12.9471 67.4051 11.5568 68.2568 10.3789C69.1085 9.20104 70.2691 8.28139 71.6104 7.72149C72.9518 7.16158 74.4218 6.9832 75.8581 7.20602C77.2945 7.42885 78.6413 8.04421 79.75 8.9842C80.8587 9.92418 81.6861 11.1523 82.1409 12.5328H74.6529V17.4688H82.1409C81.62 19.0441 80.6164 20.4155 79.2723 21.3883C77.9283 22.3612 76.3121 22.8861 74.6529 22.8888Z" fill="#0B2B3F"/>
</svg>
