<svg width="127" height="30" viewBox="0 0 127 30" fill="none" xmlns="http://www.w3.org/2000/svg">
<g clip-path="url(#clip0_462_3356)">
<path fill-rule="evenodd" clip-rule="evenodd" d="M7.52591 1.875V30H0V1.875H7.52591Z" fill="#0B2B3F"/>
<path fill-rule="evenodd" clip-rule="evenodd" d="M11.2888 1.875H27.2814C32.477 1.875 36.6888 6.07233 36.6888 11.25C36.6888 16.4277 32.477 20.625 27.2814 20.625H18.8147V30H11.2888V1.875ZM18.8147 13.125H27.2814C28.3206 13.125 29.1629 12.2855 29.1629 11.25C29.1629 10.2145 28.3206 9.375 27.2814 9.375H18.8147V13.125Z" fill="#0B2B3F"/>
<path fill-rule="evenodd" clip-rule="evenodd" d="M64.9112 1.875V16.4062C64.9112 19.7717 67.6488 22.5 71.026 22.5C74.4031 22.5 77.1409 19.7717 77.1409 16.4062V1.875H84.667V16.4062C84.667 23.9139 78.5597 30 71.026 30C63.4924 30 57.3853 23.9139 57.3853 16.4062V1.875H64.9112Z" fill="#0B2B3F"/>
<path fill-rule="evenodd" clip-rule="evenodd" d="M39.511 15C39.511 7.75125 45.4076 1.875 52.6814 1.875H54.5629V9.375H52.6814C49.564 9.375 47.0369 11.8934 47.0369 15V15.9375C47.0369 23.704 40.7192 30 32.9258 30H31.9851V22.5H32.9258C36.5627 22.5 39.511 19.5619 39.511 15.9375V15Z" fill="#0B2B3F"/>
<path d="M127 2.8125C127 4.3658 125.737 5.625 124.178 5.625C122.619 5.625 121.356 4.3658 121.356 2.8125C121.356 1.2592 122.619 0 124.178 0C125.737 0 127 1.2592 127 2.8125Z" fill="#0B2B3F"/>
<path d="M92.7475 30.0011L96.3388 15.0147L99.0088 24.0306C100.6 29.408 108.244 29.408 109.836 24.0306L112.505 15.0147L116.097 30.0011H123.834L118.187 6.43575C116.844 0.831714 108.92 0.62422 107.283 6.15032L104.422 15.8136L101.561 6.15032C99.9249 0.624252 91.9998 0.831684 90.6569 6.43574L85.0103 30.0011H92.7475Z" fill="#0B2B3F"/>
</g>
<defs>
<clipPath id="clip0_462_3356">
<rect width="127" height="30" fill="white"/>
</clipPath>
</defs>
</svg>
