<svg width="170" height="170" viewBox="0 0 170 170" fill="none" xmlns="http://www.w3.org/2000/svg">
<circle cx="85" cy="85" r="85" fill="#FBE87E"/>
<path d="M91.8457 26.1843C90.874 26.061 89.9976 25.7711 89.2165 25.3146C88.4474 24.8596 87.7933 24.2775 87.2541 23.5682C86.7271 22.8605 86.3475 22.0606 86.1154 21.1684C85.8833 20.2762 85.8313 19.3268 85.9594 18.3201C86.0875 17.3135 86.3695 16.4064 86.8054 15.599C87.255 14.781 87.8229 14.1012 88.5088 13.5597C89.2085 13.0076 89.9929 12.6141 90.862 12.3793C91.7327 12.1323 92.6539 12.0705 93.6255 12.1937C94.5972 12.317 95.4448 12.5909 96.1683 13.0155C96.904 13.4415 97.5043 13.9614 97.9693 14.575C98.4358 15.1764 98.7436 15.8132 98.8926 16.4853L96.538 17.2404C96.3693 16.5288 96.0091 15.9162 95.4574 15.4025C94.9072 14.8767 94.2009 14.5591 93.3385 14.4497C92.4883 14.3418 91.7098 14.4464 91.003 14.7635C90.3084 15.0821 89.7341 15.57 89.2803 16.2272C88.8385 16.886 88.5575 17.6884 88.4371 18.6345C88.3168 19.5805 88.3872 20.4337 88.6484 21.1939C88.9233 21.9436 89.3571 22.5594 89.95 23.0413C90.5549 23.5248 91.2825 23.8204 92.1327 23.9283C92.9951 24.0377 93.7577 23.9126 94.4205 23.553C95.0849 23.1813 95.5878 22.672 95.9293 22.0251L98.02 23.3441C97.7075 23.9577 97.2493 24.5034 96.6454 24.9814C96.0431 25.4473 95.3325 25.7947 94.5135 26.0235C93.7066 26.2539 92.8174 26.3075 91.8457 26.1843Z" fill="#0B2B3F"/>
<path d="M105.004 29.4371C104.088 29.0902 103.332 28.5621 102.738 27.8529C102.154 27.1481 101.778 26.3453 101.61 25.4445C101.453 24.5481 101.552 23.6313 101.908 22.6939C102.265 21.7565 102.799 21.0045 103.512 20.4377C104.236 19.8752 105.051 19.5235 105.956 19.3824C106.861 19.2414 107.777 19.3465 108.704 19.6978C109.62 20.0447 110.369 20.5706 110.953 21.2755C111.536 21.9803 111.906 22.781 112.063 23.6774C112.236 24.5667 112.142 25.4857 111.782 26.4345C111.426 27.3718 110.885 28.1217 110.161 28.6842C109.437 29.2467 108.622 29.5984 107.717 29.7395C106.812 29.8805 105.908 29.7797 105.004 29.4371ZM105.785 27.3795C106.289 27.5703 106.775 27.6173 107.244 27.5203C107.725 27.4277 108.154 27.2112 108.532 26.8706C108.926 26.523 109.225 26.0805 109.429 25.5433C109.638 24.9946 109.706 24.4711 109.633 23.9728C109.576 23.4675 109.399 23.021 109.101 22.6335C108.819 22.2389 108.426 21.9462 107.922 21.7554C107.407 21.5602 106.907 21.5147 106.422 21.6187C105.942 21.7113 105.507 21.9257 105.117 22.2619C104.743 22.591 104.452 23.0299 104.244 23.5786C104.04 24.1159 103.964 24.6429 104.016 25.1597C104.084 25.6694 104.268 26.118 104.566 26.5055C104.864 26.893 105.27 27.1844 105.785 27.3795Z" fill="#0B2B3F"/>
<path d="M112.755 32.5088L118.127 24.0976L120.032 25.3107L118.975 26.9651L119.008 26.5727C119.527 26.1926 120.09 26.015 120.699 26.04C121.324 26.0613 121.936 26.2627 122.535 26.644C123.154 27.0385 123.616 27.521 123.919 28.0914C124.233 28.6685 124.37 29.2847 124.329 29.9401C124.294 30.5852 124.076 31.2222 123.674 31.8509L120.218 37.2625L118.189 35.9705L121.34 31.0383C121.577 30.6672 121.709 30.3016 121.735 29.9416C121.762 29.5815 121.692 29.2471 121.527 28.9385C121.378 28.626 121.133 28.3613 120.792 28.1444C120.462 27.934 120.118 27.8239 119.761 27.8141C119.411 27.7941 119.078 27.872 118.763 28.048C118.447 28.2239 118.171 28.4974 117.933 28.8685L114.783 33.8008L112.755 32.5088Z" fill="#0B2B3F"/>
<path d="M125.698 42.1596C124.858 41.4105 124.409 40.6003 124.35 39.729C124.31 38.8568 124.664 38.0011 125.415 37.162L128.35 33.8787L127.062 32.7306L128.493 31.13L128.63 31.2521C128.995 31.5778 129.364 31.7345 129.736 31.7221C130.109 31.7097 130.458 31.5211 130.784 31.1563L131.298 30.5817L133.092 32.1817L131.576 33.8781L133.288 35.4048L131.857 37.0054L130.145 35.4787L127.295 38.6663C127.075 38.9125 126.928 39.1589 126.855 39.4055C126.792 39.6602 126.811 39.9146 126.912 40.1686C127.022 40.4308 127.223 40.6922 127.516 40.9528C127.58 41.0098 127.657 41.0703 127.747 41.1345C127.846 41.2068 127.941 41.275 128.032 41.3392L126.662 42.8714C126.518 42.7757 126.355 42.6636 126.175 42.5353C125.994 42.407 125.835 42.2818 125.698 42.1596Z" fill="#0B2B3F"/>
<path d="M130.09 46.9462C129.65 46.405 129.359 45.8618 129.216 45.3166C129.072 44.7715 129.078 44.255 129.234 43.767C129.399 43.2713 129.705 42.8425 130.151 42.4805C130.579 42.1339 131.037 41.9208 131.524 41.8411C132.02 41.7538 132.545 41.8171 133.097 42.031C133.649 42.245 134.22 42.6173 134.808 43.148L137.281 45.3482L135.855 46.5035L133.714 44.6247C133.347 44.3083 133.004 44.1292 132.686 44.0874C132.369 44.0456 132.072 44.1364 131.796 44.3598C131.53 44.5754 131.397 44.8484 131.397 45.1788C131.415 45.5109 131.547 45.8289 131.794 46.1327C132.11 46.522 132.469 46.7984 132.869 46.9618C133.287 47.127 133.709 47.171 134.135 47.0936C134.569 47.0258 134.961 46.8494 135.313 46.5644L137.31 44.947C137.643 44.6774 137.811 44.3211 137.813 43.8781C137.833 43.4369 137.67 43.0026 137.323 42.5754C136.999 42.1766 136.6 41.9091 136.127 41.7729C135.671 41.6385 135.209 41.6425 134.742 41.7851L134.245 39.6603C134.778 39.4811 135.322 39.4335 135.879 39.5176C136.454 39.6034 137.008 39.8002 137.541 40.1078C138.075 40.4155 138.554 40.8304 138.978 41.3526C139.495 41.9888 139.831 42.6453 139.987 43.3221C140.152 43.9912 140.133 44.6282 139.931 45.2329C139.745 45.8395 139.377 46.3661 138.826 46.8128L133.662 50.995L132.228 49.2289L133.554 48.1544L133.907 48.5301C133.412 48.6003 132.939 48.5901 132.487 48.4996C132.044 48.4014 131.619 48.2267 131.21 47.9755C130.81 47.7166 130.437 47.3735 130.09 46.9462Z" fill="#0B2B3F"/>
<path d="M137.595 58.0249C137.132 57.1492 136.915 56.2543 136.944 55.3403C136.989 54.4315 137.253 53.5943 137.734 52.8289C138.226 52.0577 138.911 51.4409 139.788 50.9784C140.665 50.516 141.555 50.302 142.46 50.3366C143.364 50.3712 144.2 50.6288 144.966 51.1095C145.738 51.6009 146.356 52.2845 146.819 53.1602C147.151 53.7873 147.346 54.431 147.405 55.0915C147.474 55.7462 147.417 56.371 147.233 56.9657C147.065 57.5656 146.762 58.0919 146.323 58.5446L144.525 57.1079C144.883 56.7117 145.094 56.2476 145.159 55.7156C145.23 55.1945 145.134 54.6853 144.871 54.188C144.625 53.7231 144.291 53.3668 143.869 53.1191C143.453 52.8823 142.99 52.7668 142.481 52.7726C141.972 52.7785 141.458 52.9184 140.938 53.1925C140.418 53.4665 140.012 53.8119 139.721 54.2286C139.429 54.6452 139.263 55.0919 139.225 55.5686C139.192 56.0561 139.298 56.5322 139.544 56.9971C139.813 57.5052 140.182 57.8771 140.653 58.1128C141.124 58.3484 141.63 58.4274 142.17 58.3498L142.312 60.6601C141.722 60.7497 141.125 60.7056 140.518 60.5276C139.923 60.344 139.368 60.0418 138.855 59.6212C138.352 59.1948 137.933 58.6627 137.595 58.0249Z" fill="#0B2B3F"/>
<path d="M142.195 68.9139C141.843 67.8454 141.86 66.9195 142.247 66.1362C142.649 65.3607 143.385 64.7973 144.455 64.4459L148.642 63.071L148.103 61.4334L150.144 60.7631L150.201 60.9373C150.354 61.4019 150.595 61.7218 150.923 61.8972C151.252 62.0725 151.648 62.0837 152.114 61.931L152.846 61.6904L153.598 63.9726L151.435 64.683L152.152 66.8607L150.111 67.5309L149.393 65.3532L145.328 66.688C145.014 66.7912 144.764 66.9313 144.578 67.1084C144.395 67.2971 144.284 67.5267 144.244 67.7971C144.208 68.0792 144.251 68.4061 144.373 68.7778C144.4 68.8591 144.436 68.9501 144.483 69.0508C144.532 69.1631 144.58 69.2696 144.626 69.3703L142.672 70.012C142.596 69.857 142.511 69.6788 142.419 69.4774C142.327 69.276 142.252 69.0881 142.195 68.9139Z" fill="#0B2B3F"/>
<path d="M144.431 81.9092C144.361 80.8601 144.518 79.9122 144.902 79.0653C145.288 78.2306 145.85 77.5556 146.588 77.0402C147.326 76.5249 148.184 76.2344 149.161 76.1686L157.938 75.5781L158.106 78.0666L149.457 78.6485C148.895 78.6863 148.397 78.8424 147.961 79.1168C147.527 79.4034 147.196 79.7749 146.969 80.2313C146.754 80.6869 146.666 81.1952 146.704 81.7563C146.742 82.3297 146.898 82.8216 147.171 83.2321C147.457 83.654 147.835 83.9717 148.303 84.1853C148.772 84.4111 149.288 84.505 149.85 84.4672L158.499 83.8853L158.667 86.3739L149.89 86.9644C148.912 87.0301 148.023 86.8571 147.222 86.4453C146.422 86.0336 145.774 85.4338 145.279 84.6461C144.785 83.8706 144.502 82.9583 144.431 81.9092Z" fill="#0B2B3F"/>
<path d="M144.064 94.3044C144.206 93.2503 144.579 92.3629 145.183 91.6423C145.797 90.9354 146.554 90.4946 147.455 90.3197L148.07 92.216C147.478 92.3953 146.993 92.6879 146.617 93.0938C146.24 93.5117 146.013 93.9994 145.938 94.5568C145.879 94.993 145.93 95.3514 146.09 95.6319C146.249 95.9125 146.487 96.0741 146.802 96.1165C146.997 96.1426 147.162 96.1094 147.298 96.0166C147.444 95.9377 147.572 95.813 147.682 95.6427C147.802 95.4861 147.906 95.309 147.994 95.1111L148.668 93.5548C149.023 92.7514 149.479 92.1651 150.036 91.7959C150.59 91.4388 151.207 91.3059 151.887 91.3974C152.494 91.4791 153.001 91.7016 153.409 92.0649C153.828 92.442 154.128 92.9203 154.309 93.4999C154.488 94.0915 154.53 94.7448 154.433 95.4597C154.307 96.3927 153.972 97.1864 153.426 97.8408C152.881 98.4953 152.181 98.9193 151.327 99.1128L150.717 97.1801C151.189 97.0709 151.585 96.8344 151.906 96.4704C152.227 96.1065 152.421 95.6762 152.488 95.1794C152.542 94.7795 152.494 94.4523 152.343 94.1975C152.192 93.9428 151.971 93.7959 151.68 93.7567C151.498 93.7322 151.333 93.7594 151.187 93.8384C151.04 93.9173 150.913 94.0359 150.805 94.1941C150.696 94.3644 150.589 94.5598 150.485 94.7802L149.799 96.2977C149.446 97.0769 148.998 97.6519 148.454 98.0228C147.908 98.4058 147.283 98.5499 146.579 98.4552C145.985 98.3751 145.478 98.1466 145.06 97.7695C144.653 97.394 144.36 96.9104 144.181 96.3188C144.001 95.7271 143.962 95.0557 144.064 94.3044Z" fill="#0B2B3F"/>
<path d="M147.394 109.533L148.934 108.555L150.146 110.459L151.576 108.751L152.981 109.903L151.568 111.618L153.76 112.466L153.097 114.176L150.905 113.329L150.793 115.547L148.978 115.455L149.072 113.23L146.893 113.823L146.419 112.047L148.599 111.454L147.394 109.533Z" fill="#0B2B3F"/>
<path d="M132.28 122.9C132.868 122.118 133.554 121.501 134.339 121.05C135.115 120.608 135.946 120.329 136.83 120.213C137.707 120.106 138.591 120.173 139.482 120.414C140.373 120.655 141.224 121.08 142.037 121.69C142.849 122.3 143.498 122.994 143.984 123.772C144.473 124.567 144.783 125.396 144.914 126.26C145.048 127.14 145.002 128.016 144.776 128.886C144.559 129.763 144.156 130.593 143.568 131.375C142.979 132.157 142.321 132.756 141.593 133.173C140.858 133.601 140.109 133.864 139.344 133.963C138.59 134.07 137.884 134.021 137.225 133.818L137.735 131.401C138.438 131.607 139.149 131.598 139.869 131.374C140.599 131.157 141.225 130.702 141.748 130.008C142.263 129.324 142.557 128.597 142.632 127.827C142.699 127.067 142.559 126.327 142.212 125.607C141.858 124.898 141.299 124.257 140.536 123.683C139.772 123.11 138.995 122.749 138.204 122.599C137.416 122.466 136.666 122.537 135.953 122.812C135.232 123.098 134.615 123.582 134.1 124.266C133.577 124.96 133.308 125.684 133.293 126.437C133.287 127.197 133.481 127.886 133.874 128.503L131.691 129.663C131.312 129.088 131.065 128.42 130.948 127.659C130.841 126.906 130.891 126.117 131.098 125.294C131.297 124.48 131.691 123.682 132.28 122.9Z" fill="#0B2B3F"/>
<path d="M122.925 132.727C123.679 132.102 124.512 131.707 125.423 131.54C126.325 131.381 127.21 131.451 128.077 131.749C128.936 132.055 129.685 132.594 130.326 133.365C130.967 134.137 131.358 134.973 131.5 135.871C131.633 136.778 131.537 137.659 131.213 138.515C130.89 139.37 130.346 140.114 129.583 140.746C128.829 141.37 128.001 141.762 127.099 141.921C126.197 142.08 125.317 142.006 124.459 141.7C123.599 141.412 122.845 140.877 122.196 140.096C121.556 139.324 121.169 138.485 121.037 137.578C120.904 136.671 121 135.79 121.323 134.935C121.647 134.079 122.181 133.343 122.925 132.727ZM124.332 134.421C123.917 134.764 123.636 135.163 123.489 135.619C123.333 136.082 123.31 136.561 123.42 137.058C123.528 137.572 123.766 138.05 124.133 138.492C124.508 138.944 124.931 139.261 125.401 139.444C125.869 139.644 126.345 139.71 126.83 139.642C127.313 139.592 127.762 139.395 128.176 139.052C128.601 138.701 128.887 138.289 129.035 137.816C129.192 137.354 129.22 136.87 129.119 136.366C129.017 135.878 128.778 135.409 128.403 134.957C128.036 134.515 127.614 134.189 127.138 133.98C126.661 133.787 126.179 133.725 125.695 133.793C125.21 133.86 124.756 134.07 124.332 134.421Z" fill="#0B2B3F"/>
<path d="M116.431 137.945L121.116 146.757L119.121 147.815L118.2 146.081L118.525 146.303C118.601 146.941 118.478 147.518 118.157 148.035C117.83 148.568 117.354 149.001 116.726 149.333C116.077 149.677 115.43 149.841 114.783 149.824C114.125 149.812 113.521 149.627 112.97 149.269C112.425 148.921 111.977 148.418 111.627 147.759L108.613 142.09L110.738 140.964L113.485 146.131C113.692 146.519 113.945 146.814 114.246 147.015C114.547 147.215 114.872 147.319 115.223 147.327C115.569 147.352 115.92 147.269 116.277 147.08C116.623 146.896 116.888 146.652 117.072 146.347C117.262 146.052 117.358 145.724 117.36 145.363C117.363 145.002 117.26 144.628 117.054 144.239L114.306 139.072L116.431 137.945Z" fill="#0B2B3F"/>
<path d="M101.651 144.434C102.718 144.074 103.646 144.084 104.433 144.464C105.213 144.859 105.783 145.589 106.143 146.655L107.554 150.825L109.189 150.274L109.877 152.306L109.703 152.365C109.239 152.522 108.92 152.764 108.747 153.094C108.575 153.423 108.566 153.819 108.723 154.283L108.97 155.013L106.691 155.781L105.962 153.627L103.787 154.36L103.099 152.327L105.274 151.594L103.905 147.545C103.799 147.233 103.657 146.984 103.478 146.799C103.288 146.618 103.057 146.509 102.786 146.471C102.503 146.437 102.176 146.483 101.805 146.608C101.724 146.636 101.633 146.673 101.532 146.72C101.42 146.77 101.314 146.819 101.214 146.866L100.556 144.92C100.71 144.842 100.888 144.756 101.089 144.662C101.29 144.569 101.477 144.493 101.651 144.434Z" fill="#0B2B3F"/>
<path d="M95.3023 145.876C95.9909 145.763 96.6078 145.779 97.153 145.925C97.6981 146.071 98.1444 146.332 98.4919 146.709C98.8413 147.097 99.0627 147.575 99.1561 148.142C99.2456 148.685 99.2043 149.187 99.0322 149.649C98.8622 150.123 98.5473 150.547 98.0876 150.92C97.6279 151.293 97.0214 151.603 96.2681 151.851L93.1289 152.905L92.8307 151.096L95.5258 150.17C95.9831 150.008 96.3086 149.799 96.5023 149.545C96.6961 149.29 96.7642 148.987 96.7065 148.637C96.6509 148.3 96.4793 148.049 96.1918 147.886C95.8942 147.736 95.5521 147.693 95.1655 147.757C94.6702 147.838 94.2522 148.012 93.9115 148.279C93.5606 148.56 93.3134 148.904 93.1696 149.312C93.0138 149.721 92.9726 150.149 93.0462 150.596L93.4636 153.129C93.5331 153.551 93.7599 153.873 94.1439 154.095C94.5178 154.331 94.9766 154.405 95.5202 154.315C96.0276 154.232 96.4578 154.019 96.8107 153.676C97.1536 153.347 97.3789 152.944 97.4865 152.468L99.5806 153.091C99.4728 153.641 99.2443 154.137 98.8951 154.579C98.5359 155.034 98.0903 155.417 97.5583 155.727C97.0262 156.038 96.428 156.248 95.7635 156.357C94.9541 156.49 94.2165 156.456 93.5506 156.256C92.8868 156.067 92.342 155.736 91.9163 155.26C91.4805 154.799 91.2049 154.219 91.0896 153.519L90.0103 146.968L92.2574 146.599L92.5347 148.282L92.0332 148.402C92.2174 147.938 92.4608 147.532 92.7634 147.185C93.068 146.85 93.4309 146.567 93.8521 146.337C94.2752 146.119 94.7586 145.965 95.3023 145.876Z" fill="#0B2B3F"/>
<path d="M81.8674 146.897C82.8586 146.929 83.7446 147.184 84.5254 147.662C85.2935 148.151 85.8913 148.794 86.3187 149.591C86.7458 150.4 86.9433 151.299 86.9112 152.289C86.8791 153.279 86.6241 154.158 86.1459 154.925C85.6678 155.693 85.0299 156.29 84.2321 156.717C83.422 157.143 82.5214 157.34 81.5302 157.308C80.8204 157.285 80.1638 157.136 79.5602 156.859C78.9563 156.595 78.4412 156.236 78.0149 155.782C77.576 155.339 77.2683 154.816 77.092 154.211L79.2325 153.362C79.3999 153.869 79.6988 154.283 80.1295 154.602C80.5479 154.922 81.0385 155.09 81.6014 155.109C82.1276 155.126 82.6029 155.013 83.0273 154.769C83.4394 154.526 83.7691 154.182 84.0162 153.737C84.2634 153.292 84.3964 152.777 84.4154 152.19C84.4344 151.604 84.335 151.081 84.1172 150.621C83.8993 150.161 83.5926 149.797 83.1971 149.527C82.7894 149.257 82.3224 149.113 81.7962 149.096C81.2211 149.078 80.7144 149.214 80.2762 149.506C79.838 149.798 79.5188 150.197 79.3186 150.705L77.2386 149.683C77.4526 149.127 77.7872 148.631 78.2424 148.193C78.6972 147.767 79.2346 147.436 79.8548 147.199C80.4746 146.974 81.1455 146.874 81.8674 146.897Z" fill="#0B2B3F"/>
<path d="M70.1298 145.509C71.234 145.731 72.0317 146.204 72.5229 146.926C72.9997 147.658 73.1268 148.575 72.9043 149.678L72.0336 153.993L73.7259 154.333L73.3014 156.437L73.1214 156.401C72.6413 156.304 72.2438 156.355 71.929 156.553C71.6142 156.752 71.4084 157.091 71.3116 157.57L71.1593 158.325L68.8008 157.851L69.2507 155.622L67.0003 155.169L67.4247 153.065L69.6752 153.518L70.5205 149.329C70.5858 149.006 70.5874 148.719 70.5253 148.47C70.4512 148.218 70.3063 148.008 70.0904 147.84C69.8626 147.669 69.5566 147.545 69.1725 147.468C69.0885 147.451 68.9913 147.438 68.8808 147.428C68.7584 147.416 68.642 147.405 68.5315 147.395L68.9379 145.382C69.1107 145.391 69.3076 145.406 69.5285 145.426C69.7493 145.445 69.9498 145.473 70.1298 145.509Z" fill="#0B2B3F"/>
<path d="M57.6809 141.018C58.6286 141.476 59.3757 142.081 59.9221 142.835C60.4575 143.582 60.7666 144.404 60.8493 145.3C60.9321 146.195 60.7602 147.083 60.3335 147.964L56.5015 155.871L54.2532 154.785L58.0293 146.993C58.2746 146.487 58.3857 145.977 58.3627 145.463C58.3286 144.944 58.1691 144.473 57.8844 144.05C57.5943 143.638 57.1958 143.31 56.6888 143.065C56.1709 142.815 55.6657 142.706 55.1733 142.74C54.6645 142.779 54.2013 142.949 53.7835 143.25C53.3548 143.545 53.0177 143.946 52.7724 144.452L48.9963 152.244L46.7481 151.158L50.5802 143.25C51.0068 142.37 51.5976 141.684 52.3524 141.193C53.1071 140.702 53.9497 140.437 54.8801 140.398C55.7995 140.353 56.7331 140.56 57.6809 141.018Z" fill="#0B2B3F"/>
<path d="M47.1789 134.615C48.0254 135.26 48.6125 136.024 48.9402 136.904C49.2507 137.787 49.2589 138.663 48.9648 139.531L47.0105 139.125C47.1481 138.522 47.1335 137.957 46.9667 137.43C46.7903 136.895 46.4782 136.457 46.0307 136.116C45.6804 135.849 45.3437 135.715 45.0204 135.714C44.6972 135.714 44.4389 135.84 44.2457 136.093C44.1268 136.248 44.074 136.408 44.0872 136.572C44.0833 136.738 44.1283 136.911 44.2222 137.09C44.299 137.272 44.4015 137.45 44.5297 137.625L45.5499 138.98C46.0726 139.686 46.3567 140.372 46.4023 141.038C46.4381 141.696 46.2479 142.297 45.8317 142.841C45.4601 143.327 45.0151 143.657 44.4969 143.831C43.9615 144.007 43.3969 144.03 42.803 143.9C42.1993 143.763 41.6105 143.475 41.0364 143.037C40.2873 142.466 39.7632 141.781 39.4641 140.984C39.165 140.187 39.1429 139.37 39.3976 138.533L41.381 138.962C41.2422 139.425 41.2516 139.886 41.4092 140.345C41.5668 140.803 41.845 141.185 42.2439 141.489C42.565 141.734 42.8737 141.854 43.17 141.849C43.4664 141.845 43.7037 141.726 43.8821 141.493C43.9936 141.347 44.0513 141.191 44.0552 141.025C44.0591 140.858 44.019 140.689 43.9348 140.517C43.8409 140.338 43.7238 140.149 43.5835 139.949L42.6037 138.602C42.1004 137.91 41.8223 137.237 41.7693 136.581C41.7066 135.918 41.8908 135.304 42.3219 134.741C42.6861 134.265 43.1358 133.938 43.6712 133.762C44.1992 133.596 44.765 133.581 45.3686 133.718C45.9723 133.856 46.5757 134.155 47.1789 134.615Z" fill="#0B2B3F"/>
<path d="M32.2717 129.966L32.3631 131.786L30.107 131.899L30.8897 133.985L29.1929 134.636L28.396 132.562L26.5764 134.048L25.4137 132.629L27.2333 131.143L25.356 129.951L26.3319 128.42L28.2234 129.6L28.782 127.414L30.5625 127.879L30.0039 130.064L32.2717 129.966Z" fill="#0B2B3F"/>
<path d="M28.066 110.239C28.4568 111.135 28.6555 112.036 28.6621 112.94C28.6638 113.832 28.4974 114.691 28.1627 115.517C27.8232 116.331 27.3289 117.066 26.6798 117.721C26.0307 118.376 25.2402 118.906 24.3084 119.311C23.3766 119.716 22.4518 119.938 21.534 119.977C20.6001 120.009 19.7248 119.87 18.908 119.558C18.0751 119.24 17.3353 118.768 16.6888 118.142C16.0311 117.521 15.5068 116.762 15.116 115.865C14.7252 114.969 14.5275 114.101 14.5229 113.263C14.5134 112.414 14.6537 111.633 14.944 110.92C15.223 110.212 15.6137 109.622 16.1159 109.151L17.9697 110.785C17.4436 111.294 17.1006 111.916 16.9406 112.653C16.7695 113.394 16.8573 114.162 17.2042 114.958C17.5461 115.743 18.0342 116.357 18.6685 116.802C19.2979 117.235 20.0114 117.478 20.8091 117.532C21.6019 117.574 22.4362 117.405 23.3119 117.024C24.1876 116.644 24.8858 116.147 25.4065 115.534C25.9111 114.915 26.2192 114.228 26.3307 113.473C26.4374 112.706 26.3198 111.931 25.9779 111.146C25.631 110.35 25.1334 109.759 24.485 109.375C23.8254 108.994 23.1299 108.823 22.3986 108.861L22.4646 106.392C23.1524 106.347 23.8564 106.461 24.5765 106.735C25.2854 107.013 25.9478 107.446 26.5635 108.031C27.1744 108.606 27.6752 109.342 28.066 110.239Z" fill="#0B2B3F"/>
<path d="M24.1416 97.2687C24.3109 98.232 24.2423 99.1502 23.9358 100.023C23.6272 100.884 23.1283 101.617 22.439 102.222C21.7477 102.815 20.9075 103.198 19.9187 103.371C18.9298 103.544 18.0093 103.47 17.1571 103.148C16.3028 102.813 15.5837 102.294 15 101.589C14.4162 100.885 14.0387 100.045 13.8672 99.0693C13.6979 98.1059 13.7676 97.1937 14.0762 96.3328C14.3848 95.4719 14.8848 94.745 15.5762 94.1521C16.2534 93.5493 17.0924 93.1602 18.0933 92.9848C19.0822 92.8115 20.0038 92.8921 20.8581 93.2264C21.7124 93.5608 22.4315 94.0803 23.0152 94.7849C23.599 95.4894 23.9744 96.3173 24.1416 97.2687ZM21.971 97.6491C21.8779 97.1192 21.6698 96.6778 21.3467 96.3248C21.0215 95.9597 20.6157 95.7019 20.1293 95.5513C19.6287 95.3907 19.095 95.3601 18.5283 95.4595C17.9494 95.5609 17.4641 95.7701 17.0723 96.087C16.6663 96.394 16.3727 96.7744 16.1914 97.2282C15.9959 97.6721 15.9448 98.159 16.0379 98.6889C16.1331 99.2308 16.3494 99.6832 16.6866 100.046C17.0118 100.411 17.4187 100.675 17.9072 100.838C18.3815 100.99 18.9081 101.016 19.487 100.915C20.0537 100.815 20.5461 100.611 20.9642 100.302C21.368 99.9829 21.6606 99.5965 21.8419 99.1426C22.0232 98.6888 22.0662 98.191 21.971 97.6491Z" fill="#0B2B3F"/>
<path d="M22.8211 88.9795L12.835 88.6785L12.9032 86.4238L14.8674 86.483L14.513 86.6558C13.9204 86.4055 13.4791 86.0131 13.189 85.4783C12.8871 84.931 12.7468 84.303 12.7682 83.5942C12.7904 82.861 12.9691 82.2181 13.3043 81.6655C13.6398 81.1007 14.1 80.6681 14.6847 80.3677C15.2573 80.067 15.9168 79.9278 16.6633 79.9503L23.0882 80.144L23.0156 82.5454L17.1598 82.3688C16.7192 82.3556 16.3373 82.4297 16.0139 82.5912C15.6906 82.7527 15.4386 82.9836 15.258 83.2839C15.0656 83.5717 14.9633 83.9172 14.9511 84.3205C14.9393 84.7116 15.0205 85.0626 15.1949 85.3737C15.357 85.6844 15.5945 85.93 15.9075 86.1107C16.2205 86.2914 16.5973 86.3884 17.0379 86.4017L22.8937 86.5782L22.8211 88.9795Z" fill="#0B2B3F"/>
<path d="M24.4866 72.9483C24.2728 74.0527 23.8061 74.8529 23.0865 75.3491C22.3573 75.8309 21.4397 75.9651 20.3337 75.7515L16.0062 74.916L15.6785 76.6086L13.5689 76.2012L13.6037 76.0212C13.6967 75.541 13.6425 75.1445 13.4412 74.8317C13.2399 74.5189 12.8989 74.316 12.418 74.2232L11.6607 74.077L12.1174 71.7182L14.3533 72.1499L14.7891 69.8992L16.8987 70.3065L16.463 72.5572L20.6642 73.3684C20.9888 73.4311 21.2757 73.4304 21.525 73.3665C21.7767 73.2906 21.9858 73.1441 22.1525 72.9273C22.3216 72.6984 22.4433 72.3919 22.5176 72.0078C22.5339 71.9238 22.5465 71.8266 22.5554 71.7162C22.5666 71.5938 22.5767 71.4775 22.5856 71.3671L24.6051 71.7571C24.5966 71.9297 24.5834 72.1265 24.5656 72.3472C24.5478 72.5679 24.5215 72.7683 24.4866 72.9483Z" fill="#0B2B3F"/>
<path d="M26.3694 66.7122C26.1275 67.3659 25.8083 67.8934 25.4119 68.2945C25.0154 68.6956 24.5674 68.9539 24.0679 69.0694C23.5568 69.1806 23.0314 69.1366 22.4916 68.9374C21.9748 68.7467 21.5579 68.4625 21.2408 68.0848C20.9123 67.7029 20.6993 67.2202 20.6019 66.6368C20.5045 66.0535 20.5342 65.3736 20.691 64.5973L21.3246 61.3509L23.0472 61.9866L22.5211 64.7838C22.436 65.2608 22.4565 65.6463 22.5826 65.9405C22.7087 66.2347 22.9382 66.4432 23.2713 66.5661C23.5928 66.6848 23.8958 66.6597 24.1801 66.4909C24.4573 66.3064 24.6637 66.0307 24.7995 65.6637C24.9735 65.1935 25.0287 64.7446 24.965 64.3171C24.8941 63.8738 24.7167 63.489 24.4328 63.1627C24.1532 62.8249 23.8009 62.5776 23.376 62.4207L20.9643 61.5308C20.5623 61.3825 20.1699 61.4201 19.7869 61.6437C19.3967 61.8517 19.1061 62.2137 18.9151 62.7297C18.7369 63.2114 18.7098 63.6902 18.8339 64.1661C18.9508 64.6264 19.1898 65.0209 19.5511 65.3497L17.9741 66.8598C17.5482 66.4941 17.2294 66.0506 17.0177 65.5293C16.7987 64.9923 16.6856 64.4161 16.6783 63.8008C16.6711 63.1855 16.7842 62.5625 17.0176 61.9318C17.3019 61.1634 17.6959 60.5397 18.1994 60.0608C18.6915 59.5776 19.2496 59.2687 19.8737 59.1341C20.4906 58.9837 21.1321 59.0315 21.7982 59.2773L28.0343 61.5785L27.2449 63.7116L25.6428 63.1204L25.7866 62.626C26.0994 63.0152 26.3321 63.4269 26.4847 63.8612C26.6257 64.2912 26.6924 64.746 26.6847 65.2254C26.6655 65.7006 26.5604 66.1962 26.3694 66.7122Z" fill="#0B2B3F"/>
<path d="M32.0898 54.6134C31.5709 55.4573 30.9102 56.0996 30.1078 56.5401C29.3013 56.9639 28.4456 57.1638 27.5409 57.1399C26.6256 57.1095 25.7455 56.8353 24.9003 56.3171C24.0552 55.799 23.4173 55.1424 22.9865 54.3475C22.5558 53.5526 22.3524 52.7034 22.3763 51.7999C22.4067 50.8859 22.6813 50.007 23.2002 49.163C23.5718 48.5587 24.0272 48.0633 24.5667 47.6767C25.0956 47.2836 25.6633 47.0147 26.2695 46.8699C26.8717 46.7083 27.4797 46.7009 28.0934 46.8477L27.7709 49.1247C27.247 49.0187 26.7394 49.0733 26.2479 49.2885C25.7628 49.4932 25.373 49.8352 25.0783 50.3145C24.8028 50.7625 24.6657 51.2308 24.667 51.7194C24.6747 52.1976 24.8108 52.654 25.0751 53.0887C25.3394 53.5233 25.722 53.8942 26.2228 54.2012C26.7236 54.5083 27.2279 54.6812 27.7357 54.7199C28.2435 54.7587 28.7126 54.6733 29.1431 54.4638C29.58 54.2439 29.9362 53.9099 30.2117 53.4619C30.5128 52.9722 30.645 52.4651 30.6084 51.9405C30.5718 51.4159 30.3824 50.9411 30.0403 50.5161L31.9591 49.2178C32.3366 49.6788 32.603 50.2152 32.7585 50.8269C32.9035 51.4323 32.9254 52.0627 32.8242 52.7179C32.7125 53.3668 32.4677 53.9987 32.0898 54.6134Z" fill="#0B2B3F"/>
<path d="M39.1313 45.106C38.3907 45.9535 37.5845 46.4113 36.7127 46.4792C35.8398 46.5299 34.9789 46.1854 34.1302 45.4459L30.8091 42.5522L29.6741 43.8511L28.055 42.4404L28.1758 42.3022C28.4978 41.9337 28.6504 41.5638 28.6338 41.1923C28.6171 40.8208 28.4243 40.4743 28.0553 40.1528L27.4741 39.6464L29.0558 37.8361L30.7717 39.3312L32.281 37.6039L33.9001 39.0146L32.3908 40.7419L35.6151 43.5513C35.8641 43.7683 36.1125 43.9117 36.3603 43.9816C36.616 44.0422 36.8706 44.0205 37.1238 43.9167C37.3851 43.8036 37.6445 43.5996 37.9021 43.3048C37.9585 43.2404 38.0183 43.1626 38.0815 43.0717C38.1527 42.9715 38.22 42.876 38.2832 42.785L39.8331 44.1354C39.7388 44.2805 39.6285 44.444 39.502 44.6259C39.3756 44.8078 39.252 44.9678 39.1313 45.106Z" fill="#0B2B3F"/>
<path d="M49.1744 36.5315C48.3083 37.1294 47.4125 37.4801 46.487 37.5839C45.5717 37.6806 44.7034 37.5443 43.8821 37.1748C43.0608 36.8054 42.3716 36.2184 41.8147 35.4138L36.8127 28.1875L38.8674 26.7693L43.7962 33.89C44.1165 34.3526 44.5061 34.7005 44.9651 34.9336C45.4342 35.1597 45.9231 35.2532 46.4319 35.2142C46.9337 35.1651 47.4162 34.9806 47.8795 34.6608C48.3529 34.3341 48.6962 33.9485 48.9095 33.504C49.1259 33.0425 49.206 32.5562 49.1498 32.0451C49.1038 31.5269 48.9206 31.0366 48.6004 30.5739L43.6715 23.4533L45.7261 22.0351L50.7281 29.2613C51.285 30.0659 51.5914 30.9171 51.6473 31.8149C51.7031 32.7127 51.519 33.5755 51.0948 34.4034C50.6807 35.2243 50.0406 35.9336 49.1744 36.5315Z" fill="#0B2B3F"/>
<path d="M59.9396 30.5563C58.9596 30.9731 58.0051 31.1066 57.0762 30.9568C56.1538 30.791 55.3871 30.3662 54.7762 29.6826L56.0938 28.1853C56.551 28.6021 57.0504 28.8681 57.5919 28.9833C58.1447 29.0938 58.6802 29.0388 59.1983 28.8184C59.6039 28.6459 59.8865 28.4194 60.0463 28.1388C60.2061 27.8582 60.2236 27.5717 60.0989 27.2792C60.0221 27.0993 59.9091 26.9746 59.7597 26.9052C59.6168 26.8198 59.4441 26.7737 59.2416 26.7668C59.0455 26.7439 58.8397 26.745 58.6242 26.7702L56.9405 26.988C56.0673 27.0936 55.3296 27.002 54.7274 26.7133C54.1364 26.4198 53.7066 25.9581 53.438 25.3282C53.1981 24.7657 53.1302 24.2166 53.2343 23.6806C53.3449 23.1286 53.6032 22.6267 54.0094 22.1749C54.4268 21.7183 54.9678 21.3487 55.6324 21.066C56.4997 20.6971 57.3545 20.5794 58.1966 20.713C59.0387 20.8465 59.7613 21.2302 60.3643 21.8641L59.0129 23.3757C58.6777 23.0266 58.2714 22.8074 57.7942 22.718C57.3169 22.6286 56.8473 22.6821 56.3855 22.8786C56.0138 23.0367 55.7569 23.2456 55.6148 23.5053C55.4728 23.7651 55.4593 24.0299 55.5744 24.2999C55.6464 24.4686 55.7538 24.5957 55.8967 24.6811C56.0396 24.7665 56.2067 24.8151 56.398 24.8267C56.6005 24.8336 56.8232 24.8253 57.066 24.8017L58.7231 24.6152C59.5738 24.5192 60.2978 24.6099 60.8952 24.8874C61.5039 25.1601 61.9474 25.6226 62.2257 26.275C62.4607 26.8262 62.523 27.3778 62.4124 27.9298C62.2971 28.4706 62.0307 28.9692 61.6133 29.4258C61.1959 29.8824 60.638 30.2593 59.9396 30.5563Z" fill="#0B2B3F"/>
<path d="M71.348 19.9162L69.7191 19.0933L70.7386 17.0803L68.5369 16.7259L68.8112 14.9314L71.0098 15.2678L70.6188 12.9531L72.4298 12.648L72.8208 14.9628L74.7872 13.9248L75.6358 15.5301L73.6723 16.5862L75.2967 18.1538L74.0101 19.4678L72.3857 17.9002L71.348 19.9162Z" fill="#0B2B3F"/>
<circle cx="85" cy="85" r="42.5" fill="#0B2B3F"/>
<g clip-path="url(#clip0_844_182)">
<path fill-rule="evenodd" clip-rule="evenodd" d="M93.7541 73.1119C90.5484 76.3177 84.5845 76.1973 81.2439 72.8566L79.8742 71.4869L77.2443 74.1167L78.614 75.4864C81.0439 77.9163 84.3461 79.1725 87.6253 79.2407L71.4007 95.4654L74.1401 98.2048L90.3647 81.9801C90.433 85.2594 91.6892 88.5616 94.119 90.9914L95.4887 92.3611L98.1185 89.7313L96.7488 88.3616C93.4081 85.0209 93.2878 79.0571 96.4935 75.8513L97.8084 74.5364L95.069 71.797L93.7541 73.1119Z" fill="white"/>
</g>
<defs>
<clipPath id="clip0_844_182">
<rect width="39.6667" height="39.6667" fill="white" transform="translate(65.1672 65.166)"/>
</clipPath>
</defs>
</svg>
