<svg width="30" height="30" viewBox="0 0 30 30" fill="none" xmlns="http://www.w3.org/2000/svg">
<path d="M15 28.6929C16.407 28.6929 17.8003 28.4158 19.1002 27.8773C20.4001 27.3389 21.5812 26.5497 22.5761 25.5547C23.5711 24.5598 24.3603 23.3787 24.8987 22.0788C25.4372 20.7789 25.7143 19.3856 25.7143 17.9786V12.0215C25.7144 9.38935 24.7457 6.84929 22.9929 4.88574" stroke="#0B2B3F" stroke-width="1.5" stroke-linecap="round" stroke-linejoin="round"/>
<path d="M4.28613 14.4V17.9786C4.28542 20.0878 4.90725 22.1503 6.0737 23.9076C7.24014 25.6649 8.89932 27.0388 10.8433 27.8572" stroke="#0B2B3F" stroke-width="1.5" stroke-linecap="round" stroke-linejoin="round"/>
<path d="M20.3571 2.74291C17.8963 1.32218 14.9719 0.937162 12.2272 1.67257C9.48245 2.40797 7.14228 4.20356 5.72143 6.66434C5.13638 7.67477 4.7236 8.77552 4.5 9.92149" stroke="#0B2B3F" stroke-width="1.5" stroke-linecap="round" stroke-linejoin="round"/>
<path d="M13.8857 7.52147C14.6739 7.35785 15.4887 7.37321 16.2701 7.56643C17.0515 7.75964 17.7796 8.12578 18.4007 8.63785C19.0217 9.14992 19.5199 9.79486 19.8585 10.5251C20.1972 11.2554 20.3676 12.0523 20.3572 12.8572V16.3072" stroke="#0B2B3F" stroke-width="1.5" stroke-linecap="round" stroke-linejoin="round"/>
<path d="M18.9861 20.8072C18.257 21.6194 17.2973 22.1894 16.2353 22.4412C15.1733 22.6929 14.0598 22.6142 13.0437 22.2157C12.0276 21.8172 11.1575 21.1179 10.5498 20.2113C9.94214 19.3048 9.62584 18.2342 9.64326 17.1429V12.8572C9.63919 12.1212 9.785 11.3921 10.0718 10.7144" stroke="#0B2B3F" stroke-width="1.5" stroke-linecap="round" stroke-linejoin="round"/>
<path d="M15 13.0929V16.6715" stroke="#0B2B3F" stroke-width="1.5" stroke-linecap="round" stroke-linejoin="round"/>
</svg>
