<svg width="86" height="86" viewBox="0 0 86 86" fill="none" xmlns="http://www.w3.org/2000/svg">
<g opacity="0.1">
<path d="M50 81.6428C54.6901 81.6428 59.3342 80.719 63.6673 78.9242C68.0003 77.1294 71.9374 74.4987 75.2538 71.1823C78.5702 67.8659 81.2009 63.9288 82.9957 59.5958C84.7905 55.2627 85.7143 50.6186 85.7143 45.9285V26.0714C85.7148 17.2977 82.4857 8.83081 76.6429 2.28564" stroke="#0B2B3F" stroke-width="1.5" stroke-linecap="round" stroke-linejoin="round"/>
<path d="M14.2856 34V45.9286C14.2833 52.9592 16.356 59.8342 20.2442 65.6918C24.1324 71.5495 29.6629 76.1293 36.1428 78.8571" stroke="#0B2B3F" stroke-width="1.5" stroke-linecap="round" stroke-linejoin="round"/>
<path d="M67.8571 -4.85736C59.6543 -9.59315 49.9062 -10.8765 40.7572 -8.42518C31.6082 -5.97383 23.8076 0.0114636 19.0714 8.21407C17.1213 11.5821 15.7453 15.2513 15 19.0712" stroke="#0B2B3F" stroke-width="1.5" stroke-linecap="round" stroke-linejoin="round"/>
<path d="M46.2856 11.0711C48.9128 10.5257 51.6288 10.5769 54.2335 11.2209C56.8382 11.865 59.2651 13.0855 61.3353 14.7924C63.4056 16.4993 65.0663 18.649 66.195 21.0832C67.3237 23.5174 67.8917 26.1739 67.8571 28.8568V40.3568" stroke="#0B2B3F" stroke-width="1.5" stroke-linecap="round" stroke-linejoin="round"/>
<path d="M63.2858 55.3567C60.8554 58.0639 57.6562 59.9641 54.1163 60.8032C50.5763 61.6423 46.8646 61.3801 43.4777 60.0517C40.0909 58.7234 37.1905 56.3923 35.1648 53.3704C33.1392 50.3485 32.0848 46.78 32.1429 43.1424V28.8567C32.1293 26.4035 32.6154 23.9732 33.5715 21.7139" stroke="#0B2B3F" stroke-width="1.5" stroke-linecap="round" stroke-linejoin="round"/>
<path d="M50 29.6426V41.5711" stroke="#0B2B3F" stroke-width="1.5" stroke-linecap="round" stroke-linejoin="round"/>
</g>
</svg>
