<svg width="30" height="30" viewBox="0 0 30 30" fill="none" xmlns="http://www.w3.org/2000/svg">
<g clip-path="url(#clip0_222_81)">
<path d="M15.0001 28.9284C22.6926 28.9284 28.9287 22.6924 28.9287 14.9999C28.9287 7.30732 22.6926 1.07129 15.0001 1.07129C7.30757 1.07129 1.07153 7.30732 1.07153 14.9999C1.07153 22.6924 7.30757 28.9284 15.0001 28.9284Z" stroke="#0B2B3F" stroke-width="1.5" stroke-linecap="round" stroke-linejoin="round"/>
<path d="M15.0002 1.07129C15.0002 1.07129 6.27878 8.76415 15.0002 14.9999C22.5002 20.357 15.0002 28.9284 15.0002 28.9284" stroke="#0B2B3F" stroke-width="1.5" stroke-linecap="round" stroke-linejoin="round"/>
<path d="M19.2859 11.7857C20.4694 11.7857 21.4288 10.8263 21.4288 9.64286C21.4288 8.45939 20.4694 7.5 19.2859 7.5C18.1025 7.5 17.1431 8.45939 17.1431 9.64286C17.1431 10.8263 18.1025 11.7857 19.2859 11.7857Z" stroke="#0B2B3F" stroke-width="1.5" stroke-linecap="round" stroke-linejoin="round"/>
<path d="M10.7144 22.4996C11.8979 22.4996 12.8572 21.5402 12.8572 20.3567C12.8572 19.1733 11.8979 18.2139 10.7144 18.2139C9.53092 18.2139 8.57153 19.1733 8.57153 20.3567C8.57153 21.5402 9.53092 22.4996 10.7144 22.4996Z" stroke="#0B2B3F" stroke-width="1.5" stroke-linecap="round" stroke-linejoin="round"/>
</g>
<defs>
<clipPath id="clip0_222_81">
<rect width="30" height="30" fill="white"/>
</clipPath>
</defs>
</svg>
