<svg width="30" height="30" viewBox="0 0 30 30" fill="none" xmlns="http://www.w3.org/2000/svg">
<g clip-path="url(#clip0_295_554)">
<path d="M12.857 28.9068C14.0404 28.9068 14.9998 27.9474 14.9998 26.764C14.9998 25.5805 14.0404 24.6211 12.857 24.6211C11.6735 24.6211 10.7141 25.5805 10.7141 26.764C10.7141 27.9474 11.6735 28.9068 12.857 28.9068Z" stroke="#0B2B3F" stroke-width="1.5" stroke-linecap="round" stroke-linejoin="round"/>
<path d="M22.5 28.9068C23.6835 28.9068 24.6429 27.9474 24.6429 26.764C24.6429 25.5805 23.6835 24.6211 22.5 24.6211C21.3166 24.6211 20.3572 25.5805 20.3572 26.764C20.3572 27.9474 21.3166 28.9068 22.5 28.9068Z" stroke="#0B2B3F" stroke-width="1.5" stroke-linecap="round" stroke-linejoin="round"/>
<path d="M17.9571 7.56432C17.6283 6.24334 16.9895 5.01968 16.0937 3.99463C15.198 2.96959 14.0709 2.17264 12.8059 1.66976C11.5409 1.16689 10.1743 0.972542 8.81925 1.10282C7.4642 1.2331 6.15966 1.68425 5.01363 2.41893C3.8676 3.15361 2.91304 4.15069 2.22896 5.32763C1.54489 6.50456 1.15097 7.82751 1.07983 9.18695C1.00869 10.5464 1.26236 11.9032 1.81985 13.1451C2.37734 14.387 3.22261 15.4783 4.28569 16.3286" stroke="#0B2B3F" stroke-width="1.5" stroke-linecap="round" stroke-linejoin="round"/>
<path d="M9.64282 9.66448L12.8571 6.4502" stroke="#0B2B3F" stroke-width="1.5" stroke-linecap="round" stroke-linejoin="round"/>
<path d="M13.9285 20.3567V18.2139H10.7142C9.57754 18.2139 8.48745 18.6654 7.68372 19.4691C6.88 20.2729 6.42847 21.3629 6.42847 22.4996V26.7853" stroke="#0B2B3F" stroke-width="1.5" stroke-linecap="round" stroke-linejoin="round"/>
<path d="M28.9286 26.7644V16.0501C28.9286 15.4818 28.7028 14.9367 28.301 14.5349C27.8991 14.133 27.3541 13.9072 26.7857 13.9072H16.0714C15.5031 13.9072 14.9581 14.133 14.5562 14.5349C14.1544 14.9367 13.9286 15.4818 13.9286 16.0501V20.3358" stroke="#0B2B3F" stroke-width="1.5" stroke-linecap="round" stroke-linejoin="round"/>
</g>
<defs>
<clipPath id="clip0_295_554">
<rect width="30" height="30" fill="white"/>
</clipPath>
</defs>
</svg>
