<svg width="30" height="30" viewBox="0 0 30 30" fill="none" xmlns="http://www.w3.org/2000/svg">
<g clip-path="url(#clip0_541_958)">
<path d="M26.7856 1.07141H3.21415C2.03068 1.07141 1.07129 2.0308 1.07129 3.21427V26.7857C1.07129 27.9692 2.03068 28.9286 3.21415 28.9286H26.7856C27.969 28.9286 28.9284 27.9692 28.9284 26.7857V3.21427C28.9284 2.0308 27.969 1.07141 26.7856 1.07141Z" stroke="#0B2B3F" stroke-width="1.5" stroke-linecap="round" stroke-linejoin="round"/>
<path d="M11.7642 22.6286V14.4214C11.7701 14.2953 11.807 14.1726 11.8715 14.064C11.936 13.9555 12.0261 13.8644 12.134 13.7988C12.2419 13.7332 12.3643 13.6951 12.4903 13.6879C12.6164 13.6806 12.7423 13.7044 12.857 13.7571L19.9713 17.85C20.0865 17.921 20.1816 18.0203 20.2476 18.1384C20.3136 18.2566 20.3482 18.3897 20.3482 18.525C20.3482 18.6603 20.3136 18.7934 20.2476 18.9116C20.1816 19.0297 20.0865 19.129 19.9713 19.2L12.857 23.3143C12.7403 23.3623 12.6138 23.3817 12.4881 23.3709C12.3624 23.3602 12.2411 23.3196 12.1342 23.2526C12.0273 23.1855 11.938 23.0939 11.8736 22.9854C11.8093 22.8768 11.7717 22.7545 11.7642 22.6286V22.6286Z" stroke="#0B2B3F" stroke-width="1.5" stroke-linecap="round" stroke-linejoin="round"/>
<path d="M1.07129 8.57141H28.9284" stroke="#0B2B3F" stroke-width="1.5" stroke-linecap="round" stroke-linejoin="round"/>
<path d="M8.57129 8.57141L11.7856 1.07141" stroke="#0B2B3F" stroke-width="1.5" stroke-linecap="round" stroke-linejoin="round"/>
<path d="M18.2144 8.57141L21.4286 1.07141" stroke="#0B2B3F" stroke-width="1.5" stroke-linecap="round" stroke-linejoin="round"/>
</g>
<defs>
<clipPath id="clip0_541_958">
<rect width="30" height="30" fill="white"/>
</clipPath>
</defs>
</svg>
