<svg width="50" height="50" viewBox="0 0 50 50" fill="none" xmlns="http://www.w3.org/2000/svg">
<path d="M21.4289 48.178C23.4013 48.178 25.0003 46.579 25.0003 44.6066C25.0003 42.6341 23.4013 41.0352 21.4289 41.0352C19.4564 41.0352 17.8574 42.6341 17.8574 44.6066C17.8574 46.579 19.4564 48.178 21.4289 48.178Z" stroke="#FBE87E" stroke-width="1.5" stroke-linecap="round" stroke-linejoin="round"/>
<path d="M37.5001 48.178C39.4726 48.178 41.0716 46.579 41.0716 44.6066C41.0716 42.6341 39.4726 41.0352 37.5001 41.0352C35.5277 41.0352 33.9287 42.6341 33.9287 44.6066C33.9287 46.579 35.5277 48.178 37.5001 48.178Z" stroke="#FBE87E" stroke-width="1.5" stroke-linecap="round" stroke-linejoin="round"/>
<path d="M29.9286 12.6062C29.3805 10.4046 28.316 8.36515 26.823 6.65674C25.33 4.94833 23.4516 3.62009 21.3433 2.78196C19.2349 1.94383 16.9572 1.61993 14.6988 1.83706C12.4404 2.05419 10.2662 2.80611 8.35613 4.03058C6.44608 5.25504 4.85515 6.91684 3.71502 8.8784C2.57489 10.84 1.91837 13.0449 1.7998 15.3106C1.68122 17.5763 2.10401 19.8377 3.03316 21.9076C3.96231 23.9774 5.3711 25.7962 7.1429 27.2134" stroke="#FBE87E" stroke-width="1.5" stroke-linecap="round" stroke-linejoin="round"/>
<path d="M16.0713 16.1071L21.4284 10.75" stroke="#FBE87E" stroke-width="1.5" stroke-linecap="round" stroke-linejoin="round"/>
<path d="M23.2144 33.9269V30.3555H17.8572C15.9628 30.3555 14.146 31.108 12.8064 32.4476C11.4669 33.7871 10.7144 35.6039 10.7144 37.4983V44.6412" stroke="#FBE87E" stroke-width="1.5" stroke-linecap="round" stroke-linejoin="round"/>
<path d="M48.2144 44.6063V26.7492C48.2144 25.802 47.8381 24.8936 47.1683 24.2238C46.4985 23.554 45.5901 23.1777 44.6429 23.1777H26.7858C25.8386 23.1777 24.9302 23.554 24.2604 24.2238C23.5906 24.8936 23.2144 25.802 23.2144 26.7492V33.892" stroke="#FBE87E" stroke-width="1.5" stroke-linecap="round" stroke-linejoin="round"/>
</svg>
