<svg width="30" height="30" viewBox="0 0 30 30" fill="none" xmlns="http://www.w3.org/2000/svg">
<path d="M11.207 4.82144L12.1284 2.44287C12.2838 2.04015 12.5572 1.69375 12.9128 1.44904C13.2684 1.20433 13.6896 1.07272 14.1213 1.07144H15.8784C16.3101 1.07272 16.7313 1.20433 17.0869 1.44904C17.4425 1.69375 17.7159 2.04015 17.8713 2.44287L18.7927 4.82144L21.9213 6.62144L24.4499 6.23573C24.8709 6.17858 25.2994 6.24789 25.681 6.43485C26.0625 6.62181 26.3799 6.91798 26.5927 7.28573L27.4499 8.78573C27.6695 9.15933 27.7707 9.59075 27.7401 10.0231C27.7095 10.4554 27.5485 10.8682 27.2784 11.2072L25.7142 13.2V16.8L27.3213 18.7929C27.5914 19.1318 27.7523 19.5447 27.783 19.977C27.8136 20.4093 27.7124 20.8407 27.4927 21.2143L26.6356 22.7143C26.4227 23.082 26.1054 23.3782 25.7238 23.5652C25.3423 23.7521 24.9138 23.8214 24.4927 23.7643L21.9642 23.3786L18.8356 25.1786L17.9141 27.5572C17.7588 27.9599 17.4854 28.3063 17.1298 28.551C16.7742 28.7957 16.353 28.9273 15.9213 28.9286H14.1213C13.6896 28.9273 13.2684 28.7957 12.9128 28.551C12.5572 28.3063 12.2838 27.9599 12.1284 27.5572L11.207 25.1786L8.07844 23.3786L5.54986 23.7643C5.12883 23.8214 4.70031 23.7521 4.31875 23.5652C3.9372 23.3782 3.61984 23.082 3.40701 22.7143L2.54986 21.2143C2.33022 20.8407 2.22903 20.4093 2.25963 19.977C2.29024 19.5447 2.45121 19.1318 2.72129 18.7929L4.28558 16.8V13.2L2.67843 11.2072C2.40835 10.8682 2.24738 10.4554 2.21678 10.0231C2.18617 9.59075 2.28737 9.15933 2.50701 8.78573L3.36415 7.28573C3.57699 6.91798 3.89434 6.62181 4.2759 6.43485C4.65745 6.24789 5.08597 6.17858 5.50701 6.23573L8.03558 6.62144L11.207 4.82144ZM10.7141 15C10.7141 15.8476 10.9655 16.6762 11.4364 17.381C11.9073 18.0858 12.5767 18.6351 13.3598 18.9595C14.1429 19.2839 15.0046 19.3687 15.836 19.2034C16.6673 19.038 17.431 18.6298 18.0303 18.0305C18.6297 17.4311 19.0379 16.6675 19.2032 15.8361C19.3686 15.0048 19.2837 14.1431 18.9593 13.3599C18.635 12.5768 18.0857 11.9075 17.3809 11.4366C16.6761 10.9657 15.8475 10.7143 14.9999 10.7143C13.8632 10.7143 12.7731 11.1658 11.9694 11.9696C11.1657 12.7733 10.7141 13.8634 10.7141 15V15Z" stroke="#0B2B3F" stroke-width="1.5" stroke-linecap="round" stroke-linejoin="round"/>
</svg>
