<svg width="30" height="30" viewBox="0 0 30 30" fill="none" xmlns="http://www.w3.org/2000/svg">
<g clip-path="url(#clip0_130_893)">
<path d="M26.7858 1.07143H3.21439C2.03092 1.07143 1.07153 2.03082 1.07153 3.21428V26.7857C1.07153 27.9692 2.03092 28.9286 3.21439 28.9286H26.7858C27.9693 28.9286 28.9287 27.9692 28.9287 26.7857V3.21428C28.9287 2.03082 27.9693 1.07143 26.7858 1.07143Z" stroke="#0B2B3F" stroke-width="1.5" stroke-linecap="round" stroke-linejoin="round"/>
<path d="M11.7644 22.6286V14.4214C11.7704 14.2953 11.8073 14.1726 11.8717 14.064C11.9362 13.9555 12.0264 13.8644 12.1343 13.7988C12.2422 13.7332 12.3645 13.6951 12.4906 13.6879C12.6166 13.6806 12.7425 13.7044 12.8573 13.7571L19.9715 17.85C20.0868 17.921 20.1819 18.0203 20.2479 18.1384C20.3138 18.2566 20.3485 18.3897 20.3485 18.525C20.3485 18.6603 20.3138 18.7934 20.2479 18.9116C20.1819 19.0297 20.0868 19.129 19.9715 19.2L12.8573 23.3143C12.7406 23.3623 12.6141 23.3817 12.4884 23.3709C12.3627 23.3602 12.2413 23.3196 12.1344 23.2526C12.0276 23.1855 11.9382 23.0939 11.8739 22.9854C11.8095 22.8768 11.772 22.7545 11.7644 22.6286V22.6286Z" stroke="#0B2B3F" stroke-width="1.5" stroke-linecap="round" stroke-linejoin="round"/>
<path d="M1.07153 8.57143H28.9287" stroke="#0B2B3F" stroke-width="1.5" stroke-linecap="round" stroke-linejoin="round"/>
<path d="M8.57153 8.57143L11.7858 1.07143" stroke="#0B2B3F" stroke-width="1.5" stroke-linecap="round" stroke-linejoin="round"/>
<path d="M18.2144 8.57143L21.4286 1.07143" stroke="#0B2B3F" stroke-width="1.5" stroke-linecap="round" stroke-linejoin="round"/>
</g>
<defs>
<clipPath id="clip0_130_893">
<rect width="30" height="30" fill="white"/>
</clipPath>
</defs>
</svg>
