<svg width="30" height="30" viewBox="0 0 30 30" fill="none" xmlns="http://www.w3.org/2000/svg">
<path d="M11.2075 4.82141L12.1289 2.44284C12.2843 2.04012 12.5577 1.69372 12.9133 1.44901C13.2689 1.2043 13.6901 1.07269 14.1218 1.07141H15.8789C16.3106 1.07269 16.7318 1.2043 17.0874 1.44901C17.443 1.69372 17.7164 2.04012 17.8718 2.44284L18.7932 4.82141L21.9218 6.62141L24.4504 6.2357C24.8714 6.17855 25.2999 6.24786 25.6815 6.43482C26.063 6.62178 26.3804 6.91795 26.5932 7.2857L27.4504 8.7857C27.67 9.1593 27.7712 9.59072 27.7406 10.023C27.71 10.4553 27.549 10.8682 27.2789 11.2071L25.7146 13.2V16.8L27.3218 18.7928C27.5919 19.1318 27.7528 19.5446 27.7834 19.9769C27.814 20.4092 27.7129 20.8407 27.4932 21.2143L26.6361 22.7143C26.4232 23.082 26.1059 23.3782 25.7243 23.5651C25.3428 23.7521 24.9142 23.8214 24.4932 23.7643L21.9646 23.3786L18.8361 25.1786L17.9146 27.5571C17.7592 27.9598 17.4858 28.3062 17.1302 28.551C16.7747 28.7957 16.3534 28.9273 15.9218 28.9286H14.1218C13.6901 28.9273 13.2689 28.7957 12.9133 28.551C12.5577 28.3062 12.2843 27.9598 12.1289 27.5571L11.2075 25.1786L8.07892 23.3786L5.55035 23.7643C5.12932 23.8214 4.70079 23.7521 4.31924 23.5651C3.93769 23.3782 3.62033 23.082 3.40749 22.7143L2.55035 21.2143C2.33071 20.8407 2.22952 20.4092 2.26012 19.9769C2.29073 19.5446 2.4517 19.1318 2.72178 18.7928L4.28607 16.8V13.2L2.67892 11.2071C2.40884 10.8682 2.24787 10.4553 2.21727 10.023C2.18666 9.59072 2.28785 9.1593 2.50749 8.7857L3.36464 7.2857C3.57747 6.91795 3.89483 6.62178 4.27638 6.43482C4.65794 6.24786 5.08646 6.17855 5.50749 6.2357L8.03607 6.62141L11.2075 4.82141ZM10.7146 15C10.7146 15.8476 10.966 16.6762 11.4369 17.381C11.9078 18.0858 12.5772 18.6351 13.3603 18.9595C14.1434 19.2838 15.0051 19.3687 15.8365 19.2033C16.6678 19.038 17.4314 18.6298 18.0308 18.0304C18.6302 17.4311 19.0384 16.6674 19.2037 15.8361C19.3691 15.0047 19.2842 14.143 18.9598 13.3599C18.6355 12.5768 18.0861 11.9075 17.3814 11.4365C16.6766 10.9656 15.848 10.7143 15.0004 10.7143C13.8637 10.7143 12.7736 11.1658 11.9699 11.9695C11.1662 12.7733 10.7146 13.8633 10.7146 15V15Z" stroke="#0B2B3F" stroke-width="1.5" stroke-linecap="round" stroke-linejoin="round"/>
</svg>
