<svg width="30" height="30" viewBox="0 0 30 30" fill="none" xmlns="http://www.w3.org/2000/svg">
<path d="M9.64272 27.8571C14.3766 27.8571 18.2141 24.0195 18.2141 19.2857C18.2141 14.5518 14.3766 10.7142 9.64272 10.7142C4.90885 10.7142 1.07129 14.5518 1.07129 19.2857C1.07129 24.0195 4.90885 27.8571 9.64272 27.8571Z" stroke="#0B2B3F" stroke-width="1.5" stroke-linecap="round" stroke-linejoin="round"/>
<path d="M20.3566 27.8571C25.0905 27.8571 28.928 24.0195 28.928 19.2857C28.928 14.5518 25.0905 10.7142 20.3566 10.7142C15.6227 10.7142 11.7852 14.5518 11.7852 19.2857C11.7852 24.0195 15.6227 27.8571 20.3566 27.8571Z" stroke="#0B2B3F" stroke-width="1.5" stroke-linecap="round" stroke-linejoin="round"/>
<path d="M15.0001 19.2857C19.734 19.2857 23.5716 15.4481 23.5716 10.7143C23.5716 5.98038 19.734 2.14282 15.0001 2.14282C10.2663 2.14282 6.42871 5.98038 6.42871 10.7143C6.42871 15.4481 10.2663 19.2857 15.0001 19.2857Z" stroke="#0B2B3F" stroke-width="1.5" stroke-linecap="round" stroke-linejoin="round"/>
</svg>
