<svg width="30" height="30" viewBox="0 0 30 30" fill="none" xmlns="http://www.w3.org/2000/svg">
<g clip-path="url(#clip0_130_967)">
<path d="M18.2141 10.7139C19.3976 10.7139 20.357 9.75455 20.357 8.57108C20.357 7.38761 19.3976 6.42822 18.2141 6.42822C17.0307 6.42822 16.0713 7.38761 16.0713 8.57108C16.0713 9.75455 17.0307 10.7139 18.2141 10.7139Z" stroke="#0B2B3F" stroke-width="1.5" stroke-linecap="round" stroke-linejoin="round"/>
<path d="M9.64272 21.4285C10.2345 21.4285 10.7141 20.9488 10.7141 20.3571C10.7141 19.7653 10.2345 19.2856 9.64272 19.2856C9.05098 19.2856 8.57129 19.7653 8.57129 20.3571C8.57129 20.9488 9.05098 21.4285 9.64272 21.4285Z" stroke="#0B2B3F" stroke-width="1.5" stroke-linecap="round" stroke-linejoin="round"/>
<path d="M9.64286 13.9283C10.8263 13.9283 11.7857 12.9689 11.7857 11.7854C11.7857 10.602 10.8263 9.64258 9.64286 9.64258C8.45939 9.64258 7.5 10.602 7.5 11.7854C7.5 12.9689 8.45939 13.9283 9.64286 13.9283Z" stroke="#0B2B3F" stroke-width="1.5" stroke-linecap="round" stroke-linejoin="round"/>
<path d="M20.4 26.3141C20.3761 25.8985 20.2316 25.4988 19.9843 25.1639C19.7369 24.829 19.3973 24.5735 19.0071 24.4284C18.0379 24.1099 17.2141 23.456 16.6839 22.5844C16.1536 21.7129 15.9517 20.6807 16.1144 19.6735C16.2771 18.6664 16.7937 17.7503 17.5714 17.09C18.3491 16.4297 19.3369 16.0685 20.3571 16.0713H24.3642C25.0515 16.0732 25.7292 15.9098 26.34 15.5949C26.9509 15.2799 27.4771 14.8227 27.8742 14.2617C28.2713 13.7008 28.5276 13.0525 28.6216 12.3717C28.7156 11.6909 28.6445 10.9974 28.4142 10.3499C27.5619 7.94337 26.0646 5.81741 24.0859 4.20425C22.1072 2.59109 19.7231 1.5528 17.1943 1.20281C14.6654 0.852813 12.089 1.20459 9.74653 2.21969C7.40405 3.2348 5.38562 4.87418 3.91177 6.95874C2.43791 9.0433 1.56532 11.4928 1.38934 14.0397C1.21335 16.5866 1.74075 19.1329 2.91389 21.4004C4.08704 23.6678 5.86081 25.5692 8.04141 26.8969C10.222 28.2245 12.7256 28.9273 15.2785 28.9284C16.5393 28.932 17.7943 28.7588 19.0071 28.4141C19.4525 28.2893 19.8382 28.0086 20.0939 27.6231C20.3496 27.2376 20.4582 26.773 20.4 26.3141V26.3141Z" stroke="#0B2B3F" stroke-width="1.5" stroke-linecap="round" stroke-linejoin="round"/>
</g>
<defs>
<clipPath id="clip0_130_967">
<rect width="30" height="30" fill="white"/>
</clipPath>
</defs>
</svg>
