<svg width="24" height="24" viewBox="0 0 24 24" fill="none" xmlns="http://www.w3.org/2000/svg">
<g clip-path="url(#clip0_462_3463)">
<path d="M12.806 11.8268C12.5518 11.9372 12.2775 11.9941 12.0003 11.9941C11.7231 11.9941 11.4489 11.9372 11.1946 11.8268L1.42318 7.30105C1.26451 7.22102 1.13117 7.09851 1.038 6.94718C0.944837 6.79584 0.895508 6.62162 0.895508 6.4439C0.895508 6.26619 0.944837 6.09197 1.038 5.94063C1.13117 5.7893 1.26451 5.66679 1.42318 5.58676L11.1946 1.02676C11.4489 0.916349 11.7231 0.859375 12.0003 0.859375C12.2775 0.859375 12.5518 0.916349 12.806 1.02676L22.5775 5.55247C22.7361 5.63251 22.8695 5.75501 22.9626 5.90634C23.0558 6.05768 23.1051 6.2319 23.1051 6.40962C23.1051 6.58733 23.0558 6.76156 22.9626 6.91289C22.8695 7.06422 22.7361 7.18673 22.5775 7.26676L12.806 11.8268Z" stroke="#FBE87E" stroke-width="1.5" stroke-linecap="round" stroke-linejoin="round"/>
<path d="M23.1431 12.5977L12.686 17.4148C12.4627 17.5167 12.22 17.5694 11.9746 17.5694C11.7291 17.5694 11.4865 17.5167 11.2631 17.4148L0.857422 12.5977" stroke="#FBE87E" stroke-width="1.5" stroke-linecap="round" stroke-linejoin="round"/>
<path d="M23.1431 18.168L12.686 22.9851C12.4627 23.087 12.22 23.1397 11.9746 23.1397C11.7291 23.1397 11.4865 23.087 11.2631 22.9851L0.857422 18.168" stroke="#FBE87E" stroke-width="1.5" stroke-linecap="round" stroke-linejoin="round"/>
</g>
<defs>
<clipPath id="clip0_462_3463">
<rect width="24" height="24" fill="white"/>
</clipPath>
</defs>
</svg>
