<svg width="30" height="30" viewBox="0 0 30 30" fill="none" xmlns="http://www.w3.org/2000/svg">
<g clip-path="url(#clip0_462_3284)">
<path d="M14.9999 28.9294C22.6924 28.9294 28.9284 22.6934 28.9284 15.0008C28.9284 7.3083 22.6924 1.07227 14.9999 1.07227C7.30732 1.07227 1.07129 7.3083 1.07129 15.0008C1.07129 22.6934 7.30732 28.9294 14.9999 28.9294Z" stroke="#0B2B3F" stroke-width="1.5" stroke-linecap="round" stroke-linejoin="round"/>
<path d="M15 1.07227C15 1.07227 6.27854 8.76512 15 15.0008C22.5 20.358 15 28.9294 15 28.9294" stroke="#0B2B3F" stroke-width="1.5" stroke-linecap="round" stroke-linejoin="round"/>
<path d="M19.2854 11.7857C20.4689 11.7857 21.4283 10.8263 21.4283 9.64286C21.4283 8.45939 20.4689 7.5 19.2854 7.5C18.102 7.5 17.1426 8.45939 17.1426 9.64286C17.1426 10.8263 18.102 11.7857 19.2854 11.7857Z" stroke="#0B2B3F" stroke-width="1.5" stroke-linecap="round" stroke-linejoin="round"/>
<path d="M10.7141 22.5006C11.8976 22.5006 12.857 21.5412 12.857 20.3577C12.857 19.1742 11.8976 18.2148 10.7141 18.2148C9.53068 18.2148 8.57129 19.1742 8.57129 20.3577C8.57129 21.5412 9.53068 22.5006 10.7141 22.5006Z" stroke="#0B2B3F" stroke-width="1.5" stroke-linecap="round" stroke-linejoin="round"/>
</g>
<defs>
<clipPath id="clip0_462_3284">
<rect width="30" height="30" fill="white"/>
</clipPath>
</defs>
</svg>
