<svg width="30" height="30" viewBox="0 0 30 30" fill="none" xmlns="http://www.w3.org/2000/svg">
<path d="M11.2075 4.82227L12.1289 2.44369C12.2843 2.04097 12.5577 1.69457 12.9133 1.44986C13.2689 1.20515 13.6901 1.07354 14.1218 1.07227H15.8789C16.3106 1.07354 16.7318 1.20515 17.0874 1.44986C17.443 1.69457 17.7164 2.04097 17.8718 2.44369L18.7932 4.82227L21.9218 6.62227L24.4504 6.23655C24.8714 6.1794 25.2999 6.24871 25.6815 6.43567C26.063 6.62263 26.3804 6.9188 26.5932 7.28655L27.4504 8.78655C27.67 9.16016 27.7712 9.59158 27.7406 10.0239C27.71 10.4562 27.549 10.869 27.2789 11.208L25.7146 13.2008V16.8008L27.3218 18.7937C27.5919 19.1326 27.7528 19.5455 27.7834 19.9778C27.814 20.4101 27.7129 20.8415 27.4932 21.2151L26.6361 22.7151C26.4232 23.0829 26.1059 23.379 25.7243 23.566C25.3428 23.753 24.9142 23.8223 24.4932 23.7651L21.9646 23.3794L18.8361 25.1794L17.9146 27.558C17.7592 27.9607 17.4858 28.3071 17.1302 28.5518C16.7747 28.7965 16.3534 28.9281 15.9218 28.9294H14.1218C13.6901 28.9281 13.2689 28.7965 12.9133 28.5518C12.5577 28.3071 12.2843 27.9607 12.1289 27.558L11.2075 25.1794L8.07892 23.3794L5.55035 23.7651C5.12932 23.8223 4.70079 23.753 4.31924 23.566C3.93769 23.379 3.62033 23.0829 3.40749 22.7151L2.55035 21.2151C2.33071 20.8415 2.22952 20.4101 2.26012 19.9778C2.29073 19.5455 2.4517 19.1326 2.72178 18.7937L4.28607 16.8008V13.2008L2.67892 11.208C2.40884 10.869 2.24787 10.4562 2.21727 10.0239C2.18666 9.59158 2.28785 9.16016 2.50749 8.78655L3.36464 7.28655C3.57747 6.9188 3.89483 6.62263 4.27638 6.43567C4.65794 6.24871 5.08646 6.1794 5.50749 6.23655L8.03607 6.62227L11.2075 4.82227ZM10.7146 15.0008C10.7146 15.8485 10.966 16.6771 11.4369 17.3819C11.9078 18.0866 12.5772 18.6359 13.3603 18.9603C14.1434 19.2847 15.0051 19.3696 15.8365 19.2042C16.6678 19.0388 17.4314 18.6307 18.0308 18.0313C18.6302 17.4319 19.0384 16.6683 19.2037 15.8369C19.3691 15.0056 19.2842 14.1439 18.9598 13.3608C18.6355 12.5777 18.0861 11.9083 17.3814 11.4374C16.6766 10.9665 15.848 10.7151 15.0004 10.7151C13.8637 10.7151 12.7736 11.1667 11.9699 11.9704C11.1662 12.7741 10.7146 13.8642 10.7146 15.0008V15.0008Z" stroke="#0B2B3F" stroke-width="1.5" stroke-linecap="round" stroke-linejoin="round"/>
</svg>
