<svg width="60" height="60" viewBox="0 0 60 60" fill="none" xmlns="http://www.w3.org/2000/svg">
<g clip-path="url(#clip0_812_72)">
<path d="M6.42854 25.7144H10.7143C11.2826 25.7144 11.8276 25.9401 12.2295 26.342C12.6313 26.7438 12.8571 27.2889 12.8571 27.8572V38.5715C12.8571 39.1398 12.6313 39.6849 12.2295 40.0867C11.8276 40.4886 11.2826 40.7144 10.7143 40.7144H6.42854C5.29189 40.7144 4.20181 40.2628 3.39808 39.4591C2.59435 38.6554 2.14282 37.5653 2.14282 36.4286V30.0001C2.14282 28.8634 2.59435 27.7733 3.39808 26.9696C4.20181 26.1659 5.29189 25.7144 6.42854 25.7144V25.7144Z" stroke="#0B2B3F" stroke-width="2.5" stroke-linecap="round" stroke-linejoin="round"/>
<path d="M53.5713 40.7144H49.2856C48.7173 40.7144 48.1723 40.4886 47.7704 40.0867C47.3685 39.6849 47.1428 39.1398 47.1428 38.5715V27.8572C47.1428 27.2889 47.3685 26.7438 47.7704 26.342C48.1723 25.9401 48.7173 25.7144 49.2856 25.7144H53.5713C54.708 25.7144 55.7981 26.1659 56.6018 26.9696C57.4055 27.7733 57.8571 28.8634 57.8571 30.0001V36.4286C57.8571 37.5653 57.4055 38.6554 56.6018 39.4591C55.7981 40.2628 54.708 40.7144 53.5713 40.7144V40.7144Z" stroke="#0B2B3F" stroke-width="2.5" stroke-linecap="round" stroke-linejoin="round"/>
<path d="M40.7142 52.5001C42.9875 52.5001 45.1677 51.597 46.7751 49.9896C48.3826 48.3821 49.2857 46.2019 49.2857 43.9286V40.7144" stroke="#0B2B3F" stroke-width="2.5" stroke-linecap="round" stroke-linejoin="round"/>
<path d="M35.3571 47.1428C36.7779 47.1428 38.1405 47.7072 39.1452 48.7119C40.1499 49.7166 40.7143 51.0792 40.7143 52.5C40.7143 53.9208 40.1499 55.2834 39.1452 56.288C38.1405 57.2927 36.7779 57.8571 35.3571 57.8571H28.9286C27.5078 57.8571 26.1451 57.2927 25.1405 56.288C24.1358 55.2834 23.5714 53.9208 23.5714 52.5C23.5714 51.0792 24.1358 49.7166 25.1405 48.7119C26.1451 47.7072 27.5078 47.1428 28.9286 47.1428H35.3571Z" stroke="#0B2B3F" stroke-width="2.5" stroke-linecap="round" stroke-linejoin="round"/>
<path d="M10.7142 25.7143V21.4285C10.7142 16.3136 12.7461 11.4082 16.3629 7.79148C19.9797 4.1747 24.8851 2.14282 29.9999 2.14282C35.1148 2.14282 40.0202 4.1747 43.637 7.79148C47.2538 11.4082 49.2857 16.3136 49.2857 21.4285V25.7143" stroke="#0B2B3F" stroke-width="2.5" stroke-linecap="round" stroke-linejoin="round"/>
<path d="M23.5714 17.1428V23.5714" stroke="#0B2B3F" stroke-width="2.5" stroke-linecap="round" stroke-linejoin="round"/>
<path d="M36.4286 17.1428V23.5714" stroke="#0B2B3F" stroke-width="2.5" stroke-linecap="round" stroke-linejoin="round"/>
<path d="M23.5714 32.1428C23.5714 37.8428 36.4286 37.8428 36.4286 32.1428" stroke="#0B2B3F" stroke-width="2.5" stroke-linecap="round" stroke-linejoin="round"/>
</g>
<defs>
<clipPath id="clip0_812_72">
<rect width="60" height="60" fill="white"/>
</clipPath>
</defs>
</svg>
