<svg width="30" height="30" viewBox="0 0 30 30" fill="none" xmlns="http://www.w3.org/2000/svg">
<path d="M11.207 4.82227L12.1284 2.44369C12.2838 2.04097 12.5572 1.69457 12.9128 1.44986C13.2684 1.20515 13.6896 1.07354 14.1213 1.07227H15.8784C16.3101 1.07354 16.7313 1.20515 17.0869 1.44986C17.4425 1.69457 17.7159 2.04097 17.8713 2.44369L18.7927 4.82227L21.9213 6.62227L24.4499 6.23655C24.8709 6.1794 25.2994 6.24871 25.681 6.43567C26.0625 6.62263 26.3799 6.9188 26.5927 7.28655L27.4499 8.78655C27.6695 9.16016 27.7707 9.59158 27.7401 10.0239C27.7095 10.4562 27.5485 10.869 27.2784 11.208L25.7142 13.2008V16.8008L27.3213 18.7937C27.5914 19.1326 27.7523 19.5455 27.783 19.9778C27.8136 20.4101 27.7124 20.8415 27.4927 21.2151L26.6356 22.7151C26.4227 23.0829 26.1054 23.379 25.7238 23.566C25.3423 23.753 24.9138 23.8223 24.4927 23.7651L21.9642 23.3794L18.8356 25.1794L17.9141 27.558C17.7588 27.9607 17.4854 28.3071 17.1298 28.5518C16.7742 28.7965 16.353 28.9281 15.9213 28.9294H14.1213C13.6896 28.9281 13.2684 28.7965 12.9128 28.5518C12.5572 28.3071 12.2838 27.9607 12.1284 27.558L11.207 25.1794L8.07844 23.3794L5.54986 23.7651C5.12883 23.8223 4.70031 23.753 4.31875 23.566C3.9372 23.379 3.61984 23.0829 3.40701 22.7151L2.54986 21.2151C2.33022 20.8415 2.22903 20.4101 2.25963 19.9778C2.29024 19.5455 2.45121 19.1326 2.72129 18.7937L4.28558 16.8008V13.2008L2.67843 11.208C2.40835 10.869 2.24738 10.4562 2.21678 10.0239C2.18617 9.59158 2.28737 9.16016 2.50701 8.78655L3.36415 7.28655C3.57699 6.9188 3.89434 6.62263 4.2759 6.43567C4.65745 6.24871 5.08597 6.1794 5.50701 6.23655L8.03558 6.62227L11.207 4.82227ZM10.7141 15.0008C10.7141 15.8485 10.9655 16.6771 11.4364 17.3819C11.9073 18.0866 12.5767 18.6359 13.3598 18.9603C14.1429 19.2847 15.0046 19.3696 15.836 19.2042C16.6673 19.0388 17.431 18.6307 18.0303 18.0313C18.6297 17.4319 19.0379 16.6683 19.2032 15.8369C19.3686 15.0056 19.2837 14.1439 18.9593 13.3608C18.635 12.5777 18.0857 11.9083 17.3809 11.4374C16.6761 10.9665 15.8475 10.7151 14.9999 10.7151C13.8632 10.7151 12.7731 11.1667 11.9694 11.9704C11.1657 12.7741 10.7141 13.8642 10.7141 15.0008V15.0008Z" stroke="#0B2B3F" stroke-width="1.5" stroke-linecap="round" stroke-linejoin="round"/>
</svg>
