<svg width="24" height="24" viewBox="0 0 24 24" fill="none" xmlns="http://www.w3.org/2000/svg">
<path d="M8.96575 3.85547L9.70289 1.95261C9.82721 1.63044 10.0459 1.35332 10.3304 1.15755C10.6149 0.961778 10.9519 0.856489 11.2972 0.855469H12.7029C13.0482 0.856489 13.3852 0.961778 13.6697 1.15755C13.9541 1.35332 14.1729 1.63044 14.2972 1.95261L15.0343 3.85547L17.5372 5.29547L19.56 4.9869C19.8969 4.94118 20.2397 4.99663 20.5449 5.14619C20.8502 5.29576 21.1041 5.5327 21.2743 5.8269L21.96 7.0269C22.1357 7.32578 22.2167 7.67092 22.1922 8.01676C22.1677 8.3626 22.039 8.69289 21.8229 8.96404L20.5715 10.5583V13.4383L21.8572 15.0326C22.0732 15.3038 22.202 15.634 22.2265 15.9799C22.251 16.3257 22.17 16.6709 21.9943 16.9698L21.3086 18.1698C21.1383 18.464 20.8845 18.7009 20.5792 18.8505C20.274 19 19.9312 19.0555 19.5943 19.0098L17.5715 18.7012L15.0686 20.1412L14.3315 22.044C14.2071 22.3662 13.9884 22.6433 13.704 22.8391C13.4195 23.0349 13.0825 23.1402 12.7372 23.1412H11.2972C10.9519 23.1402 10.6149 23.0349 10.3304 22.8391C10.0459 22.6433 9.82721 22.3662 9.70289 22.044L8.96575 20.1412L6.46289 18.7012L4.44004 19.0098C4.10321 19.0555 3.76039 19 3.45515 18.8505C3.14991 18.7009 2.89602 18.464 2.72575 18.1698L2.04004 16.9698C1.86433 16.6709 1.78337 16.3257 1.80785 15.9799C1.83234 15.634 1.96111 15.3038 2.17718 15.0326L3.42861 13.4383V10.5583L2.14289 8.96404C1.92683 8.69289 1.79805 8.3626 1.77357 8.01676C1.74908 7.67092 1.83004 7.32578 2.00575 7.0269L2.69147 5.8269C2.86173 5.5327 3.11562 5.29576 3.42086 5.14619C3.72611 4.99663 4.06892 4.94118 4.40575 4.9869L6.42861 5.29547L8.96575 3.85547ZM8.57147 11.9983C8.57147 12.6764 8.77255 13.3393 9.14928 13.9031C9.52602 14.467 10.0615 14.9064 10.688 15.1659C11.3145 15.4254 12.0038 15.4933 12.6689 15.361C13.334 15.2287 13.9449 14.9022 14.4244 14.4227C14.9039 13.9432 15.2304 13.3323 15.3627 12.6672C15.495 12.0021 15.4271 11.3128 15.1676 10.6863C14.9081 10.0598 14.4687 9.52431 13.9048 9.14757C13.341 8.77084 12.6781 8.56975 12 8.56975C11.0907 8.56975 10.2187 8.93098 9.57567 9.57396C8.93269 10.2169 8.57147 11.089 8.57147 11.9983V11.9983Z" stroke="#FBE87E" stroke-width="1.5" stroke-linecap="round" stroke-linejoin="round"/>
</svg>
