<svg width="20" height="20" viewBox="0 0 20 20" fill="none" xmlns="http://www.w3.org/2000/svg">
<g clip-path="url(#clip0_986_121)">
<path d="M15.8064 12.3887C15.397 11.9624 14.9031 11.7344 14.3797 11.7344C13.8605 11.7344 13.3624 11.9581 12.936 12.3845L11.6022 13.7141C11.4924 13.655 11.3827 13.6002 11.2771 13.5453C11.1252 13.4693 10.9816 13.3975 10.8592 13.3216C9.60978 12.528 8.47429 11.4938 7.38524 10.1557C6.8576 9.48877 6.50302 8.92736 6.24553 8.35751C6.59167 8.04092 6.91247 7.71168 7.22484 7.39509C7.34303 7.2769 7.46122 7.15448 7.57941 7.03629C8.46585 6.14985 8.46585 5.00171 7.57941 4.11527L6.42704 2.9629C6.29619 2.83204 6.16111 2.69697 6.03448 2.56189C5.78121 2.30018 5.51528 2.03003 5.2409 1.77676C4.83145 1.37153 4.3418 1.15625 3.82682 1.15625C3.31184 1.15625 2.81375 1.37153 2.39163 1.77676C2.38741 1.78098 2.38741 1.78098 2.38319 1.7852L0.948005 3.23305C0.407699 3.77336 0.099556 4.43185 0.0320178 5.19588C-0.0692895 6.42845 0.293728 7.5766 0.572323 8.32796C1.25615 10.1726 2.27766 11.8822 3.80149 13.7141C5.65035 15.9218 7.87489 17.6651 10.416 18.8935C11.3869 19.3536 12.6828 19.8981 14.1306 19.991C14.2193 19.9952 14.3121 19.9994 14.3965 19.9994C15.3716 19.9994 16.1905 19.6491 16.8321 18.9526C16.8364 18.9441 16.8448 18.9399 16.849 18.9315C17.0685 18.6655 17.3218 18.4249 17.5877 18.1674C17.7692 17.9944 17.955 17.8129 18.1365 17.6229C18.5544 17.1881 18.7739 16.6816 18.7739 16.1624C18.7739 15.639 18.5501 15.1367 18.1238 14.7145L15.8064 12.3887ZM17.3176 16.8336C17.3134 16.8378 17.3134 16.8336 17.3176 16.8336C17.153 17.0108 16.9841 17.1712 16.8026 17.3485C16.5282 17.6102 16.2496 17.8846 15.9879 18.1928C15.5616 18.6486 15.0593 18.8639 14.4008 18.8639C14.3375 18.8639 14.2699 18.8639 14.2066 18.8597C12.9529 18.7795 11.7879 18.2898 10.9141 17.872C8.52495 16.7154 6.42704 15.0733 4.68371 12.9923C3.2443 11.2574 2.28188 9.6534 1.64449 7.93117C1.25193 6.88011 1.10841 6.06121 1.17172 5.28874C1.21394 4.79487 1.40389 4.38542 1.75424 4.03507L3.19365 2.59566C3.40049 2.40149 3.61998 2.29596 3.83526 2.29596C4.10119 2.29596 4.31647 2.45636 4.45155 2.59144C4.45577 2.59566 4.45999 2.59988 4.46421 2.6041C4.7217 2.8447 4.96653 3.09375 5.22402 3.35968C5.35487 3.49476 5.48995 3.62984 5.62503 3.76913L6.7774 4.9215C7.22484 5.36894 7.22484 5.78262 6.7774 6.23006C6.65498 6.35247 6.53679 6.47488 6.41438 6.59307C6.0598 6.95609 5.72211 7.29378 5.35487 7.62303C5.34643 7.63147 5.33799 7.63569 5.33377 7.64414C4.97075 8.00716 5.03829 8.36173 5.11427 8.60234C5.11849 8.615 5.12271 8.62766 5.12693 8.64033C5.42663 9.36636 5.84875 10.0502 6.49036 10.8649L6.49458 10.8691C7.65961 12.3043 8.88796 13.4229 10.243 14.2798C10.416 14.3895 10.5933 14.4782 10.7621 14.5626C10.9141 14.6386 11.0576 14.7103 11.18 14.7863C11.1969 14.7947 11.2138 14.8074 11.2307 14.8158C11.3742 14.8876 11.5093 14.9214 11.6486 14.9214C11.9989 14.9214 12.2184 14.7019 12.2902 14.6301L13.7338 13.1865C13.8773 13.043 14.1053 12.8699 14.3712 12.8699C14.6329 12.8699 14.8482 13.0345 14.9791 13.178C14.9833 13.1823 14.9833 13.1823 14.9875 13.1865L17.3134 15.5123C17.7481 15.9429 17.7481 16.3861 17.3176 16.8336Z" fill="#FBE87E"/>
<path d="M10.8087 4.75643C11.9146 4.94216 12.9192 5.46558 13.7212 6.2676C14.5233 7.06961 15.0425 8.07424 15.2324 9.18018C15.2788 9.45877 15.5195 9.65295 15.7938 9.65295C15.8276 9.65295 15.8571 9.64873 15.8909 9.64451C16.2033 9.59385 16.4101 9.29837 16.3595 8.98601C16.1315 7.64791 15.4983 6.428 14.5317 5.46136C13.5651 4.49472 12.3452 3.86155 11.0071 3.63361C10.6947 3.58295 10.4034 3.78979 10.3486 4.09793C10.2937 4.40607 10.4963 4.70577 10.8087 4.75643Z" fill="#FBE87E"/>
<path d="M19.9769 8.82242C19.6012 6.61899 18.5628 4.61395 16.9672 3.01836C15.3716 1.42277 13.3666 0.384369 11.1631 0.00868772C10.855 -0.0461871 10.5637 0.16487 10.5088 0.473013C10.4582 0.785377 10.665 1.07664 10.9774 1.13151C12.9444 1.46498 14.7384 2.39785 16.1652 3.82037C17.5919 5.24712 18.5206 7.0411 18.854 9.00815C18.9005 9.28675 19.1411 9.48092 19.4154 9.48092C19.4492 9.48092 19.4788 9.4767 19.5125 9.47248C19.8207 9.42604 20.0317 9.13056 19.9769 8.82242Z" fill="#FBE87E"/>
</g>
<defs>
<clipPath id="clip0_986_121">
<rect width="20" height="20" fill="white"/>
</clipPath>
</defs>
</svg>
