<svg width="30" height="30" viewBox="0 0 30 30" fill="none" xmlns="http://www.w3.org/2000/svg">
<g clip-path="url(#clip0_504_31731)">
<path d="M26.7857 3.21429L19.4785 10.5214" stroke="#0B2B3F" stroke-width="1.5" stroke-linecap="round" stroke-linejoin="round"/>
<path d="M3.21387 3.21425L10.521 10.5214" stroke="#0B2B3F" stroke-width="1.5" stroke-linecap="round" stroke-linejoin="round"/>
<path d="M3.21387 26.7857L10.521 19.4785" stroke="#0B2B3F" stroke-width="1.5" stroke-linecap="round" stroke-linejoin="round"/>
<path d="M26.7857 26.7857L19.4785 19.4786" stroke="#0B2B3F" stroke-width="1.5" stroke-linecap="round" stroke-linejoin="round"/>
<path d="M14.9999 28.9286C22.6924 28.9286 28.9284 22.6925 28.9284 15C28.9284 7.30746 22.6924 1.07143 14.9999 1.07143C7.30732 1.07143 1.07129 7.30746 1.07129 15C1.07129 22.6925 7.30732 28.9286 14.9999 28.9286Z" stroke="#0B2B3F" stroke-width="1.5" stroke-linecap="round" stroke-linejoin="round"/>
<path d="M15.0001 21.3215C18.4914 21.3215 21.3216 18.4913 21.3216 15C21.3216 11.5088 18.4914 8.6786 15.0001 8.6786C11.5089 8.6786 8.67871 11.5088 8.67871 15C8.67871 18.4913 11.5089 21.3215 15.0001 21.3215Z" stroke="#0B2B3F" stroke-width="1.5" stroke-linecap="round" stroke-linejoin="round"/>
</g>
<defs>
<clipPath id="clip0_504_31731">
<rect width="30" height="30" fill="white"/>
</clipPath>
</defs>
</svg>
