<svg width="50" height="50" viewBox="0 0 50 50" fill="none" xmlns="http://www.w3.org/2000/svg">
<path d="M25 11.2129V16.57" stroke="#FBE87E" stroke-width="1.5" stroke-linecap="round" stroke-linejoin="round"/>
<path d="M30.3928 25.5352C32.0773 24.31 33.4408 22.696 34.3674 20.8305C35.2939 18.9651 35.756 16.9033 35.7143 14.8209C35.9319 11.7431 34.9303 8.70323 32.9256 6.35776C30.9209 4.01228 28.0741 2.54944 25 2.28516C21.9289 2.54055 19.0822 3.99581 17.0767 6.33559C15.0712 8.67536 14.0684 11.7112 14.2857 14.7852C14.244 16.8676 14.7061 18.9293 15.6326 20.7948C16.5591 22.6603 17.9227 24.2743 19.6071 25.4994L8.14284 38.6423C7.87282 38.9688 7.7251 39.3793 7.7251 39.803C7.7251 40.2267 7.87282 40.6372 8.14284 40.9637L13.0357 47.0352C13.1927 47.2469 13.3974 47.4186 13.6332 47.5365C13.869 47.6544 14.1292 47.7151 14.3928 47.7137C14.6547 47.7164 14.9142 47.6638 15.1542 47.5591C15.3942 47.4545 15.6095 47.3003 15.7857 47.1066C19.2542 43.1837 22.3397 38.9382 25 34.428C27.6829 38.9413 30.7924 43.1869 34.2857 47.1066C34.4619 47.3003 34.6771 47.4545 34.9172 47.5591C35.1572 47.6638 35.4167 47.7164 35.6786 47.7137C35.9422 47.7151 36.2024 47.6544 36.4382 47.5365C36.674 47.4186 36.8787 47.2469 37.0357 47.0352L41.9286 40.9637C42.1958 40.6429 42.3422 40.2385 42.3422 39.8209C42.3422 39.4033 42.1958 38.9989 41.9286 38.678L30.3928 25.5352Z" stroke="#FBE87E" stroke-width="1.5" stroke-linecap="round" stroke-linejoin="round"/>
</svg>
