<svg width="50" height="50" viewBox="0 0 50 50" fill="none" xmlns="http://www.w3.org/2000/svg">
<path d="M25 35.7891V39.3962" stroke="#FBE87E" stroke-width="1.5" stroke-linecap="round" stroke-linejoin="round"/>
<path d="M25 17.8945V21.2517" stroke="#FBE87E" stroke-width="1.5" stroke-linecap="round" stroke-linejoin="round"/>
<path d="M24.9999 48.1797C37.4999 48.1797 46.4284 43.7511 46.4284 33.894C46.4284 23.1797 41.0713 16.0368 30.357 10.6797L34.5713 5.25112C34.7854 4.89494 34.9015 4.48849 34.9079 4.07297C34.9143 3.65745 34.8107 3.24762 34.6077 2.88504C34.4046 2.52245 34.1093 2.21999 33.7517 2.00831C33.3941 1.79663 32.9868 1.68326 32.5713 1.67969H17.4284C17.0129 1.68326 16.6057 1.79663 16.248 2.00831C15.8904 2.21999 15.5951 2.52245 15.3921 2.88504C15.189 3.24762 15.0854 3.65745 15.0918 4.07297C15.0982 4.48849 15.2143 4.89494 15.4284 5.25112L19.6427 10.7154C8.92843 16.1083 3.57129 23.2511 3.57129 33.9654C3.57129 43.7511 12.4999 48.1797 24.9999 48.1797Z" stroke="#FBE87E" stroke-width="1.5" stroke-linecap="round" stroke-linejoin="round"/>
<path d="M21.4283 34.1439C21.8641 34.6612 22.4126 35.0718 23.0316 35.3442C23.6507 35.6166 24.324 35.7436 24.9998 35.7154C26.0326 35.7858 27.0526 35.453 27.8452 34.7869C28.6378 34.1209 29.1412 33.1735 29.2498 32.1439C29.1412 31.1144 28.6378 30.167 27.8452 29.5009C27.0526 28.8349 26.0326 28.5021 24.9998 28.5725C23.9669 28.6429 22.9469 28.3101 22.1543 27.6441C21.3618 26.9781 20.8583 26.0307 20.7498 25.0011C20.8496 23.9679 21.3506 23.0151 22.1453 22.3473C22.9399 21.6795 23.9648 21.35 24.9998 21.4297C25.6636 21.389 26.3283 21.4961 26.9458 21.7431C27.5633 21.9901 28.1185 22.371 28.5712 22.8582" stroke="#FBE87E" stroke-width="1.5" stroke-linecap="round" stroke-linejoin="round"/>
</svg>
