<svg width="30" height="30" viewBox="0 0 30 30" fill="none" xmlns="http://www.w3.org/2000/svg">
<g clip-path="url(#clip0_115_568)">
<path fill-rule="evenodd" clip-rule="evenodd" d="M14.6493 1.01413C14.696 0.856986 14.8409 0.748535 15.0052 0.748535C15.1694 0.748535 15.3143 0.856986 15.361 1.01413C15.361 1.01413 16.0123 3.19734 16.7104 5.53901C17.8228 9.2697 20.7411 12.188 24.4718 13.3004C26.8135 13.9985 28.9967 14.6498 28.9967 14.6498C29.1538 14.6965 29.2623 14.8414 29.2623 15.0057C29.2623 15.1699 29.1538 15.3148 28.9967 15.3615C28.9967 15.3615 26.8135 16.0128 24.4718 16.7109C20.7411 17.8233 17.8228 20.7416 16.7104 24.4723C16.0123 26.814 15.361 28.9972 15.361 28.9972C15.3143 29.1543 15.1694 29.2628 15.0052 29.2628C14.8409 29.2628 14.696 29.1543 14.6493 28.9972C14.6493 28.9972 13.998 26.814 13.2999 24.4723C12.1875 20.7416 9.26919 17.8233 5.53851 16.7109C3.19685 16.0128 1.01364 15.3615 1.01364 15.3615C0.856488 15.3148 0.748047 15.1699 0.748047 15.0057C0.748047 14.8414 0.856488 14.6965 1.01364 14.6498C1.01364 14.6498 3.19685 13.9985 5.53851 13.3004C9.26919 12.188 12.1875 9.2697 13.2999 5.53901C13.998 3.19734 14.6493 1.01413 14.6493 1.01413Z" fill="#0B2B3F"/>
</g>
<defs>
<clipPath id="clip0_115_568">
<rect width="30" height="30" fill="white"/>
</clipPath>
</defs>
</svg>
