<svg width="24" height="24" viewBox="0 0 24 24" fill="none" xmlns="http://www.w3.org/2000/svg">
<path d="M18.2394 2.64001H5.75939C5.47167 2.64792 5.18985 2.72341 4.93671 2.86041C4.68358 2.9974 4.46623 3.19204 4.30225 3.42859L1.18225 7.74859C0.950574 8.07597 0.834873 8.47135 0.853507 8.87198C0.872141 9.27262 1.02404 9.65555 1.28511 9.96001L10.6451 20.7429C10.8053 20.9493 11.0107 21.1164 11.2454 21.2314C11.4801 21.3464 11.738 21.4061 11.9994 21.4061C12.2608 21.4061 12.5187 21.3464 12.7534 21.2314C12.9881 21.1164 13.1934 20.9493 13.3537 20.7429L22.7137 9.96001C22.9747 9.65555 23.1266 9.27262 23.1453 8.87198C23.1639 8.47135 23.0482 8.07597 22.8165 7.74859L19.6965 3.42859C19.5326 3.19204 19.3152 2.9974 19.0621 2.86041C18.8089 2.72341 18.5271 2.64792 18.2394 2.64001V2.64001Z" stroke="#0B2B3F" stroke-width="1.5" stroke-linecap="round" stroke-linejoin="round"/>
<path d="M11.1086 2.62286L6.92578 9.10286L12.0001 21.36" stroke="#0B2B3F" stroke-width="1.5" stroke-linecap="round" stroke-linejoin="round"/>
<path d="M12.9429 2.62286L17.1086 9.10286L12 21.36" stroke="#0B2B3F" stroke-width="1.5" stroke-linecap="round" stroke-linejoin="round"/>
<path d="M0.890625 9.10284H23.1078" stroke="#0B2B3F" stroke-width="1.5" stroke-linecap="round" stroke-linejoin="round"/>
</svg>
