<svg width="30" height="30" viewBox="0 0 30 30" fill="none" xmlns="http://www.w3.org/2000/svg">
<path d="M12.857 10.3504L8.03557 2.01465C5.91959 3.23381 4.16193 4.98866 2.9394 7.1027C1.71687 9.21674 1.07256 11.6154 1.07129 14.0575H10.7141C10.7149 13.306 10.9133 12.5678 11.2894 11.9171C11.6655 11.2665 12.2061 10.7261 12.857 10.3504Z" stroke="#0B2B3F" stroke-width="1.5" stroke-linecap="round" stroke-linejoin="round"/>
<path d="M19.2857 14.0575H28.9285C28.9273 11.6154 28.283 9.21674 27.0604 7.1027C25.8379 4.98866 24.0802 3.23381 21.9643 2.01465L17.1428 10.3504C17.7937 10.7261 18.3343 11.2665 18.7104 11.9171C19.0865 12.5678 19.2849 13.306 19.2857 14.0575Z" stroke="#0B2B3F" stroke-width="1.5" stroke-linecap="round" stroke-linejoin="round"/>
<path d="M14.9999 18.3433C14.2492 18.3485 13.5102 18.1563 12.8571 17.7861L8.03564 26.1218C10.1538 27.3422 12.5554 27.9846 14.9999 27.9846C17.4445 27.9846 19.8461 27.3422 21.9642 26.1218L17.1428 17.7861C16.4896 18.1563 15.7507 18.3485 14.9999 18.3433V18.3433Z" stroke="#0B2B3F" stroke-width="1.5" stroke-linecap="round" stroke-linejoin="round"/>
</svg>
