<svg width="30" height="30" viewBox="0 0 30 30" fill="none" xmlns="http://www.w3.org/2000/svg">
<g clip-path="url(#clip0_636_122)">
<path d="M16.0073 14.7857C15.6895 14.9237 15.3467 14.9949 15.0002 14.9949C14.6537 14.9949 14.3109 14.9237 13.993 14.7857L1.77873 9.12857C1.58039 9.02853 1.41371 8.8754 1.29726 8.68624C1.1808 8.49707 1.11914 8.27929 1.11914 8.05714C1.11914 7.835 1.1808 7.61722 1.29726 7.42805C1.41371 7.23889 1.58039 7.08575 1.77873 6.98572L13.993 1.28572C14.3109 1.1477 14.6537 1.07648 15.0002 1.07648C15.3467 1.07648 15.6895 1.1477 16.0073 1.28572L28.2216 6.94286C28.4199 7.0429 28.5866 7.19603 28.7031 7.3852C28.8195 7.57436 28.8812 7.79215 28.8812 8.01429C28.8812 8.23643 28.8195 8.45421 28.7031 8.64338C28.5866 8.83255 28.4199 8.98568 28.2216 9.08572L16.0073 14.7857Z" stroke="#0B2B3F" stroke-width="1.5" stroke-linecap="round" stroke-linejoin="round"/>
<path d="M28.9284 15.75L15.857 21.7714C15.5778 21.8988 15.2746 21.9647 14.9677 21.9647C14.6609 21.9647 14.3576 21.8988 14.0784 21.7714L1.07129 15.75" stroke="#0B2B3F" stroke-width="1.5" stroke-linecap="round" stroke-linejoin="round"/>
<path d="M28.9284 22.7143L15.857 28.7357C15.5778 28.8631 15.2746 28.929 14.9677 28.929C14.6609 28.929 14.3576 28.8631 14.0784 28.7357L1.07129 22.7143" stroke="#0B2B3F" stroke-width="1.5" stroke-linecap="round" stroke-linejoin="round"/>
</g>
<defs>
<clipPath id="clip0_636_122">
<rect width="30" height="30" fill="white"/>
</clipPath>
</defs>
</svg>
