<svg width="30" height="30" viewBox="0 0 30 30" fill="none" xmlns="http://www.w3.org/2000/svg">
<g clip-path="url(#clip0_505_31814)">
<path d="M26.7856 1.07141H3.21415C2.03068 1.07141 1.07129 2.0308 1.07129 3.21427V26.7857C1.07129 27.9692 2.03068 28.9286 3.21415 28.9286H26.7856C27.969 28.9286 28.9284 27.9692 28.9284 26.7857V3.21427C28.9284 2.0308 27.969 1.07141 26.7856 1.07141Z" stroke="#0B2B3F" stroke-width="1.5" stroke-linecap="round" stroke-linejoin="round"/>
<path d="M11.7637 22.6285V14.4214C11.7697 14.2952 11.8065 14.1725 11.871 14.064C11.9355 13.9554 12.0256 13.8643 12.1335 13.7987C12.2414 13.7332 12.3638 13.6951 12.4898 13.6878C12.6159 13.6805 12.7418 13.7043 12.8565 13.7571L19.9708 17.8499C20.086 17.9209 20.1811 18.0202 20.2471 18.1384C20.3131 18.2565 20.3477 18.3896 20.3477 18.5249C20.3477 18.6603 20.3131 18.7933 20.2471 18.9115C20.1811 19.0296 20.086 19.1289 19.9708 19.1999L12.8565 23.3142C12.7398 23.3622 12.6134 23.3816 12.4876 23.3709C12.3619 23.3601 12.2406 23.3196 12.1337 23.2525C12.0268 23.1854 11.9375 23.0938 11.8731 22.9853C11.8088 22.8768 11.7712 22.7545 11.7637 22.6285V22.6285Z" stroke="#0B2B3F" stroke-width="1.5" stroke-linecap="round" stroke-linejoin="round"/>
<path d="M1.07129 8.57141H28.9284" stroke="#0B2B3F" stroke-width="1.5" stroke-linecap="round" stroke-linejoin="round"/>
<path d="M8.57129 8.57141L11.7856 1.07141" stroke="#0B2B3F" stroke-width="1.5" stroke-linecap="round" stroke-linejoin="round"/>
<path d="M18.2139 8.57141L21.4282 1.07141" stroke="#0B2B3F" stroke-width="1.5" stroke-linecap="round" stroke-linejoin="round"/>
</g>
<defs>
<clipPath id="clip0_505_31814">
<rect width="30" height="30" fill="white"/>
</clipPath>
</defs>
</svg>
