<svg width="30" height="30" viewBox="0 0 30 30" fill="none" xmlns="http://www.w3.org/2000/svg">
<path d="M12.857 10.3513L8.03557 2.01562C5.91959 3.23478 4.16193 4.98963 2.9394 7.10367C1.71687 9.21771 1.07256 11.6164 1.07129 14.0585H10.7141C10.7149 13.3069 10.9133 12.5688 11.2894 11.9181C11.6655 11.2674 12.2061 10.7271 12.857 10.3513Z" stroke="#0B2B3F" stroke-width="1.5" stroke-linecap="round" stroke-linejoin="round"/>
<path d="M19.2857 14.0585H28.9285C28.9273 11.6164 28.283 9.21771 27.0604 7.10367C25.8379 4.98963 24.0802 3.23478 21.9643 2.01562L17.1428 10.3513C17.7937 10.7271 18.3343 11.2674 18.7104 11.9181C19.0865 12.5688 19.2849 13.3069 19.2857 14.0585Z" stroke="#0B2B3F" stroke-width="1.5" stroke-linecap="round" stroke-linejoin="round"/>
<path d="M14.9999 18.3443C14.2492 18.3494 13.5102 18.1573 12.8571 17.7871L8.03564 26.1228C10.1538 27.3432 12.5554 27.9856 14.9999 27.9856C17.4445 27.9856 19.8461 27.3432 21.9642 26.1228L17.1428 17.7871C16.4896 18.1573 15.7507 18.3494 14.9999 18.3443V18.3443Z" stroke="#0B2B3F" stroke-width="1.5" stroke-linecap="round" stroke-linejoin="round"/>
</svg>
