<svg width="50" height="50" viewBox="0 0 50 50" fill="none" xmlns="http://www.w3.org/2000/svg">
<path d="M18.6787 8.03516L20.2144 4.07087C20.4734 3.39967 20.929 2.82234 21.5217 2.41449C22.1144 2.00663 22.8164 1.78728 23.5358 1.78516H26.4644C27.1838 1.78728 27.8858 2.00663 28.4785 2.41449C29.0712 2.82234 29.5268 3.39967 29.7858 4.07087L31.3215 8.03516L36.5358 11.0352L40.7501 10.3923C41.4518 10.2971 42.166 10.4126 42.8019 10.7242C43.4379 11.0358 43.9668 11.5294 44.3215 12.1423L45.7501 14.6423C46.1162 15.265 46.2848 15.984 46.2338 16.7045C46.1828 17.425 45.9145 18.1131 45.4644 18.678L42.8572 21.9994V27.9994L45.5358 31.3209C45.986 31.8858 46.2542 32.5739 46.3052 33.2944C46.3563 34.0149 46.1876 34.7339 45.8215 35.3566L44.393 37.8566C44.0382 38.4695 43.5093 38.9631 42.8734 39.2747C42.2375 39.5863 41.5233 39.7018 40.8215 39.6066L36.6072 38.9637L31.393 41.9637L29.8572 45.928C29.5982 46.5992 29.1426 47.1765 28.5499 47.5844C27.9573 47.9923 27.2552 48.2116 26.5358 48.2137H23.5358C22.8164 48.2116 22.1144 47.9923 21.5217 47.5844C20.929 47.1765 20.4734 46.5992 20.2144 45.928L18.6787 41.9637L13.4644 38.9637L9.2501 39.6066C8.54837 39.7018 7.83417 39.5863 7.19825 39.2747C6.56233 38.9631 6.0334 38.4695 5.67867 37.8566L4.2501 35.3566C3.88403 34.7339 3.71537 34.0149 3.76638 33.2944C3.81739 32.5739 4.08567 31.8858 4.53581 31.3209L7.14295 27.9994V21.9994L4.46438 18.678C4.01424 18.1131 3.74596 17.425 3.69495 16.7045C3.64394 15.984 3.8126 15.265 4.17867 14.6423L5.60724 12.1423C5.96197 11.5294 6.4909 11.0358 7.12682 10.7242C7.76274 10.4126 8.47694 10.2971 9.17867 10.3923L13.393 11.0352L18.6787 8.03516ZM17.8572 24.9994C17.8572 26.4122 18.2762 27.7932 19.061 28.9678C19.8459 30.1424 20.9615 31.058 22.2666 31.5986C23.5718 32.1392 25.008 32.2807 26.3936 32.0051C27.7792 31.7294 29.0519 31.0492 30.0509 30.0502C31.0498 29.0513 31.7301 27.7785 32.0057 26.3929C32.2813 25.0074 32.1399 23.5712 31.5992 22.266C31.0586 20.9608 30.1431 19.8452 28.9685 19.0604C27.7938 18.2755 26.4128 17.8566 25.0001 17.8566C23.1057 17.8566 21.2889 18.6091 19.9493 19.9487C18.6098 21.2882 17.8572 23.105 17.8572 24.9994V24.9994Z" stroke="#FBE87E" stroke-width="1.5" stroke-linecap="round" stroke-linejoin="round"/>
</svg>
