<svg width="30" height="30" viewBox="0 0 30 30" fill="none" xmlns="http://www.w3.org/2000/svg">
<path d="M15 6.72852V9.9428" stroke="#0B2B3F" stroke-width="1.5" stroke-linecap="round" stroke-linejoin="round"/>
<path d="M18.2359 15.3211C19.2466 14.586 20.0647 13.6176 20.6206 12.4983C21.1765 11.379 21.4538 10.142 21.4288 8.89252C21.5594 7.04587 20.9583 5.22194 19.7555 3.81465C18.5527 2.40737 16.8447 1.52966 15.0002 1.37109C13.1575 1.52433 11.4495 2.39749 10.2462 3.80135C9.04289 5.20522 8.44123 7.0267 8.57161 8.87109C8.5466 10.1206 8.82385 11.3576 9.37976 12.4769C9.93567 13.5962 10.7538 14.5646 11.7645 15.2997L4.8859 23.1854C4.72389 23.3813 4.63525 23.6276 4.63525 23.8818C4.63525 24.136 4.72389 24.3823 4.8859 24.5782L7.82161 28.2211C7.91584 28.3481 8.03866 28.4512 8.18013 28.5219C8.32159 28.5927 8.47773 28.6291 8.6359 28.6282C8.79301 28.6299 8.94869 28.5983 9.09271 28.5355C9.23674 28.4727 9.36587 28.3802 9.47161 28.2639C11.5527 25.9102 13.404 23.3629 15.0002 20.6568C16.6099 23.3648 18.4756 25.9121 20.5716 28.2639C20.6774 28.3802 20.8065 28.4727 20.9505 28.5355C21.0945 28.5983 21.2502 28.6299 21.4073 28.6282C21.5655 28.6291 21.7216 28.5927 21.8631 28.5219C22.0046 28.4512 22.1274 28.3481 22.2216 28.2211L25.1573 24.5782C25.3177 24.3857 25.4055 24.1431 25.4055 23.8925C25.4055 23.642 25.3177 23.3993 25.1573 23.2068L18.2359 15.3211Z" stroke="#0B2B3F" stroke-width="1.5" stroke-linecap="round" stroke-linejoin="round"/>
</svg>
