<svg width="30" height="30" viewBox="0 0 30 30" fill="none" xmlns="http://www.w3.org/2000/svg">
<g clip-path="url(#clip0_130_910)">
<path d="M27.6644 11.7857H2.33585C1.13585 11.7857 0.621569 10.4786 1.56443 9.85714L14.2287 1.56428C14.4625 1.42673 14.7289 1.3542 15.0001 1.3542C15.2714 1.3542 15.5378 1.42673 15.7716 1.56428L28.4359 9.85714C29.3787 10.4786 28.8644 11.7857 27.6644 11.7857Z" stroke="#0B2B3F" stroke-width="1.5" stroke-linecap="round" stroke-linejoin="round"/>
<path d="M27.8572 23.5714H2.14296C1.55123 23.5714 1.07153 24.0511 1.07153 24.6429V27.8571C1.07153 28.4489 1.55123 28.9286 2.14296 28.9286H27.8572C28.449 28.9286 28.9287 28.4489 28.9287 27.8571V24.6429C28.9287 24.0511 28.449 23.5714 27.8572 23.5714Z" stroke="#0B2B3F" stroke-width="1.5" stroke-linecap="round" stroke-linejoin="round"/>
<path d="M4.28589 11.7857V23.5714" stroke="#0B2B3F" stroke-width="1.5" stroke-linecap="round" stroke-linejoin="round"/>
<path d="M9.64307 11.7857V23.5714" stroke="#0B2B3F" stroke-width="1.5" stroke-linecap="round" stroke-linejoin="round"/>
<path d="M15 11.7857V23.5714" stroke="#0B2B3F" stroke-width="1.5" stroke-linecap="round" stroke-linejoin="round"/>
<path d="M20.3572 11.7857V23.5714" stroke="#0B2B3F" stroke-width="1.5" stroke-linecap="round" stroke-linejoin="round"/>
<path d="M25.7144 11.7857V23.5714" stroke="#0B2B3F" stroke-width="1.5" stroke-linecap="round" stroke-linejoin="round"/>
</g>
<defs>
<clipPath id="clip0_130_910">
<rect width="30" height="30" fill="white"/>
</clipPath>
</defs>
</svg>
