<svg width="30" height="30" viewBox="0 0 30 30" fill="none" xmlns="http://www.w3.org/2000/svg">
<g clip-path="url(#clip0_268_359)">
<path d="M12.8572 28.9068C14.0407 28.9068 15.0001 27.9474 15.0001 26.764C15.0001 25.5805 14.0407 24.6211 12.8572 24.6211C11.6737 24.6211 10.7144 25.5805 10.7144 26.764C10.7144 27.9474 11.6737 28.9068 12.8572 28.9068Z" stroke="#0B2B3F" stroke-width="1.5" stroke-linecap="round" stroke-linejoin="round"/>
<path d="M22.5003 28.9068C23.6837 28.9068 24.6431 27.9474 24.6431 26.764C24.6431 25.5805 23.6837 24.6211 22.5003 24.6211C21.3168 24.6211 20.3574 25.5805 20.3574 26.764C20.3574 27.9474 21.3168 28.9068 22.5003 28.9068Z" stroke="#0B2B3F" stroke-width="1.5" stroke-linecap="round" stroke-linejoin="round"/>
<path d="M17.9574 7.56335C17.6285 6.24236 16.9898 5.0187 16.094 3.99365C15.1982 2.96861 14.0712 2.17166 12.8062 1.66879C11.5411 1.16591 10.1745 0.971566 8.81949 1.10184C7.46444 1.23212 6.1599 1.68327 5.01387 2.41796C3.86784 3.15264 2.91328 4.14971 2.22921 5.32665C1.54513 6.50359 1.15122 7.82653 1.08007 9.18597C1.00893 10.5454 1.2626 11.9022 1.82009 13.1442C2.37758 14.3861 3.22285 15.4773 4.28594 16.3276" stroke="#0B2B3F" stroke-width="1.5" stroke-linecap="round" stroke-linejoin="round"/>
<path d="M9.64307 9.66351L12.8574 6.44922" stroke="#0B2B3F" stroke-width="1.5" stroke-linecap="round" stroke-linejoin="round"/>
<path d="M13.9287 20.3557V18.2129H10.7144C9.57778 18.2129 8.48769 18.6644 7.68397 19.4681C6.88024 20.2719 6.42871 21.362 6.42871 22.4986V26.7843" stroke="#0B2B3F" stroke-width="1.5" stroke-linecap="round" stroke-linejoin="round"/>
<path d="M28.9287 26.7634V16.0491C28.9287 15.4808 28.7029 14.9357 28.3011 14.5339C27.8992 14.132 27.3542 13.9062 26.7859 13.9062H16.0716C15.5032 13.9062 14.9582 14.132 14.5563 14.5339C14.1545 14.9357 13.9287 15.4808 13.9287 16.0491V20.3348" stroke="#0B2B3F" stroke-width="1.5" stroke-linecap="round" stroke-linejoin="round"/>
</g>
<defs>
<clipPath id="clip0_268_359">
<rect width="30" height="30" fill="white"/>
</clipPath>
</defs>
</svg>
