<svg width="180" height="180" viewBox="0 0 180 180" fill="none" xmlns="http://www.w3.org/2000/svg">
<rect width="180" height="180" rx="90" fill="#FBE87E"/>
<path d="M91.0879 33.7868L92.3435 20L94.8603 20.2292L93.8069 31.7953L99.7103 32.333L99.508 34.5537L91.0879 33.7868Z" fill="#0B2B3F"/>
<path d="M105.584 36.4472C104.585 36.1538 103.778 35.6712 103.162 34.9995C102.546 34.3277 102.144 33.5445 101.955 32.6496C101.766 31.7548 101.809 30.8379 102.085 29.899C102.372 28.9244 102.833 28.1238 103.469 27.4973C104.12 26.8624 104.873 26.4316 105.728 26.2049C106.594 25.9817 107.478 26.0029 108.382 26.2684C109.142 26.492 109.771 26.8124 110.268 27.2297C110.777 27.6505 111.169 28.1401 111.444 28.6986C111.719 29.2572 111.88 29.8531 111.926 30.4865C111.976 31.108 111.905 31.7456 111.712 32.3993C111.663 32.5657 111.601 32.7346 111.525 32.9059C111.46 33.0807 111.385 33.2264 111.299 33.3432L103.812 31.1424L104.336 29.3595L110.504 31.1726L109.152 31.6857C109.42 31.1704 109.534 30.6743 109.493 30.1975C109.464 29.7242 109.302 29.3087 109.007 28.9508C108.724 28.5964 108.327 28.3441 107.816 28.1938C107.329 28.0506 106.858 28.0479 106.404 28.1857C105.954 28.3116 105.558 28.5826 105.216 28.9986C104.89 29.4063 104.653 29.9499 104.505 30.6294C104.282 31.2098 104.204 31.7614 104.27 32.2843C104.351 32.7988 104.557 33.2403 104.888 33.6086C105.231 33.9805 105.669 34.245 106.204 34.4022C106.739 34.5594 107.224 34.5793 107.659 34.4617C108.105 34.3477 108.492 34.132 108.817 33.8145L110.435 35.297C110.108 35.7047 109.691 36.0274 109.182 36.2652C108.673 36.503 108.109 36.6408 107.491 36.6787C106.885 36.72 106.249 36.6429 105.584 36.4472Z" fill="#0B2B3F"/>
<path d="M114.708 40.081C114.085 39.7496 113.599 39.3578 113.25 38.9057C112.901 38.4537 112.702 37.9693 112.654 37.4527C112.612 36.9252 112.727 36.4044 113.001 35.8902C113.262 35.398 113.604 35.0186 114.027 34.7521C114.455 34.4746 114.968 34.3267 115.567 34.3084C116.166 34.2901 116.845 34.4124 117.603 34.6751L120.777 35.752L119.904 37.3927L117.167 36.4848C116.7 36.3346 116.31 36.3026 115.998 36.3891C115.685 36.4755 115.444 36.6773 115.276 36.9945C115.113 37.3008 115.097 37.608 115.228 37.916C115.375 38.219 115.624 38.4635 115.974 38.6496C116.423 38.888 116.866 39.0044 117.304 38.9987C117.759 38.9879 118.169 38.8623 118.535 38.6221C118.913 38.3877 119.209 38.0681 119.424 37.6634L120.645 35.3663C120.849 34.9834 120.864 34.5848 120.692 34.1704C120.536 33.7508 120.212 33.4102 119.72 33.1485C119.26 32.9043 118.783 32.812 118.288 32.8717C117.81 32.9263 117.382 33.1123 117.002 33.4298L115.7 31.6433C116.125 31.266 116.614 31.0066 117.166 30.8652C117.735 30.7187 118.329 30.6837 118.948 30.7601C119.567 30.8365 120.177 31.0346 120.778 31.3545C121.511 31.7441 122.084 32.2239 122.497 32.794C122.915 33.3531 123.149 33.9547 123.2 34.5988C123.267 35.2378 123.132 35.8745 122.794 36.5089L119.637 42.4486L117.602 41.367L118.413 39.8411L118.89 40.0525C118.457 40.3132 118.012 40.4905 117.555 40.5844C117.104 40.6674 116.639 40.6723 116.158 40.5994C115.684 40.5155 115.2 40.3427 114.708 40.081Z" fill="#0B2B3F"/>
<path d="M121.552 43.883L127.623 35.8007L129.451 37.1735L128.1 38.9712L128.153 38.5922C128.795 38.1294 129.403 37.9279 129.978 37.9878C130.562 38.0552 131.137 38.3009 131.702 38.725L132.177 39.0822L130.882 40.8056L130.184 40.281C129.629 39.8644 129.054 39.7029 128.456 39.7966C127.867 39.8803 127.341 40.2293 126.88 40.8434L123.498 45.3451L121.552 43.883Z" fill="#0B2B3F"/>
<path d="M126.793 47.858L134.041 40.8112L135.635 42.45L134.209 43.836L134.333 43.4566C134.932 43.2023 135.528 43.1581 136.122 43.3241C136.733 43.4904 137.288 43.8311 137.789 44.3463C138.307 44.8792 138.65 45.4622 138.816 46.0954C138.991 46.7373 138.982 47.3767 138.789 48.0136C138.605 48.6417 138.242 49.2192 137.7 49.746L133.037 54.2798L131.34 52.5344L135.59 48.4022C135.91 48.0913 136.125 47.7615 136.235 47.4126C136.345 47.0637 136.354 46.7178 136.263 46.3748C136.189 46.0321 136.009 45.7142 135.724 45.4211C135.448 45.1369 135.135 44.9485 134.786 44.856C134.446 44.7548 134.1 44.7543 133.748 44.8545C133.396 44.9547 133.06 45.1602 132.74 45.4711L128.49 49.6033L126.793 47.858Z" fill="#0B2B3F"/>
<path d="M136.537 58.7311L148.864 52.4301L149.963 54.5811L146.052 62.4029L145.528 61.3771L154.108 62.6887L155.207 64.8396L142.88 71.1407L141.722 68.8739L151.484 63.8838L151.717 64.8707L143.086 63.3767L142.95 63.112L146.854 55.3567L147.449 55.9913L137.687 60.9814L136.537 58.7311Z" fill="#0B2B3F"/>
<path d="M144.062 77.9487C143.851 76.9805 143.881 76.0481 144.155 75.1515C144.43 74.2669 144.904 73.504 145.575 72.8627C146.249 72.2335 147.083 71.8104 148.075 71.5935C149.067 71.3766 150.001 71.4134 150.876 71.704C151.754 72.0067 152.503 72.5024 153.123 73.1912C153.742 73.88 154.159 74.7145 154.374 75.6948C154.585 76.663 154.553 77.5894 154.277 78.4739C154.001 79.3585 153.526 80.1154 152.852 80.7446C152.193 81.3832 151.361 81.8123 150.357 82.0319C149.364 82.2488 148.429 82.206 147.552 81.9033C146.674 81.6006 145.925 81.1048 145.305 80.4161C144.686 79.7273 144.271 78.9048 144.062 77.9487ZM146.241 77.4726C146.357 78.0051 146.586 78.4432 146.927 78.7871C147.272 79.143 147.693 79.387 148.191 79.5191C148.703 79.6606 149.244 79.6692 149.813 79.5449C150.394 79.4179 150.876 79.1857 151.259 78.8485C151.656 78.5206 151.937 78.1232 152.101 77.6561C152.28 77.1986 152.311 76.7035 152.195 76.171C152.076 75.6264 151.838 75.1774 151.482 74.8242C151.138 74.4682 150.716 74.2182 150.215 74.074C149.729 73.9393 149.196 73.9354 148.615 74.0624C148.046 74.1868 147.557 74.4142 147.147 74.7446C146.752 75.0846 146.473 75.488 146.308 75.9551C146.144 76.4221 146.122 76.928 146.241 77.4726Z" fill="#0B2B3F"/>
<path d="M145.423 85.3218L155.522 84.8596L155.626 87.1428L153.38 87.2456L153.706 87.0447C154.471 87.2453 155.014 87.5863 155.334 88.0677C155.654 88.5615 155.83 89.1611 155.862 89.8665L155.89 90.4605L153.736 90.5591L153.696 89.6866C153.665 88.9936 153.423 88.4466 152.97 88.0457C152.53 87.6442 151.927 87.461 151.159 87.4961L145.535 87.7536L145.423 85.3218Z" fill="#0B2B3F"/>
<path d="M144.941 96.7433C145.063 95.7098 145.403 94.8331 145.962 94.113C146.52 93.393 147.225 92.8647 148.075 92.5283C148.926 92.1918 149.837 92.0809 150.809 92.1953C151.818 92.3141 152.685 92.6345 153.409 93.1564C154.144 93.692 154.695 94.3619 155.062 95.166C155.427 95.9824 155.555 96.8581 155.445 97.7932C155.352 98.5806 155.142 99.2543 154.814 99.8145C154.485 100.387 154.068 100.855 153.563 101.22C153.059 101.585 152.498 101.843 151.882 101.995C151.277 102.148 150.637 102.185 149.96 102.106C149.788 102.085 149.611 102.052 149.429 102.006C149.246 101.972 149.09 101.922 148.96 101.857L149.873 94.1059L151.718 94.3232L150.967 100.709L150.234 99.4622C150.787 99.6396 151.295 99.6682 151.758 99.5482C152.22 99.4404 152.602 99.211 152.906 98.86C153.207 98.5214 153.39 98.0875 153.452 97.5585C153.511 97.054 153.435 96.5897 153.223 96.1656C153.023 95.7429 152.69 95.398 152.222 95.1309C151.765 94.8776 151.19 94.7349 150.495 94.703C149.886 94.5813 149.329 94.5968 148.824 94.7495C148.331 94.9159 147.93 95.193 147.622 95.5809C147.313 95.9811 147.126 96.458 147.061 97.0117C146.996 97.5653 147.058 98.0466 147.246 98.4555C147.434 98.8768 147.711 99.2213 148.079 99.4891L146.889 101.332C146.432 101.079 146.044 100.721 145.724 100.26C145.404 99.7978 145.174 99.2655 145.033 98.6626C144.89 98.072 144.86 97.4323 144.941 96.7433Z" fill="#0B2B3F"/>
<path d="M148.531 111.528L150.085 110.529L151.321 112.452L152.759 110.712L154.186 111.872L152.766 113.618L154.989 114.465L154.328 116.201L152.105 115.355L152.004 117.603L150.167 117.52L150.25 115.265L148.048 115.878L147.559 114.081L149.761 113.468L148.531 111.528Z" fill="#0B2B3F"/>
<path d="M137.971 118.367L149.43 126.134L148.013 128.226L138.399 121.71L135.073 126.617L133.227 125.366L137.971 118.367Z" fill="#0B2B3F"/>
<path d="M128.623 129.785C129.361 129.052 130.174 128.578 131.059 128.362C131.945 128.147 132.825 128.172 133.7 128.439C134.575 128.705 135.357 129.186 136.046 129.881C136.762 130.602 137.24 131.392 137.482 132.252C137.724 133.128 137.738 133.996 137.524 134.853C137.302 135.72 136.856 136.484 136.188 137.147C135.625 137.706 135.041 138.102 134.435 138.336C133.821 138.579 133.203 138.686 132.581 138.657C131.959 138.628 131.36 138.481 130.783 138.216C130.215 137.96 129.69 137.59 129.211 137.106C129.089 136.983 128.971 136.847 128.858 136.697C128.735 136.557 128.644 136.421 128.583 136.289L134.124 130.793L135.433 132.112L130.868 136.64L131.071 135.208C131.393 135.691 131.773 136.03 132.21 136.225C132.638 136.428 133.081 136.487 133.536 136.401C133.984 136.324 134.396 136.098 134.774 135.723C135.135 135.365 135.364 134.954 135.463 134.49C135.57 134.035 135.523 133.558 135.324 133.057C135.124 132.575 134.763 132.105 134.239 131.647C133.838 131.172 133.393 130.838 132.903 130.643C132.413 130.466 131.927 130.433 131.445 130.545C130.954 130.666 130.51 130.923 130.114 131.315C129.719 131.708 129.467 132.123 129.36 132.56C129.245 133.007 129.247 133.449 129.368 133.887L127.289 134.589C127.09 134.106 127.009 133.585 127.046 133.024C127.083 132.464 127.234 131.904 127.499 131.344C127.756 130.793 128.13 130.273 128.623 129.785Z" fill="#0B2B3F"/>
<path d="M121.038 136.036C121.628 135.649 122.205 135.411 122.769 135.323C123.334 135.234 123.854 135.293 124.33 135.499C124.813 135.716 125.214 136.067 125.533 136.554C125.839 137.02 126.007 137.503 126.038 138.001C126.075 138.51 125.958 139.031 125.686 139.565C125.414 140.099 124.981 140.636 124.386 141.174L121.915 143.439L120.896 141.885L123.008 139.922C123.365 139.584 123.58 139.258 123.655 138.942C123.729 138.627 123.668 138.319 123.471 138.018C123.281 137.728 123.019 137.566 122.686 137.533C122.349 137.517 122.015 137.617 121.684 137.835C121.259 138.113 120.944 138.446 120.738 138.833C120.529 139.237 120.442 139.657 120.477 140.094C120.501 140.537 120.639 140.95 120.89 141.334L122.317 143.509C122.555 143.871 122.897 144.077 123.343 144.125C123.786 144.19 124.24 144.069 124.706 143.764C125.142 143.478 125.452 143.104 125.637 142.642C125.819 142.197 125.862 141.731 125.766 141.246L127.959 140.964C128.085 141.518 128.078 142.071 127.936 142.623C127.791 143.192 127.536 143.73 127.172 144.236C126.807 144.741 126.34 145.181 125.77 145.555C125.076 146.01 124.38 146.282 123.682 146.369C122.991 146.467 122.351 146.383 121.762 146.118C121.169 145.869 120.676 145.445 120.281 144.844L116.592 139.219L118.518 137.956L119.466 139.401L119.052 139.717C119.031 139.212 119.09 138.736 119.227 138.291C119.371 137.855 119.591 137.445 119.886 137.059C120.188 136.683 120.571 136.342 121.038 136.036Z" fill="#0B2B3F"/>
<path d="M114.406 140.213L118.568 149.425L116.485 150.366L115.559 148.317L115.866 148.546C115.963 149.331 115.847 149.961 115.518 150.436C115.177 150.916 114.685 151.302 114.042 151.593L113.5 151.837L112.612 149.873L113.408 149.513C114.04 149.228 114.459 148.801 114.665 148.232C114.875 147.675 114.822 147.046 114.506 146.346L112.188 141.215L114.406 140.213Z" fill="#0B2B3F"/>
<path d="M108.409 142.891L111.081 152.64L108.876 153.244L108.351 151.326L108.623 151.618C108.557 152.266 108.308 152.809 107.876 153.249C107.435 153.703 106.868 154.026 106.175 154.215C105.458 154.412 104.783 154.43 104.148 154.27C103.501 154.113 102.946 153.797 102.481 153.32C102.02 152.856 101.689 152.259 101.49 151.53L99.771 145.258L102.119 144.614L103.685 150.331C103.803 150.761 103.988 151.109 104.241 151.374C104.493 151.639 104.791 151.814 105.136 151.899C105.472 152 105.837 151.996 106.231 151.888C106.614 151.783 106.93 151.6 107.179 151.339C107.432 151.09 107.599 150.787 107.682 150.431C107.764 150.074 107.746 149.681 107.628 149.251L106.062 143.534L108.409 142.891Z" fill="#0B2B3F"/>
<path d="M94.1061 146.163L93.6597 160L91.2452 159.922L86.2905 152.716L87.4421 152.753L82.1446 159.628L79.7301 159.551L80.1766 145.714L82.721 145.796L82.3675 156.754L81.3909 156.481L86.8729 149.648L87.1701 149.658L92.0702 156.825L91.2267 157.04L91.5802 146.082L94.1061 146.163Z" fill="#0B2B3F"/>
<path d="M73.6505 143.474C74.6007 143.755 75.4028 144.232 76.0566 144.904C76.6985 145.572 77.1385 146.355 77.3766 147.252C77.6029 148.146 77.5717 149.08 77.2833 150.054C76.9948 151.028 76.5123 151.828 75.8358 152.455C75.1474 153.078 74.3521 153.495 73.4498 153.706C72.5476 153.916 71.6154 153.879 70.6533 153.594C69.703 153.313 68.9069 152.838 68.265 152.17C67.623 151.502 67.189 150.721 66.9627 149.827C66.7211 148.941 66.7463 148.006 67.0383 147.02C67.3267 146.046 67.8152 145.247 68.5035 144.624C69.1919 144.001 69.9873 143.584 70.8895 143.373C71.7918 143.163 72.7121 143.196 73.6505 143.474ZM73.0173 145.612C72.4946 145.457 72.0004 145.447 71.5345 145.58C71.0568 145.71 70.64 145.961 70.2841 146.334C69.9129 146.715 69.6446 147.184 69.4792 147.743C69.3104 148.313 69.2814 148.847 69.3923 149.345C69.4879 149.851 69.7006 150.289 70.0306 150.658C70.3452 151.035 70.7638 151.301 71.2865 151.456C71.821 151.615 72.3289 151.623 72.8101 151.481C73.2879 151.351 73.7106 151.102 74.0783 150.733C74.4307 150.372 74.6912 149.906 74.8601 149.336C75.0254 148.778 75.0621 148.24 74.9701 147.722C74.8627 147.212 74.644 146.772 74.314 146.403C73.984 146.034 73.5518 145.77 73.0173 145.612Z" fill="#0B2B3F"/>
<path d="M66.5211 141.104L62.0428 150.166L59.9937 149.154L60.9898 147.138L61.0082 147.52C60.4624 148.093 59.9015 148.403 59.3256 148.45C58.7385 148.492 58.1284 148.356 57.4954 148.044L56.9623 147.78L57.9172 145.848L58.7002 146.235C59.3222 146.542 59.918 146.594 60.4877 146.392C61.0519 146.201 61.5041 145.762 61.8444 145.073L64.3388 140.025L66.5211 141.104Z" fill="#0B2B3F"/>
<path d="M56.8454 135.207C57.691 135.813 58.2938 136.535 58.6536 137.372C59.0135 138.21 59.135 139.082 59.018 139.989C58.9011 140.896 58.5575 141.747 57.9871 142.542C57.3951 143.368 56.6955 143.971 55.8883 144.353C55.0638 144.737 54.211 144.896 53.3298 144.828C52.4385 144.753 51.6103 144.441 50.8452 143.892C50.2009 143.43 49.713 142.92 49.3814 142.362C49.0397 141.797 48.8313 141.205 48.7561 140.587C48.681 139.969 48.7261 139.354 48.8914 138.741C49.0495 138.137 49.3271 137.559 49.7242 137.005C49.8253 136.864 49.94 136.726 50.0685 136.589C50.1868 136.445 50.3059 136.333 50.4255 136.251L56.7678 140.799L55.6848 142.309L50.46 138.562L51.9053 138.524C51.4825 138.922 51.2117 139.353 51.0927 139.816C50.9637 140.272 50.9794 140.718 51.1399 141.153C51.2903 141.581 51.5819 141.951 52.0148 142.261C52.4276 142.557 52.8708 142.715 53.3446 142.735C53.8111 142.764 54.2743 142.639 54.7343 142.359C55.1769 142.082 55.5802 141.647 55.9443 141.055C56.3455 140.58 56.6014 140.085 56.7118 139.57C56.8049 139.057 56.7562 138.573 56.5655 138.116C56.3648 137.652 56.0379 137.257 55.5849 136.932C55.1319 136.607 54.6807 136.429 54.2315 136.396C53.7722 136.356 53.3364 136.433 52.9241 136.625L51.8866 134.692C52.3293 134.415 52.83 134.248 53.3889 134.191C53.9478 134.135 54.5251 134.19 55.121 134.359C55.7068 134.52 56.2816 134.802 56.8454 135.207Z" fill="#0B2B3F"/>
<path d="M42.1555 131.202L42.2826 133.045L40.0023 133.202L40.8337 135.3L39.1295 135.992L38.284 133.906L36.4714 135.446L35.2682 134.03L37.0808 132.49L35.159 131.319L36.1171 129.749L38.0531 130.908L38.5767 128.683L40.3868 129.12L39.8632 131.345L42.1555 131.202Z" fill="#0B2B3F"/>
<path d="M41.242 118.654L28.9207 124.965L27.7685 122.716L38.1052 117.421L35.4027 112.145L37.3873 111.129L41.242 118.654Z" fill="#0B2B3F"/>
<path d="M35.7406 104.973C36.0258 105.973 36.049 106.914 35.8102 107.793C35.5714 108.673 35.1242 109.431 34.4686 110.069C33.8131 110.707 33.0147 111.16 32.0735 111.428C31.0966 111.706 30.1734 111.744 29.304 111.541C28.4193 111.329 27.653 110.923 27.005 110.322C26.3537 109.709 25.899 108.95 25.6409 108.044C25.4236 107.282 25.3585 106.579 25.4457 105.936C25.5296 105.281 25.7341 104.688 26.0595 104.157C26.3849 103.626 26.8029 103.172 27.3137 102.795C27.8125 102.421 28.3895 102.14 29.0448 101.954C29.2116 101.906 29.3877 101.869 29.5732 101.842C29.7553 101.803 29.9187 101.788 30.0633 101.799L32.2025 109.304L30.4155 109.814L28.6532 103.63L29.8089 104.499C29.2303 104.548 28.7503 104.717 28.369 105.006C27.9842 105.283 27.7194 105.642 27.5744 106.083C27.4261 106.511 27.4249 106.982 27.571 107.494C27.7102 107.983 27.9592 108.382 28.3181 108.692C28.665 109.005 29.1056 109.195 29.6399 109.262C30.1588 109.32 30.7451 109.23 31.3987 108.992C32.008 108.87 32.5161 108.642 32.923 108.307C33.3146 107.963 33.5778 107.553 33.7125 107.077C33.8439 106.589 33.8331 106.077 33.6803 105.54C33.5275 105.004 33.2853 104.584 32.9537 104.279C32.6187 103.962 32.23 103.751 31.7876 103.645L32.177 101.486C32.696 101.544 33.1919 101.725 33.6648 102.028C34.1376 102.331 34.5551 102.734 34.9172 103.236C35.276 103.727 35.5504 104.305 35.7406 104.973Z" fill="#0B2B3F"/>
<path d="M33.9378 95.3247C33.9912 96.0288 33.9202 96.6492 33.7249 97.1858C33.5295 97.7224 33.2264 98.1492 32.8156 98.4661C32.3925 98.7839 31.8906 98.9649 31.31 99.0089C30.7542 99.0511 30.2507 98.965 29.7996 98.7508C29.3362 98.5374 28.9365 98.1826 28.6007 97.6863C28.2649 97.19 28.0052 96.5512 27.8217 95.77L27.0342 92.5125L28.8872 92.372L29.5839 95.1704C29.707 95.6456 29.8885 95.9921 30.1287 96.21C30.3688 96.4278 30.668 96.5232 31.0263 96.496C31.3721 96.4697 31.6402 96.319 31.8306 96.0436C32.0076 95.7569 32.0811 95.4159 32.0511 95.0206C32.0127 94.5141 31.874 94.0774 31.6349 93.7104C31.3826 93.3319 31.057 93.0522 30.6581 92.8713C30.2583 92.678 29.8299 92.5987 29.3729 92.6333L26.7788 92.8301C26.3464 92.8629 26.0013 93.063 25.7434 93.4304C25.4723 93.7864 25.3578 94.2424 25.3999 94.7983C25.4393 95.3171 25.6165 95.7695 25.9315 96.1556C26.2333 96.5303 26.6197 96.7929 27.0908 96.9436L26.2777 98.9993C25.7315 98.8419 25.251 98.5678 24.8362 98.1768C24.4081 97.7744 24.0609 97.2914 23.7945 96.7277C23.5281 96.164 23.3692 95.5424 23.3176 94.863C23.2549 94.0354 23.354 93.2949 23.615 92.6414C23.8637 91.989 24.2467 91.4692 24.764 91.0821C25.268 90.6836 25.8782 90.4571 26.5947 90.4028L33.3022 89.894L33.4765 92.1916L31.7533 92.3223L31.6769 91.8063C32.1289 92.0329 32.5167 92.3141 32.8404 92.6499C33.1517 92.9866 33.4049 93.3773 33.6002 93.8222C33.7831 94.268 33.8956 94.7689 33.9378 95.3247Z" fill="#0B2B3F"/>
<path d="M33.4894 87.3952L23.4129 86.5874L23.5955 84.3091L25.8368 84.4887L25.4885 84.6472C24.7541 84.3522 24.2585 83.9459 24.0017 83.4282C23.7459 82.8981 23.6462 82.2812 23.7027 81.5773L23.7502 80.9846L25.8988 81.1568L25.8291 82.0274C25.7736 82.7189 25.9452 83.2919 26.3437 83.7464C26.7299 84.1999 27.3058 84.4574 28.0714 84.5187L33.6839 84.9687L33.4894 87.3952Z" fill="#0B2B3F"/>
<path d="M34.0393 80.8649L24.2102 78.5033L24.7442 76.2809L26.6775 76.7454L26.2908 76.8436C25.7556 76.4729 25.3996 75.9924 25.2229 75.4021C25.0371 74.7969 25.0281 74.1449 25.1959 73.4463C25.3696 72.7236 25.6796 72.1228 26.1259 71.6439C26.5751 71.1531 27.1204 70.819 27.7618 70.6419C28.3911 70.4618 29.0732 70.4601 29.808 70.6366L36.1318 72.1561L35.5631 74.523L29.7994 73.1381C29.3657 73.0339 28.9721 73.0285 28.6184 73.1219C28.2647 73.2153 27.9673 73.3923 27.7263 73.6529C27.4762 73.8986 27.3033 74.2202 27.2078 74.6177C27.1152 75.0032 27.1231 75.3682 27.2314 75.7127C27.3277 76.0544 27.5122 76.3471 27.7848 76.591C28.0575 76.8349 28.4106 77.0089 28.8443 77.1131L34.608 78.498L34.0393 80.8649Z" fill="#0B2B3F"/>
<path d="M38.0414 66.8106L26.1475 59.7263L27.3837 57.6508L36.0874 56.8006L35.4979 57.7904L32.0432 49.828L33.2794 47.7525L45.1733 54.8369L43.8705 57.0241L34.4512 51.4137L35.1627 50.6911L38.4904 58.7942L38.3382 59.0496L29.6949 59.871L29.9153 59.0289L39.3346 64.6394L38.0414 66.8106Z" fill="#0B2B3F"/>
<path d="M50.2795 50.2207C49.5745 50.9173 48.7701 51.3898 47.8663 51.6384C46.9713 51.8782 46.0734 51.8859 45.1725 51.6614C44.2804 51.4283 43.4774 50.9504 42.7634 50.2277C42.0495 49.5051 41.5814 48.6963 41.359 47.8014C41.1455 46.8979 41.1641 46.0001 41.4148 45.1081C41.6655 44.2161 42.1477 43.4175 42.8616 42.7122C43.5666 42.0157 44.3666 41.5475 45.2616 41.3077C46.1565 41.0678 47.0501 41.0645 47.9422 41.2977C48.8344 41.5133 49.6418 41.9869 50.3645 42.7183C51.0784 43.441 51.5421 44.2541 51.7556 45.1577C51.9692 46.0612 51.9506 46.959 51.6999 47.851C51.4492 48.743 50.9757 49.5329 50.2795 50.2207ZM48.7124 48.6344C49.1001 48.2513 49.348 47.8236 49.456 47.3512C49.5728 46.8701 49.5538 46.3838 49.3991 45.8923C49.2445 45.3833 48.9626 44.9217 48.5534 44.5075C48.1355 44.0845 47.6817 43.8014 47.192 43.6583C46.7024 43.4977 46.2164 43.4728 45.7339 43.5838C45.2516 43.6772 44.8165 43.9155 44.4287 44.2985C44.0322 44.6903 43.7798 45.1312 43.6717 45.6211C43.5549 46.1022 43.5695 46.5928 43.7154 47.093C43.8614 47.5757 44.1433 48.0286 44.5612 48.4516C44.9704 48.8658 45.4242 49.1576 45.9225 49.3271C46.4209 49.479 46.9113 49.4995 47.3938 49.3886C47.8762 49.2776 48.3158 49.0262 48.7124 48.6344Z" fill="#0B2B3F"/>
<path d="M55.801 45.1084L50.0099 36.8228L51.8833 35.5134L53.1714 37.3563L52.8275 37.1886C52.5875 36.4344 52.5854 35.7935 52.8212 35.2659C53.0672 34.7312 53.4796 34.2616 54.0584 33.8571L54.5458 33.5165L55.7806 35.2832L55.0648 35.7836C54.4962 36.181 54.1634 36.6781 54.0666 37.2748C53.9627 37.8613 54.1307 38.4693 54.5707 39.0989L57.7963 43.7138L55.801 45.1084Z" fill="#0B2B3F"/>
<path d="M65.6253 39.4607C64.6868 39.9102 63.7639 40.0913 62.8567 40.0039C61.9494 39.9165 61.1264 39.6034 60.3875 39.0645C59.6485 38.5256 59.0677 37.8148 58.6449 36.9322C58.206 36.016 58.0136 35.1123 58.0674 34.2211C58.1271 33.3134 58.3987 32.4897 58.8822 31.7498C59.3769 31.0046 60.0488 30.4286 60.8979 30.0219C61.613 29.6794 62.2949 29.497 62.9435 29.4747C63.6034 29.4471 64.2222 29.549 64.8001 29.7804C65.378 30.0119 65.8959 30.3476 66.3539 30.7875C66.8066 31.2163 67.1801 31.7379 67.4744 32.3524C67.5494 32.5088 67.6158 32.6762 67.6737 32.8545C67.7428 33.0274 67.7845 33.186 67.7986 33.3303L60.7599 36.702L59.9571 35.0261L65.7557 32.2485L65.094 33.5339C64.9483 32.9718 64.701 32.5271 64.3519 32.1998C64.014 31.8672 63.6157 31.6665 63.1569 31.5978C62.7094 31.5237 62.2454 31.6017 61.7649 31.8319C61.3069 32.0513 60.9553 32.3639 60.7101 32.7698C60.4596 33.1645 60.3465 33.6308 60.3706 34.1687C60.4006 34.6901 60.5877 35.2529 60.9321 35.8571C61.155 36.4372 61.4658 36.8996 61.8645 37.2443C62.2689 37.5725 62.7173 37.763 63.2096 37.8157C63.713 37.863 64.2161 37.7662 64.7189 37.5254C65.2216 37.2845 65.5953 36.975 65.84 36.5968C66.0958 36.2133 66.2387 35.7946 66.2685 35.3408L68.4624 35.3613C68.4924 35.8826 68.3977 36.4019 68.1784 36.919C67.9591 37.4362 67.6324 37.9155 67.1982 38.3569C66.7753 38.7931 66.251 39.161 65.6253 39.4607Z" fill="#0B2B3F"/>
<path d="M76.2531 28.5161L74.5791 27.7353L75.5451 25.6638L73.3071 25.3758L73.5264 23.5497L75.7608 23.8194L75.2906 21.4878L77.1121 21.1204L77.5824 23.452L79.5376 22.3374L80.4476 23.9357L78.4961 25.0686L80.1895 26.6038L78.9308 27.9761L77.2374 26.4409L76.2531 28.5161Z" fill="#0B2B3F"/>
<circle cx="90" cy="90" r="30" fill="#0B2B3F"/>
<g clip-path="url(#clip0_171_442)">
<path fill-rule="evenodd" clip-rule="evenodd" d="M96.179 81.6089C93.9161 83.8717 89.7063 83.7868 87.3482 81.4286L86.3814 80.4618L84.525 82.3181L85.4919 83.285C87.207 85.0001 89.538 85.8869 91.8528 85.9351L80.4001 97.3878L82.3338 99.3214L93.7865 87.8687C93.8347 90.1835 94.7214 92.5145 96.4365 94.2297L97.4034 95.1965L99.2597 93.3402L98.2929 92.3733C95.9348 90.0152 95.8498 85.8054 98.1127 83.5425L99.0408 82.6144L97.1071 80.6807L96.179 81.6089Z" fill="white"/>
</g>
<defs>
<clipPath id="clip0_171_442">
<rect width="28" height="28" fill="white" transform="translate(76 76)"/>
</clipPath>
</defs>
</svg>
