<svg width="50" height="50" viewBox="0 0 50 50" fill="none" xmlns="http://www.w3.org/2000/svg">
<rect width="50" height="50" rx="25" fill="#FBE87E"/>
<path d="M37.2383 32.484C36.6847 32.484 36.2343 32.0402 36.2343 31.4946C36.2343 30.949 36.6847 30.5052 37.2383 30.5052C38.761 30.5052 40 29.2842 40 27.7833C40 26.2824 38.761 25.0615 37.2383 25.0615H33.3723C33.1872 22.9141 32.3205 20.9555 30.9868 19.397L32.2437 18.1582C32.6141 18.3405 33.0315 18.4437 33.4728 18.4437C34.9957 18.4437 36.2345 17.2228 36.2345 15.7219C36.2345 14.2211 34.9957 13 33.4728 13C31.9501 13 30.711 14.221 30.711 15.7219C30.711 16.157 30.8156 16.5681 31.0007 16.9334L29.7438 18.1721C27.9519 16.6827 25.6394 15.7836 23.1173 15.7836C20.5952 15.7836 18.2826 16.6827 16.4907 18.1721L15.2338 16.9334C15.4187 16.5681 15.5235 16.157 15.5235 15.7219C15.5235 14.2211 14.2846 13 12.7617 13C11.239 13 10 14.221 10 15.7219C10 17.2228 11.239 18.4437 12.7617 18.4437C13.2032 18.4437 13.6204 18.3406 13.9908 18.1582L15.2477 19.397C13.7365 21.163 12.8242 23.4421 12.8242 25.9278C12.8242 28.4133 13.7365 30.6926 15.2477 32.4586L12.1402 35.5212C11.797 35.8595 11.797 36.4079 12.1402 36.7463C12.4834 37.0846 13.04 37.0846 13.3832 36.7463L16.4907 33.6837C18.2826 35.1731 20.5952 36.0722 23.1173 36.0722C25.6394 36.0722 27.9519 35.1731 29.7438 33.6837L32.8513 36.7463C33.1944 37.0846 33.751 37.0844 34.0943 36.7463C34.4376 36.4081 34.4376 35.8595 34.0943 35.5212L30.9868 32.4586C32.3206 30.9001 33.1872 28.9415 33.3723 26.7941H37.2383C37.7918 26.7941 38.2422 27.2379 38.2422 27.7835C38.2422 28.3291 37.7917 28.7729 37.2383 28.7729C35.7155 28.7729 34.4765 29.9939 34.4765 31.4948C34.4765 32.9955 35.7154 34.2166 37.2383 34.2166C37.7918 34.2166 38.2422 34.6605 38.2422 35.2061C38.2422 35.6844 38.6357 36.0722 39.121 36.0722C39.6065 36.0722 40 35.6844 40 35.2061C40.0002 33.705 38.7611 32.484 37.2383 32.484ZM33.4728 14.7324C34.0264 14.7324 34.4767 15.1763 34.4767 15.7219C34.4767 16.2675 34.0262 16.7113 33.4728 16.7113C32.9192 16.7113 32.4689 16.2675 32.4689 15.7219C32.4689 15.1763 32.9192 14.7324 33.4728 14.7324ZM12.7619 16.7113C12.2083 16.7113 11.758 16.2675 11.758 15.7219C11.758 15.1763 12.2085 14.7324 12.7619 14.7324C13.3155 14.7324 13.7658 15.1763 13.7658 15.7219C13.7658 16.2675 13.3155 16.7113 12.7619 16.7113ZM25.879 17.968C26.5957 18.2103 27.27 18.5438 27.8868 18.955V26.9172H25.879V17.968ZM23.1173 17.5158C23.457 17.5158 23.7918 17.5361 24.1212 17.5742V19.4947H17.6246C19.1103 18.2607 21.027 17.5158 23.1173 17.5158ZM16.0425 21.2271H24.1214V23.2059H15.041C15.2869 22.4994 15.6253 21.835 16.0425 21.2271ZM24.1212 24.9384V26.9172H22.1134V24.9384H24.1212ZM16.59 31.3411C15.338 29.8771 14.5822 27.9878 14.5822 25.9278C14.5822 25.593 14.6027 25.263 14.6417 24.9384H16.59V31.3411ZM20.3555 33.8876C19.6387 33.6453 18.9645 33.3118 18.3477 32.9008V24.9386H20.3555V33.8876ZM23.1173 34.3396C22.7777 34.3396 22.4429 34.3193 22.1134 34.281V32.3607H28.6099C27.1244 33.5949 25.2077 34.3396 23.1173 34.3396ZM30.1922 30.6285H22.1134V28.6496H31.1935C30.9479 29.356 30.6095 30.0204 30.1922 30.6285ZM31.5931 26.9172H29.6447V20.5145C30.8967 21.9785 31.6525 23.8678 31.6525 25.9278C31.6525 26.2624 31.6318 26.5926 31.5931 26.9172Z" fill="#0B2B3F"/>
</svg>
