<svg width="50" height="43" viewBox="0 0 50 43" fill="none" xmlns="http://www.w3.org/2000/svg">
<path d="M20.7018 43V28.3213C20.7018 20.7229 18.9474 14.506 15.4386 9.67068C11.9298 4.72021 6.78362 1.49665 0 0V7.77109C3.74269 8.6921 6.49123 10.419 8.24562 12.9518C10 15.3695 11.1111 18.4779 11.579 22.2771H3.50878V43H20.7018ZM50 43V28.3213C50 20.7229 48.3041 14.506 44.9123 9.67068C41.4035 4.72021 36.2573 1.49665 29.4737 0V7.77109C33.0994 8.6921 35.848 10.419 37.7193 12.9518C39.4737 15.3695 40.5263 18.4779 40.8772 22.2771H32.9825V43H50Z" fill="#0B2B3F"/>
</svg>
