<svg width="40" height="40" viewBox="0 0 40 40" fill="none" xmlns="http://www.w3.org/2000/svg">
<g clip-path="url(#clip0_383_7915)">
<path d="M0.393862 27.2594C1.2186 31.1667 4.304 35.7966 9.12895 36.7284C10.314 36.945 11.5314 36.9077 12.701 36.6191C13.8705 36.3305 14.9656 35.7971 15.9138 35.0542C16.992 34.2457 17.8665 33.1965 18.4676 31.9904C19.0687 30.7842 19.3798 29.4543 19.3762 28.1066C19.3725 26.7589 19.0542 25.4307 18.4466 24.2278C17.839 23.0249 16.9588 21.9805 15.8762 21.1778C14.7632 20.3103 13.4523 19.7327 12.0609 19.4969C10.6696 19.2611 9.24155 19.3743 7.90483 19.8266C7.84001 19.85 7.77037 19.857 7.70219 19.8468C7.63401 19.8366 7.56944 19.8096 7.5143 19.7682C7.45774 19.7258 7.41263 19.67 7.38302 19.6058C7.35341 19.5416 7.34023 19.471 7.34468 19.4004C7.7349 10.7631 15.4814 7.38631 17.0305 6.7969C17.2732 6.70478 17.4774 6.53273 17.6094 6.30909C17.7413 6.08545 17.7932 5.82355 17.7564 5.56649C17.7564 5.56649 17.5588 4.11616 17.5586 4.11447C17.532 3.94361 17.4677 3.78082 17.3704 3.63791C17.2731 3.495 17.1451 3.37557 16.9959 3.28829C16.8466 3.20101 16.6798 3.14808 16.5075 3.13333C16.3352 3.11858 16.1618 3.1424 15.9999 3.20304C-1.67716 10.3795 -0.414242 23.4302 0.393862 27.2594ZM16.3373 4.41543L16.5068 5.65867C14.6623 6.37597 6.51439 10.0654 6.09516 19.344C6.08113 19.6176 6.13458 19.8905 6.25082 20.1386C6.36706 20.3867 6.54251 20.6025 6.76174 20.7668C6.98096 20.9312 7.23724 21.0391 7.50799 21.0812C7.77875 21.1232 8.05569 21.098 8.31442 21.0078C9.45597 20.6236 10.675 20.5288 11.8623 20.7318C13.0495 20.9348 14.1678 21.4294 15.1168 22.1711C16.0469 22.8573 16.8034 23.7518 17.3258 24.7828C17.8482 25.8138 18.122 26.9528 18.1253 28.1087C18.1286 29.2645 17.8614 30.405 17.3449 31.4391C16.8284 32.4731 16.077 33.3718 15.1509 34.0634C14.3433 34.6986 13.41 35.1552 12.4128 35.403C11.4156 35.6507 10.3772 35.6841 9.36622 35.5008C5.10125 34.6772 2.35984 30.5175 1.61769 27.0011C0.862118 23.4216 -0.302355 11.2372 16.3373 4.41543Z" fill="#FBE87E"/>
<path d="M12.7209 33.1247C12.7978 33.0954 12.8682 33.0512 12.9279 32.9947C12.9877 32.9382 13.0358 32.8704 13.0693 32.7953C13.1028 32.7201 13.1212 32.6391 13.1233 32.5569C13.1255 32.4746 13.1114 32.3928 13.0818 32.316C13.0522 32.2392 13.0078 32.169 12.9511 32.1094C12.8943 32.0499 12.8264 32.0021 12.7511 31.9688C12.6758 31.9356 12.5948 31.9175 12.5125 31.9157C12.4302 31.9138 12.3484 31.9282 12.2718 31.9581C12.2484 31.9672 9.94501 32.8283 8.60529 31.1712C8.5011 31.0422 8.34993 30.9598 8.18504 30.9423C8.02014 30.9247 7.85503 30.9734 7.72603 31.0776C7.59702 31.1818 7.51468 31.333 7.49713 31.4978C7.47958 31.6627 7.52826 31.8279 7.63244 31.9569C9.53827 34.3139 12.5917 33.1745 12.7209 33.1247Z" fill="#0B2B3F"/>
<path d="M29.7539 36.7284C30.939 36.945 32.1564 36.9077 33.326 36.6191C34.4955 36.3305 35.5905 35.7972 36.5388 35.0542C37.617 34.2457 38.4915 33.1966 39.0926 31.9904C39.6937 30.7842 40.0048 29.4543 40.0012 28.1066C39.9975 26.7589 39.6792 25.4307 39.0716 24.2278C38.464 23.0249 37.5838 21.9805 36.5012 21.1778C35.3882 20.3103 34.0773 19.7328 32.6859 19.4969C31.2946 19.2611 29.8666 19.3743 28.5298 19.8266C28.465 19.85 28.3954 19.857 28.3272 19.8468C28.259 19.8366 28.1944 19.8096 28.1393 19.7683C28.0827 19.7258 28.0376 19.67 28.008 19.6058C27.9784 19.5416 27.9652 19.471 27.9697 19.4004C28.3599 10.7631 36.1064 7.38632 37.6555 6.79691C37.8982 6.70478 38.1024 6.53274 38.2344 6.3091C38.3663 6.08546 38.4182 5.82355 38.3814 5.5665C38.3814 5.5665 38.1838 4.11617 38.1836 4.11447C38.157 3.94362 38.0927 3.78082 37.9954 3.63792C37.8981 3.49501 37.7701 3.37558 37.6209 3.2883C37.4716 3.20102 37.3048 3.14808 37.1325 3.13334C36.9602 3.11859 36.7868 3.1424 36.6249 3.20305C18.9478 10.3795 20.2108 23.4302 21.0189 27.2594C21.8436 31.1667 24.929 35.7966 29.7539 36.7284ZM36.9623 4.41543L37.1318 5.65868C35.2873 6.37598 27.1394 10.0654 26.7202 19.344C26.7061 19.6176 26.7596 19.8905 26.8758 20.1386C26.9921 20.3867 27.1675 20.6025 27.3867 20.7668C27.606 20.9312 27.8622 21.0391 28.133 21.0812C28.4038 21.1232 28.6807 21.098 28.9394 21.0078C30.081 20.6236 31.3 20.5288 32.4873 20.7318C33.6745 20.9348 34.7928 21.4294 35.7418 22.1711C36.6719 22.8573 37.4284 23.7518 37.9508 24.7828C38.4732 25.8138 38.747 26.9528 38.7503 28.1087C38.7536 29.2645 38.4864 30.4051 37.9699 31.4391C37.4534 32.4731 36.702 33.3718 35.7759 34.0634C34.9683 34.6986 34.035 35.1552 33.0378 35.403C32.0406 35.6508 31.0022 35.6841 29.9912 35.5008C25.7263 34.6773 22.9848 30.5175 22.2427 27.0012C21.4871 23.4216 20.3227 11.2372 36.9623 4.41543Z" fill="#FBE87E"/>
<path d="M33.3459 33.1247C33.4228 33.0954 33.4932 33.0512 33.5529 32.9947C33.6127 32.9382 33.6608 32.8704 33.6943 32.7953C33.7278 32.7201 33.7462 32.6391 33.7483 32.5569C33.7505 32.4746 33.7364 32.3928 33.7068 32.316C33.6772 32.2392 33.6328 32.169 33.5761 32.1094C33.5193 32.0499 33.4514 32.0021 33.3761 31.9688C33.3008 31.9356 33.2198 31.9175 33.1375 31.9157C33.0552 31.9138 32.9734 31.9282 32.8968 31.9581C32.8734 31.9672 30.57 32.8283 29.2303 31.1712C29.1236 31.0458 28.9729 30.9662 28.8092 30.9489C28.6455 30.9315 28.4814 30.9776 28.3507 31.0778C28.2869 31.1294 28.2338 31.193 28.1946 31.2651C28.1553 31.3372 28.1306 31.4163 28.122 31.498C28.1133 31.5796 28.1208 31.6622 28.1441 31.7409C28.1673 31.8196 28.2058 31.893 28.2574 31.9568C30.1633 34.3139 33.2167 33.1745 33.3459 33.1247Z" fill="#0B2B3F"/>
</g>
<defs>
<clipPath id="clip0_383_7915">
<rect width="40" height="40" fill="white" transform="matrix(-1 0 0 -1 40 40)"/>
</clipPath>
</defs>
</svg>
