<svg width="705" height="584" viewBox="0 0 705 584" fill="none" xmlns="http://www.w3.org/2000/svg">
<path d="M619.663 270.186C639.185 250.66 670.836 250.66 690.358 270.186C709.88 289.712 709.88 321.37 690.358 340.897L462.728 568.576C443.206 588.103 411.555 588.103 392.033 568.576C372.511 549.05 372.511 517.392 392.033 497.866L619.663 270.186ZM584.56 152.928C604.082 133.402 635.733 133.402 655.255 152.928C674.777 172.454 674.777 204.112 655.255 223.638L329.795 549.17C310.273 568.696 278.621 568.696 259.099 549.17C239.578 529.644 239.578 497.986 259.099 478.46L584.56 152.928ZM417.804 168.123C437.325 148.597 468.977 148.597 488.499 168.123C508.021 187.649 508.021 219.308 488.499 238.834L184.51 542.89C164.988 562.416 133.336 562.416 113.814 542.89C94.2925 523.364 94.2924 491.705 113.814 472.179L417.804 168.123ZM417.401 15.1232C436.923 -4.40289 468.575 -4.40286 488.097 15.1232C507.618 34.6494 507.618 66.3079 488.097 85.8341L144.518 429.488C124.996 449.014 93.3449 449.015 73.8231 429.488C54.3012 409.962 54.3013 378.304 73.8231 358.777L417.401 15.1232ZM265.608 14.6447C285.13 -4.88155 316.782 -4.88152 336.304 14.6447C355.825 34.1709 355.825 65.8294 336.304 85.3556L85.3358 336.378C65.8139 355.904 34.1633 355.904 14.6414 336.378C-4.88048 316.852 -4.88048 285.193 14.6414 265.667L265.608 14.6447Z" fill="black"/>
</svg>
