<svg width="200" height="200" viewBox="0 0 200 200" fill="none" xmlns="http://www.w3.org/2000/svg">
<path d="M96.2998 10.6592C97.5614 7.11384 102.575 7.11384 103.837 10.6592L117.727 49.6914C118.521 51.9238 121.071 52.9804 123.211 51.9639L160.609 34.1973C164.008 32.5826 167.554 36.1276 165.939 39.5264L148.173 76.9248C147.156 79.065 148.212 81.6156 150.444 82.4102L189.478 96.2998C193.023 97.5614 193.023 102.575 189.478 103.837L150.444 117.727C148.212 118.521 147.156 121.071 148.173 123.211L165.939 160.609C167.554 164.008 164.008 167.554 160.609 165.939L123.211 148.173C121.071 147.156 118.521 148.212 117.727 150.444L103.837 189.478C102.575 193.023 97.5614 193.023 96.2998 189.478L82.4101 150.444C81.6156 148.212 79.065 147.156 76.9248 148.173L39.5273 165.939C36.1284 167.554 32.5826 164.008 34.1973 160.609L51.9639 123.211C52.9804 121.071 51.9237 118.521 49.6914 117.727L10.6592 103.837C7.11383 102.575 7.11383 97.5614 10.6592 96.2998L49.6914 82.4102C51.9239 81.6157 52.9807 79.0652 51.9639 76.9248L34.1973 39.5273C32.5826 36.1284 36.1284 32.5826 39.5273 34.1973L76.9248 51.9639C79.0652 52.9807 81.6157 51.9239 82.4101 49.6914L96.2998 10.6592Z" fill="#D9D9D9"/>
</svg>
