<svg width="140" height="140" viewBox="0 0 140 140" fill="none" xmlns="http://www.w3.org/2000/svg">
<path d="M73.4951 12.6144L71.9375 0L74.3198 0.334311L75.4276 11.0553L74.8076 10.9683L78.9376 0.982325L81.2384 1.30519L82.4441 12.04L81.824 11.9529L85.8399 1.95091L88.2222 2.28522L83.2529 13.9837L80.7073 13.6265L79.4301 3.16454L80.148 3.26529L76.0406 12.9716L73.4951 12.6144Z" fill="white"/>
<path d="M90.7333 16.8416C89.9163 16.5179 89.2457 16.0336 88.7214 15.3886C88.2073 14.7478 87.8806 14.0216 87.7413 13.2102C87.6122 12.4029 87.7135 11.5805 88.0453 10.7431C88.3771 9.90565 88.8665 9.23703 89.5136 8.73719C90.1708 8.2414 90.9062 7.93609 91.7197 7.82124C92.5332 7.70639 93.3536 7.81284 94.1808 8.14059C94.9978 8.4643 95.6633 8.94659 96.1774 9.58746C96.6915 10.2283 97.0131 10.9524 97.1422 11.7598C97.2856 12.561 97.1894 13.3854 96.8535 14.233C96.5217 15.0705 96.0272 15.7371 95.3699 16.2328C94.7127 16.7286 93.9773 17.034 93.1638 17.1488C92.3503 17.2636 91.5401 17.1612 90.7333 16.8416ZM91.4617 15.0033C91.911 15.1814 92.3467 15.2299 92.7687 15.149C93.2009 15.0721 93.5888 14.8832 93.9326 14.5822C94.2906 14.2751 94.5647 13.8815 94.7549 13.4015C94.9491 12.9113 95.0169 12.4419 94.9583 11.9934C94.914 11.5386 94.7607 11.1352 94.4985 10.7832C94.2505 10.425 93.9018 10.1569 93.4525 9.97883C92.9929 9.79675 92.545 9.74925 92.1088 9.83635C91.6766 9.91324 91.2835 10.1001 90.9295 10.3971C90.5898 10.6878 90.3229 11.0783 90.1286 11.5685C89.9385 12.0485 89.8635 12.521 89.9038 12.9859C89.9583 13.4447 90.1167 13.8501 90.379 14.2022C90.6412 14.5542 91.0021 14.8213 91.4617 15.0033Z" fill="white"/>
<path d="M96.8536 19.4415L101.346 11.6852L103.1 12.701L102.101 14.4262L102.107 14.087C102.623 13.6118 103.138 13.3702 103.65 13.3623C104.172 13.36 104.704 13.5157 105.246 13.8295L105.702 14.0938L104.744 15.7477L104.074 15.3596C103.541 15.0512 103.017 14.9698 102.501 15.1153C101.991 15.2513 101.565 15.6139 101.224 16.2032L98.7214 20.5234L96.8536 19.4415Z" fill="white"/>
<path d="M101.846 22.3695L109.453 12.4844L111.164 13.8008L106.18 20.2777L105.677 19.5794L111.713 18.6523L113.842 20.2902L109.016 21.1302L108.428 27.4342L106.469 25.9268L106.978 20.4557L108.158 21.0306L104.247 21.6808L105.587 21.0481L103.557 23.6859L101.846 22.3695Z" fill="white"/>
<path d="M112.961 32.0777L120.846 22.1094L122.281 24.04L115.428 32.3584L115.054 31.8559L125.063 27.7823L126.45 29.6468L119.655 38.0446L119.281 37.5421L129.222 33.3759L130.657 35.3065L118.839 39.9854L117.306 37.9226L123.856 29.6655L124.288 30.2473L114.494 34.1406L112.961 32.0777Z" fill="white"/>
<path d="M120.693 43.7554L128.726 39.7781L129.684 41.7125L121.651 45.6898L120.693 43.7554ZM129.627 39.3322L131.694 38.3086L132.652 40.243L130.585 41.2666L129.627 39.3322Z" fill="white"/>
<path d="M123.78 51.1457C123.417 50.2027 123.391 49.3711 123.702 48.6508C124.027 47.9369 124.662 47.3983 125.605 47.0349L129.295 45.6132L128.738 44.1679L130.537 43.4748L130.596 43.6286C130.754 44.0386 130.984 44.3149 131.286 44.4574C131.588 44.6 131.944 44.5923 132.354 44.4343L133 44.1855L133.776 46.1997L131.87 46.9343L132.61 48.8562L130.811 49.5493L130.071 47.6274L126.488 49.0077C126.211 49.1143 125.994 49.2513 125.834 49.4186C125.679 49.5961 125.59 49.8071 125.566 50.0516C125.547 50.3064 125.6 50.5977 125.726 50.9258C125.754 50.9975 125.791 51.0775 125.836 51.1658C125.886 51.2644 125.934 51.3578 125.98 51.4461L124.258 52.1096C124.182 51.974 124.098 51.8179 124.007 51.6413C123.915 51.4647 123.84 51.2995 123.78 51.1457Z" fill="white"/>
<path d="M124.745 53.5211L136.906 50.748L137.386 52.8525L132.245 54.0248L132.484 53.666C133.055 53.7498 133.527 53.9915 133.9 54.3909C134.286 54.7987 134.55 55.3131 134.691 55.9343C134.838 56.5769 134.828 57.1763 134.662 57.7324C134.498 58.2993 134.197 58.7794 133.757 59.1726C133.328 59.5634 132.786 59.8333 132.133 59.9822L126.51 61.2643L126.03 59.1598L131.155 57.9913C131.541 57.9034 131.856 57.7527 132.1 57.5393C132.344 57.3258 132.511 57.0681 132.6 56.7662C132.702 56.4725 132.712 56.149 132.632 55.7956C132.554 55.4528 132.404 55.1659 132.182 54.9348C131.971 54.7013 131.709 54.5413 131.397 54.4548C131.084 54.3684 130.735 54.3691 130.349 54.457L125.225 55.6256L124.745 53.5211Z" fill="white"/>
<path d="M126.798 70.9012C126.811 69.9566 127.021 69.1191 127.427 68.3888C127.832 67.6694 128.384 67.1059 129.082 66.6983C129.78 66.2907 130.568 66.0931 131.447 66.1055L139.339 66.2168L139.307 68.4575L131.531 68.3478C131.025 68.3407 130.568 68.4441 130.158 68.658C129.749 68.8829 129.426 69.1915 129.19 69.5836C128.964 69.976 128.848 70.4247 128.841 70.93C128.834 71.4462 128.937 71.8981 129.151 72.2856C129.377 72.6843 129.691 72.9963 130.094 73.2218C130.497 73.4581 130.951 73.5799 131.457 73.587L139.233 73.6967L139.202 75.9374L131.31 75.8261C130.431 75.8137 129.649 75.5939 128.963 75.1668C128.276 74.7396 127.741 74.1553 127.356 73.4138C126.971 72.6833 126.785 71.8458 126.798 70.9012Z" fill="white"/>
<path d="M125.711 81.1169C125.893 80.1789 126.274 79.4024 126.852 78.7876C127.439 78.1857 128.141 77.8298 128.957 77.7201L129.409 79.4531C128.868 79.583 128.419 79.8201 128.061 80.1645C127.701 80.5196 127.473 80.9452 127.376 81.4412C127.301 81.8294 127.327 82.1535 127.456 82.4135C127.584 82.6735 127.789 82.8308 128.069 82.8854C128.242 82.9189 128.391 82.8977 128.518 82.8216C128.653 82.7585 128.774 82.6534 128.881 82.5063C128.997 82.3722 129.1 82.2187 129.189 82.0459L129.874 80.6851C130.234 79.9831 130.673 79.481 131.191 79.1789C131.706 78.8876 132.266 78.8007 132.87 78.9182C133.409 79.0231 133.852 79.2492 134.198 79.5964C134.554 79.9565 134.797 80.4012 134.929 80.9305C135.059 81.4706 135.062 82.0587 134.938 82.6949C134.777 83.5251 134.434 84.2195 133.912 84.778C133.389 85.3365 132.74 85.6802 131.965 85.8092L131.52 84.0438C131.948 83.9706 132.315 83.7791 132.622 83.4694C132.928 83.1598 133.125 82.7839 133.211 82.3418C133.28 81.986 133.254 81.6899 133.132 81.4536C133.01 81.2172 132.82 81.0739 132.561 81.0235C132.399 80.992 132.251 81.0079 132.115 81.071C131.98 81.1342 131.86 81.2339 131.755 81.3702C131.648 81.5172 131.542 81.6869 131.438 81.8792L130.743 83.2044C130.387 83.8849 129.955 84.3772 129.448 84.6814C128.939 84.9964 128.372 85.0931 127.747 84.9713C127.219 84.8685 126.777 84.637 126.422 84.2769C126.077 83.9189 125.84 83.4699 125.71 82.9298C125.58 82.3898 125.58 81.7855 125.711 81.1169Z" fill="white"/>
<path d="M128.535 93.333L129.936 92.484L130.987 94.2171L132.302 92.7094L133.54 93.7712L132.24 95.2852L134.19 96.0879L133.563 97.6117L131.613 96.809L131.471 98.7995L129.844 98.6824L129.971 96.6856L128.005 97.1771L127.614 95.5729L129.58 95.0814L128.535 93.333Z" fill="white"/>
<path d="M117.892 101.235L129.649 106.064L128.189 107.977L118.303 103.684L118.683 103.186L125.36 111.683L123.95 113.53L114.004 109.316L114.384 108.818L121.131 117.223L119.671 119.135L111.913 109.067L113.473 107.024L123.217 111.042L122.777 111.618L116.332 103.278L117.892 101.235Z" fill="white"/>
<path d="M105.751 114.21C106.432 113.655 107.183 113.306 108.001 113.164C108.812 113.028 109.605 113.097 110.381 113.372C111.149 113.654 111.817 114.144 112.386 114.842C112.954 115.541 113.299 116.294 113.419 117.103C113.531 117.919 113.438 118.709 113.141 119.475C112.844 120.241 112.351 120.905 111.661 121.467C110.979 122.022 110.233 122.367 109.423 122.503C108.613 122.639 107.824 122.566 107.056 122.284C106.287 122.018 105.614 121.532 105.039 120.825C104.47 120.126 104.13 119.369 104.018 118.553C103.906 117.738 103.999 116.947 104.296 116.181C104.593 115.415 105.078 114.758 105.751 114.21ZM106.999 115.743C106.625 116.048 106.37 116.405 106.234 116.813C106.09 117.227 106.066 117.658 106.16 118.105C106.254 118.567 106.463 118.999 106.789 119.399C107.122 119.808 107.499 120.096 107.919 120.264C108.337 120.448 108.764 120.511 109.199 120.454C109.633 120.412 110.037 120.239 110.412 119.934C110.795 119.622 111.056 119.254 111.193 118.831C111.336 118.416 111.365 117.982 111.279 117.528C111.191 117.09 110.981 116.666 110.648 116.257C110.322 115.857 109.946 115.561 109.521 115.369C109.094 115.192 108.663 115.132 108.227 115.189C107.792 115.246 107.383 115.431 106.999 115.743Z" fill="white"/>
<path d="M100.505 118.276L105.089 125.979L103.347 127.016L102.327 125.303L102.621 125.473C102.784 126.156 102.744 126.723 102.501 127.174C102.249 127.631 101.854 128.019 101.316 128.339L100.863 128.609L99.8855 126.967L100.551 126.571C101.08 126.256 101.406 125.838 101.53 125.317C101.66 124.805 101.551 124.256 101.203 123.671L98.65 119.38L100.505 118.276Z" fill="white"/>
<path d="M95.4949 121.219L100.408 132.684L98.4242 133.534L95.2049 126.022L96.0595 125.925L93.9218 131.645L91.4532 132.703L93.076 128.082L87.8618 124.49L90.1336 123.516L94.6597 126.632L93.5822 127.381L94.9237 123.651L94.822 125.128L93.5109 122.069L95.4949 121.219Z" fill="white"/>
<path d="M81.6262 126.161L86.4465 137.922L84.0601 138.226L80.1717 128.174L80.7928 128.095L79.4345 138.815L77.1298 139.109L73.1433 129.069L73.7644 128.99L72.5205 139.696L70.1341 140L71.8518 127.406L74.4016 127.082L78.3854 136.839L77.6663 136.931L79.0763 126.486L81.6262 126.161Z" fill="white"/>
<path d="M67.5526 127.175L67.0817 136.126L64.9262 136.013L65.397 127.062L67.5526 127.175ZM67.0289 137.13L66.9077 139.434L64.7522 139.32L64.8734 137.017L67.0289 137.13Z" fill="white"/>
<path d="M59.5972 126.248C60.5974 126.392 61.3354 126.777 61.8112 127.4C62.2746 128.034 62.434 128.85 62.2893 129.85L61.7231 133.764L63.256 133.986L62.98 135.894L62.8169 135.87C62.3821 135.807 62.0285 135.873 61.7563 136.066C61.4841 136.26 61.3166 136.574 61.2537 137.009L61.1546 137.694L59.0183 137.385L59.3108 135.363L57.2724 135.068L57.5484 133.16L59.5868 133.455L60.1365 129.655C60.1789 129.362 60.1662 129.105 60.0982 128.884C60.0194 128.662 59.8791 128.481 59.6774 128.34C59.4648 128.199 59.1846 128.103 58.8367 128.052C58.7606 128.041 58.6728 128.034 58.5734 128.031C58.4631 128.026 58.3583 128.022 58.2589 128.019L58.5231 126.192C58.6784 126.193 58.8555 126.196 59.0544 126.202C59.2532 126.209 59.4341 126.224 59.5972 126.248Z" fill="white"/>
<path d="M57.0676 125.93L53.5405 137.895L51.4701 137.284L52.9611 132.227L53.157 132.611C52.8046 133.068 52.3631 133.362 51.8323 133.491C51.288 133.629 50.7102 133.607 50.0991 133.427C49.4669 133.241 48.9489 132.939 48.5449 132.522C48.1305 132.102 47.8593 131.604 47.7313 131.028C47.6003 130.463 47.6295 129.859 47.8189 129.216L49.4497 123.685L51.5201 124.295L50.0338 129.337C49.922 129.716 49.8994 130.064 49.9662 130.382C50.0329 130.699 50.1763 130.971 50.3962 131.196C50.6025 131.428 50.8795 131.596 51.2272 131.698C51.5644 131.798 51.8879 131.807 52.198 131.727C52.5049 131.657 52.7724 131.507 53.0007 131.276C53.229 131.046 53.399 130.741 53.5108 130.362L54.9971 125.32L57.0676 125.93Z" fill="white"/>
<path d="M40.9463 119.235C41.763 119.709 42.3901 120.303 42.8276 121.015C43.2556 121.721 43.4761 122.478 43.4891 123.286C43.5021 124.094 43.2878 124.878 42.846 125.638L38.8789 132.461L36.9417 131.335L40.8508 124.611C41.1048 124.174 41.239 123.725 41.2533 123.263C41.2582 122.796 41.1477 122.363 40.9218 121.965C40.6903 121.576 40.3562 121.255 39.9194 121.001C39.473 120.741 39.0285 120.61 38.5857 120.607C38.1279 120.607 37.7018 120.728 37.3076 120.969C36.9039 121.204 36.5751 121.541 36.3211 121.977L32.4119 128.701L30.4746 127.574L34.4418 120.751C34.8835 119.992 35.4587 119.418 36.1674 119.029C36.8761 118.641 37.648 118.46 38.483 118.489C39.3086 118.511 40.1297 118.76 40.9463 119.235Z" fill="white"/>
<path d="M32.5839 113.276C33.3117 113.896 33.8016 114.608 34.0535 115.414C34.2899 116.221 34.2558 117.007 33.9511 117.772L32.2195 117.315C32.3713 116.781 32.3849 116.273 32.2605 115.792C32.1277 115.304 31.8689 114.896 31.484 114.569C31.1829 114.313 30.8875 114.177 30.5979 114.161C30.3083 114.145 30.071 114.246 29.8859 114.464C29.772 114.598 29.7171 114.738 29.7212 114.886C29.7098 115.035 29.7419 115.192 29.8176 115.358C29.8778 115.524 29.9612 115.689 30.0678 115.852L30.9177 117.116C31.3525 117.774 31.5746 118.403 31.5839 119.003C31.5848 119.595 31.386 120.125 30.9873 120.594C30.6314 121.012 30.2171 121.287 29.7446 121.418C29.2565 121.551 28.7495 121.545 28.2236 121.401C27.6892 121.249 27.1753 120.963 26.6817 120.543C26.0375 119.995 25.6004 119.356 25.3702 118.626C25.14 117.897 25.1588 117.163 25.4266 116.424L27.1834 116.902C27.0371 117.311 27.0237 117.726 27.1432 118.144C27.2626 118.563 27.4938 118.919 27.8368 119.211C28.1129 119.446 28.3838 119.568 28.6496 119.578C28.9153 119.588 29.1336 119.492 29.3044 119.291C29.4112 119.166 29.4703 119.029 29.4817 118.88C29.4931 118.731 29.4651 118.577 29.3978 118.419C29.3222 118.253 29.2262 118.078 29.11 117.893L28.2959 116.637C27.8777 115.993 27.6605 115.375 27.6441 114.785C27.6193 114.186 27.8133 113.645 28.2262 113.16C28.5751 112.75 28.9935 112.478 29.4815 112.346C29.9624 112.221 30.4701 112.235 31.0044 112.387C31.5387 112.538 32.0652 112.835 32.5839 113.276Z" fill="white"/>
<path d="M20.5611 109.773L20.6181 111.41L18.5926 111.481L19.2661 113.365L17.735 113.927L17.0486 112.053L15.3958 113.363L14.3722 112.072L16.0251 110.761L14.3573 109.665L15.2538 108.303L16.9345 109.389L17.4656 107.433L19.0565 107.875L18.5254 109.831L20.5611 109.773Z" fill="white"/>
<path d="M18.8543 96.6275L8.90039 104.531L7.94407 102.324L16.5165 95.7908L16.7654 96.3653L6.09039 98.045L5.16682 95.9132L13.7 89.2894L13.9489 89.864L3.31969 91.6495L2.36337 89.4421L14.9373 87.5862L15.9591 89.9448L7.69614 96.4874L7.40794 95.8222L17.8325 94.2689L18.8543 96.6275Z" fill="white"/>
<path d="M13.4789 79.7024C13.6282 80.5684 13.5642 81.3932 13.2868 82.1767C13.0076 82.9494 12.5579 83.6065 11.9379 84.1481C11.316 84.6789 10.5612 85.0208 9.67354 85.1738C8.78587 85.3268 7.96018 85.2574 7.19646 84.9655C6.43088 84.6627 5.78717 84.194 5.26535 83.5594C4.74353 82.9248 4.40704 82.1691 4.2559 81.2923C4.10662 80.4263 4.1716 79.6069 4.45084 78.8342C4.73008 78.0616 5.18065 77.4098 5.80255 76.879C6.41177 76.3393 7.16562 75.992 8.06411 75.8371C8.95177 75.6841 9.7784 75.759 10.544 76.0617C11.3096 76.3645 11.9533 76.8332 12.4751 77.4678C12.9969 78.1024 13.3315 78.8472 13.4789 79.7024ZM11.5304 80.0383C11.4483 79.562 11.2628 79.1648 10.9739 78.8468C10.6831 78.5179 10.3197 78.2852 9.88376 78.1485C9.43508 78.0029 8.95635 77.974 8.44757 78.0617C7.92796 78.1513 7.49197 78.3379 7.13958 78.6216C6.7745 78.8963 6.51002 79.2373 6.34614 79.6445C6.16956 80.0428 6.12232 80.4801 6.20443 80.9564C6.2884 81.4435 6.48118 81.8506 6.78278 82.1776C7.07356 82.5065 7.43787 82.7446 7.87572 82.8921C8.30088 83.0306 8.77326 83.0551 9.29287 82.9655C9.80166 82.8778 10.244 82.6956 10.6199 82.4191C10.9831 82.1335 11.2467 81.7871 11.4105 81.3799C11.5744 80.9726 11.6144 80.5254 11.5304 80.0383Z" fill="white"/>
<path d="M12.5081 73.1242L3.54708 73.3414L3.49797 71.3152L5.49113 71.2669L5.19862 71.4389C4.52369 71.2464 4.04912 70.9338 3.77491 70.5009C3.50044 70.0571 3.35562 69.5222 3.34045 68.8962L3.32768 68.3691L5.23848 68.3228L5.25724 69.097C5.27215 69.7119 5.4763 70.2015 5.8697 70.5655C6.25213 70.9298 6.78377 71.1038 7.46463 71.0873L12.4558 70.9663L12.5081 73.1242Z" fill="white"/>
<path d="M12.4023 67.2509L0 65.9219L0.229986 63.7756L8.35618 64.6464L8.02264 65.4393L4.08132 60.7746L4.36748 58.1041L7.60258 61.7817L13.2871 58.9936L13.0238 61.4511L8.09113 63.8723L7.96593 62.5663L10.5615 65.5622L9.3228 64.75L12.6323 65.1046L12.4023 67.2509Z" fill="white"/>
<path d="M14.8776 52.733L2.2627 51.1797L3.1657 48.9499L13.8347 50.4796L13.5997 51.06L4.91606 44.6278L5.78814 42.4744L16.4943 43.9125L16.2592 44.4929L7.53231 38.1676L8.43532 35.9379L18.5762 43.6002L17.6114 45.9826L7.15253 44.6803L7.42467 44.0083L15.8425 50.3505L14.8776 52.733Z" fill="white"/>
<path d="M20.8426 40.0476L13.2722 35.248L14.428 33.425L21.9984 38.2246L20.8426 40.0476ZM12.4234 34.7098L10.4751 33.4746L11.6309 31.6516L13.5791 32.8868L12.4234 34.7098Z" fill="white"/>
<path d="M25.5514 33.5725C24.9348 34.3732 24.238 34.8279 23.461 34.9367C22.682 35.03 21.8922 34.7683 21.0915 34.1517L17.9584 31.7388L17.0133 32.9659L15.486 31.7896L15.5865 31.6591C15.8546 31.311 15.971 30.9708 15.9357 30.6386C15.9004 30.3064 15.7087 30.0062 15.3605 29.7381L14.8122 29.3158L16.1293 27.6057L17.748 28.8524L19.0048 27.2205L20.5322 28.3968L19.2754 30.0286L22.3171 32.3712C22.5521 32.5521 22.7825 32.6671 23.0081 32.7161C23.2405 32.7565 23.4673 32.7231 23.6883 32.6161C23.9161 32.5003 24.1372 32.3032 24.3517 32.0247C24.3986 31.9638 24.4479 31.8908 24.4995 31.8058C24.5579 31.7121 24.6128 31.6227 24.6644 31.5376L26.1266 32.6637C26.0501 32.7989 25.9603 32.9516 25.8571 33.1216C25.7538 33.2917 25.6519 33.442 25.5514 33.5725Z" fill="white"/>
<path d="M27.0714 31.5242L18.3613 22.5957L19.9064 21.0884L23.5883 24.8627L23.1574 24.8457C22.931 24.3147 22.8909 23.7859 23.0372 23.2595C23.1838 22.7176 23.4851 22.2241 23.9411 21.7792C24.4129 21.319 24.9294 21.0147 25.4905 20.8663C26.0595 20.7102 26.6265 20.7172 27.1914 20.8873C27.7487 21.0496 28.2613 21.3706 28.7292 21.8502L32.7563 25.9783L31.2113 27.4856L27.5408 23.7231C27.2647 23.44 26.9719 23.25 26.6623 23.1529C26.3528 23.0559 26.0461 23.0482 25.7421 23.1299C25.4383 23.196 25.1567 23.3557 24.8972 23.6088C24.6456 23.8543 24.4791 24.1319 24.3975 24.4416C24.3084 24.7434 24.3084 25.0503 24.3978 25.3621C24.4871 25.6739 24.6699 25.9714 24.946 26.2544L28.6165 30.0169L27.0714 31.5242Z" fill="white"/>
<path d="M40.7863 20.7213C39.9737 21.2031 39.15 21.4615 38.3153 21.4967C37.49 21.5262 36.7213 21.3498 36.0093 20.9674C35.2973 20.585 34.7173 20.0158 34.2691 19.2599L30.2441 12.4707L32.1718 11.3279L36.1379 18.0179C36.3956 18.4525 36.7226 18.7886 37.1188 19.0262C37.5245 19.2582 37.9563 19.3726 38.4141 19.3693C38.8663 19.3566 39.3097 19.2214 39.7444 18.9638C40.1885 18.7005 40.5199 18.3763 40.7386 17.9912C40.9611 17.5912 41.0632 17.1603 41.0449 16.6986C41.0361 16.2314 40.9028 15.7804 40.6451 15.3457L36.679 8.6558L38.6066 7.51301L42.6315 14.3022C43.0797 15.0581 43.3007 15.8401 43.2946 16.6483C43.2884 17.4565 43.0696 18.2183 42.6382 18.9338C42.2162 19.6437 41.5989 20.2395 40.7863 20.7213Z" fill="white"/>
<path d="M50.0701 16.3234C49.1741 16.656 48.3131 16.7355 47.487 16.5618C46.6673 16.3739 45.9982 15.9603 45.4796 15.3209L46.7239 14.0329C47.116 14.4263 47.5523 14.6862 48.0327 14.8125C48.5235 14.9349 49.0057 14.9082 49.4794 14.7324C49.8501 14.5947 50.113 14.4034 50.2681 14.1584C50.4232 13.9133 50.4511 13.6569 50.3516 13.3891C50.2905 13.2244 50.1944 13.1077 50.0635 13.0391C49.9391 12.9564 49.7863 12.9077 49.605 12.893C49.4303 12.8641 49.2458 12.8564 49.0516 12.8699L47.5334 12.9941C46.7464 13.052 46.0892 12.9386 45.5617 12.654C45.0445 12.3656 44.6789 11.933 44.4648 11.3564C44.2736 10.8414 44.236 10.3457 44.352 9.86908C44.4745 9.37836 44.7273 8.93884 45.1104 8.55055C45.5039 8.15842 46.0044 7.84958 46.612 7.62402C47.4049 7.32964 48.1759 7.26018 48.925 7.41565C49.674 7.57112 50.3053 7.94605 50.8189 8.54044L49.5437 9.83992C49.2581 9.51242 48.9033 9.29847 48.4794 9.19807C48.0554 9.09767 47.6323 9.12585 47.2101 9.2826C46.8703 9.40876 46.6312 9.58539 46.4929 9.8125C46.3546 10.0396 46.3313 10.2767 46.423 10.5239C46.4804 10.6784 46.5713 10.797 46.6957 10.8796C46.8202 10.9623 46.9679 11.013 47.1388 11.0315C47.32 11.0463 47.5199 11.0482 47.7385 11.0374L49.2315 10.9401C49.998 10.8899 50.643 11.0019 51.1667 11.2762C51.7006 11.5467 52.0785 11.9806 52.3002 12.5779C52.4875 13.0825 52.52 13.5801 52.3975 14.0709C52.2712 14.5513 52.0113 14.9876 51.6179 15.3797C51.2245 15.7718 50.7085 16.0864 50.0701 16.3234Z" fill="white"/>
<path d="M59.0151 7.55444L57.5606 6.80122L58.4925 5.00141L56.5203 4.66416L56.7816 3.05433L58.7513 3.3753L58.4203 1.29235L60.0476 1.03374L60.3786 3.11669L62.1517 2.20091L62.8993 3.65041L61.1288 4.58246L62.5727 6.0047L61.4072 7.17429L59.9632 5.75204L59.0151 7.55444Z" fill="white"/>
<path d="M58.3333 85C57.6333 85 57.1667 84.75 56.7 84.25C55.7667 83.25 55.7667 81.75 56.7 80.75L80.0333 55.75C80.9667 54.75 82.3667 54.75 83.3 55.75C84.2333 56.75 84.2333 58.25 83.3 59.25L59.9667 84.25C59.5 84.75 59.0333 85 58.3333 85Z" fill="#FBE87E"/>
<path d="M81.6666 82.5C80.2666 82.5 79.3333 81.5 79.3333 80V60H60.6666C59.2666 60 58.3333 59 58.3333 57.5C58.3333 56 59.2666 55 60.6666 55H81.6666C83.0666 55 83.9999 56 83.9999 57.5V80C83.9999 81.5 83.0666 82.5 81.6666 82.5Z" fill="#FBE87E"/>
</svg>
