<svg width="200" height="200" viewBox="0 0 200 200" fill="none" xmlns="http://www.w3.org/2000/svg">
<path d="M100 0C112.745 0 123.09 10.3445 123.09 23.0898V44.2627L138.074 29.2773C147.079 20.2494 161.696 20.2725 170.724 29.2773C179.751 38.2821 179.751 52.8979 170.724 61.9258L155.738 76.9111H176.911C189.657 76.9111 200.001 87.2547 200.001 100C200.001 112.745 189.657 123.089 176.911 123.089H155.738L170.724 138.074C179.751 147.079 179.751 161.695 170.724 170.723C161.719 179.751 147.102 179.751 138.074 170.723L123.09 155.737V176.91C123.09 189.655 112.745 200 100 200C87.2547 200 76.9111 189.655 76.9111 176.91V155.737L61.9258 170.723C52.9209 179.751 38.3053 179.75 29.2773 170.723C20.2494 161.718 20.2494 147.102 29.2773 138.074L44.2627 123.089H23.0889C10.3436 123.089 0 112.745 0 100C3.79926e-06 87.2548 10.3436 76.9113 23.0889 76.9111H44.2627L29.2773 61.9258C20.2494 52.9209 20.2725 38.3053 29.2773 29.2773C38.2822 20.2495 52.8978 20.2495 61.9258 29.2773L76.9111 44.2627V23.0898C76.9111 10.3446 87.2547 8.13403e-05 100 0Z" fill="#D9D9D9"/>
</svg>
